<?xml version="1.0" encoding="UTF-8" ?>
<!DOCTYPE svg PUBLIC "-//W3C//DTD SVG 1.1//EN" "http://www.w3.org/Graphics/SVG/1.1/DTD/svg11.dtd">
<svg width="960pt" height="540pt" viewBox="0 0 960 540" version="1.1" xmlns="http://www.w3.org/2000/svg">
<g id="#ffffffff">
<path fill="#ffffff" opacity="1.00" d=" M 0.00 0.00 L 960.00 0.00 L 960.00 540.00 L 0.00 540.00 L 0.00 0.00 M 445.11 138.85 C 433.47 142.90 421.02 140.00 409.02 140.97 C 397.37 141.95 385.70 139.86 374.06 140.99 C 366.39 142.01 358.67 140.82 350.98 141.27 C 337.16 141.51 323.63 136.64 309.80 137.90 C 309.44 138.62 308.71 140.08 308.35 140.81 L 310.23 140.28 C 309.92 141.01 309.30 142.45 308.99 143.18 C 310.90 143.66 312.79 144.26 314.67 144.87 C 311.78 145.71 307.52 145.88 308.30 150.16 C 317.22 150.70 326.15 150.03 334.95 148.49 C 338.87 147.67 342.91 148.23 346.87 147.68 C 353.52 146.53 360.24 147.98 366.93 147.48 C 381.27 147.20 395.63 147.65 409.96 147.01 C 425.63 147.02 441.75 145.74 456.80 151.04 C 464.01 151.99 471.22 149.87 477.93 147.40 C 502.59 146.02 527.33 146.54 552.03 146.77 C 567.02 147.06 582.22 145.46 596.98 148.88 C 603.05 150.44 609.33 149.67 615.35 148.26 C 615.31 147.88 615.23 147.11 615.20 146.72 C 614.03 146.63 612.87 146.55 611.71 146.47 C 608.91 144.24 609.67 140.56 610.08 137.48 C 607.78 136.72 605.36 136.35 602.96 136.72 C 595.01 138.02 587.04 139.24 579.02 139.99 C 570.34 140.12 561.65 139.94 552.96 140.24 C 540.97 140.61 528.96 139.68 516.98 140.51 C 503.39 140.12 489.59 142.14 476.17 139.30 C 473.72 138.61 471.02 138.34 469.05 136.58 C 465.05 135.99 461.00 135.21 456.94 135.61 C 453.01 136.75 449.05 137.77 445.11 138.85 M 428.56 161.67 C 427.60 163.23 426.48 164.68 425.27 166.05 C 425.14 166.76 424.89 168.17 424.76 168.88 C 423.74 170.47 422.84 172.13 421.87 173.74 C 420.23 178.70 418.25 183.53 416.21 188.33 C 414.94 190.61 412.63 192.44 413.02 195.36 C 412.71 195.71 412.09 196.42 411.78 196.77 C 411.13 202.35 407.96 207.33 405.19 212.12 C 404.80 214.61 405.02 217.15 405.10 219.66 C 407.06 223.25 408.87 226.96 411.57 230.09 C 412.52 231.97 413.15 233.98 413.55 236.06 C 415.42 239.88 418.03 243.52 418.44 247.88 C 419.37 250.44 421.86 252.34 421.76 255.30 C 423.92 258.82 426.15 262.30 427.95 266.03 C 428.03 267.64 428.13 269.26 428.25 270.89 C 429.78 270.91 431.31 270.91 432.85 270.88 C 432.92 269.28 432.96 267.69 432.97 266.10 C 434.01 264.83 435.27 263.81 436.73 263.06 C 436.64 261.56 436.51 260.07 436.38 258.59 C 437.35 257.53 438.32 256.47 439.29 255.41 C 439.76 251.41 441.38 247.60 443.60 244.27 C 444.09 244.08 445.07 243.70 445.57 243.51 C 446.13 240.92 446.26 238.27 446.35 235.63 C 447.08 234.92 447.80 234.20 448.50 233.45 C 449.04 233.23 450.12 232.79 450.65 232.57 C 450.91 230.50 451.12 228.43 451.40 226.37 C 451.71 226.12 452.33 225.62 452.65 225.37 C 452.98 221.73 455.95 219.27 457.67 216.24 C 457.69 215.89 457.73 215.18 457.75 214.82 C 454.64 211.31 454.03 206.27 451.55 202.35 C 451.09 200.55 451.11 198.51 449.79 197.07 C 448.50 195.36 447.85 193.34 447.44 191.26 C 446.10 189.78 445.84 187.75 445.03 186.00 C 443.35 183.12 440.77 180.59 440.94 177.00 C 440.27 176.22 439.60 175.43 438.96 174.64 C 437.59 172.65 435.82 170.67 436.21 168.07 C 436.50 165.78 435.16 163.90 434.15 162.00 C 433.10 161.37 432.05 160.72 431.03 160.06 C 430.21 160.60 429.38 161.13 428.56 161.67 M 534.86 160.99 C 534.50 163.05 533.84 165.03 532.80 166.85 C 532.67 168.51 532.57 170.18 532.42 171.85 C 530.51 173.72 531.25 176.72 529.87 178.92 C 529.40 182.15 527.87 185.07 526.33 187.90 C 525.95 191.48 524.90 195.01 522.81 197.98 C 522.78 198.69 522.73 200.11 522.70 200.81 C 521.56 202.71 520.78 204.78 519.82 206.77 C 519.22 208.83 518.15 210.78 517.98 212.95 C 517.66 214.71 517.93 216.84 516.27 218.04 C 516.05 220.82 516.13 223.68 514.91 226.26 C 513.32 226.11 511.57 226.28 510.32 225.08 C 507.72 223.17 505.17 220.06 501.61 221.49 C 501.48 223.33 500.46 225.77 502.99 226.40 C 502.93 229.29 502.93 232.17 503.00 235.06 C 502.59 235.42 501.77 236.15 501.36 236.52 C 501.29 238.25 501.29 239.98 501.33 241.72 C 503.90 242.60 506.29 242.00 508.15 240.05 C 509.28 238.92 510.45 237.83 511.69 236.82 C 511.17 238.20 510.59 239.57 509.95 240.91 C 509.49 243.13 507.23 245.34 508.66 247.60 C 508.30 248.76 507.96 249.92 507.65 251.10 C 507.36 251.26 506.80 251.59 506.52 251.75 C 505.38 253.07 504.21 254.35 503.00 255.59 C 503.01 257.07 503.04 258.56 503.09 260.05 C 509.82 259.96 516.59 260.51 523.29 259.67 C 523.48 258.49 523.66 257.31 523.85 256.13 C 522.86 254.72 521.96 253.25 521.02 251.81 C 521.36 251.39 522.04 250.56 522.38 250.14 C 522.44 248.82 522.52 247.52 522.62 246.21 C 524.39 244.11 524.10 241.32 524.14 238.77 C 532.39 238.35 540.72 238.22 548.96 238.83 C 549.21 240.20 549.45 241.58 549.69 242.96 C 551.77 245.95 551.07 249.81 551.04 253.24 C 551.25 253.57 551.66 254.25 551.86 254.59 C 551.16 256.26 550.61 257.99 550.25 259.77 C 557.30 260.37 564.44 260.34 571.50 259.78 C 571.49 259.29 571.46 258.31 571.45 257.82 C 570.29 256.55 569.23 255.20 568.22 253.82 C 565.82 250.79 563.52 247.36 563.75 243.31 C 562.67 241.89 562.25 240.15 561.82 238.47 C 565.43 238.10 566.39 243.71 570.33 242.22 C 571.00 235.77 570.52 229.20 570.47 222.72 C 569.54 222.67 567.68 222.57 566.75 222.52 C 565.46 225.92 561.96 227.12 558.88 228.37 C 557.00 225.53 557.58 222.12 557.32 218.93 C 556.41 216.81 555.50 214.67 554.15 212.80 C 554.02 210.92 553.92 209.04 553.72 207.18 C 551.25 205.62 550.93 202.79 550.28 200.22 C 548.97 198.06 549.24 195.29 547.57 193.33 C 547.49 191.57 547.42 189.80 547.29 188.04 C 546.18 186.60 545.82 184.80 545.34 183.09 C 543.33 180.78 544.12 177.58 543.91 174.79 C 543.62 174.60 543.03 174.23 542.74 174.05 C 542.36 172.52 541.66 171.14 540.78 169.85 C 540.76 168.50 540.74 167.16 540.73 165.81 C 540.31 165.64 539.48 165.28 539.06 165.11 C 538.98 163.98 538.90 162.86 538.83 161.74 C 537.50 161.49 536.17 161.23 534.86 160.99 M 476.40 165.48 C 476.42 166.69 476.46 167.89 476.52 169.10 C 479.59 171.65 481.39 175.27 482.86 178.90 C 483.21 190.95 482.87 203.03 483.04 215.10 C 483.09 217.13 484.19 218.93 484.49 220.92 C 484.14 222.25 483.51 223.52 483.33 224.90 C 483.03 231.73 483.00 238.57 482.94 245.40 C 478.78 248.43 476.08 252.98 471.88 255.95 C 468.99 258.06 466.39 261.29 462.41 260.62 C 462.05 260.96 461.33 261.64 460.97 261.98 C 458.32 262.00 455.67 262.05 453.05 262.39 C 453.30 263.41 452.98 264.78 454.10 265.41 C 457.12 268.00 459.28 271.34 461.06 274.87 C 462.55 276.15 463.17 277.97 463.49 279.86 C 464.73 279.87 465.97 279.88 467.23 279.89 C 467.95 277.65 468.86 275.48 469.72 273.29 C 472.78 272.25 474.19 268.90 477.15 267.68 C 479.85 266.83 482.02 264.96 484.09 263.10 C 484.27 260.81 485.84 259.07 487.76 257.96 C 490.50 255.63 493.55 253.55 495.71 250.61 C 496.22 246.78 495.89 242.85 496.00 238.98 C 496.00 220.65 495.97 202.31 496.01 183.98 C 495.80 182.45 496.55 181.16 497.47 180.02 C 497.52 178.11 497.52 176.20 497.48 174.29 C 497.88 174.05 498.68 173.56 499.09 173.31 C 498.94 171.56 500.01 170.30 500.99 169.01 C 500.87 167.81 500.71 166.63 500.50 165.45 C 494.35 164.65 488.14 165.41 481.97 164.87 C 480.08 164.57 478.23 165.09 476.40 165.48 M 336.95 169.38 C 336.94 172.50 339.63 174.40 341.78 176.22 C 342.11 179.21 343.59 181.98 343.51 185.02 C 343.53 189.01 343.47 193.00 343.53 197.00 C 344.07 201.82 340.87 206.24 342.21 211.10 C 343.76 215.54 343.91 220.40 343.22 225.01 C 341.74 227.81 341.93 230.99 342.04 234.05 C 342.40 234.49 343.10 235.36 343.45 235.80 C 343.53 240.72 343.54 245.64 343.49 250.56 C 341.87 252.90 339.73 255.19 339.99 258.27 C 346.37 258.56 352.80 258.68 359.18 258.25 C 359.45 257.69 359.99 256.56 360.27 255.99 C 359.88 255.69 359.12 255.09 358.74 254.79 C 358.27 253.35 357.61 251.96 356.56 250.87 C 356.41 248.46 356.90 245.89 355.53 243.74 C 357.35 239.05 356.16 233.90 356.46 229.00 C 357.19 223.33 352.75 217.35 356.35 212.05 C 356.64 202.55 356.40 193.01 356.38 183.50 C 357.40 182.62 358.38 181.71 359.35 180.78 C 361.77 182.09 364.25 183.32 367.11 183.07 C 367.32 182.49 367.74 181.35 367.95 180.77 C 370.53 181.17 372.89 182.29 375.31 183.22 C 374.57 184.86 373.74 186.47 373.22 188.20 C 372.30 189.24 371.32 190.22 370.46 191.30 C 369.86 193.46 370.14 195.85 368.93 197.83 C 367.82 199.18 366.76 200.57 365.62 201.89 C 365.11 203.27 364.59 204.64 363.97 205.97 C 363.15 208.39 362.11 210.72 361.25 213.13 C 360.53 214.20 360.18 215.44 360.06 216.72 C 357.99 218.56 356.15 220.55 356.58 223.56 C 357.86 224.37 359.05 225.32 360.23 226.27 C 361.45 229.88 363.90 232.65 366.41 235.43 C 366.94 236.61 367.52 237.78 368.13 238.93 C 370.87 243.71 374.87 247.61 378.52 251.70 C 378.51 253.86 378.54 256.01 378.64 258.17 C 381.12 258.46 383.63 258.94 386.15 258.61 C 392.20 258.06 398.33 259.02 404.35 258.07 C 405.18 255.70 402.55 254.85 401.29 253.42 C 400.84 253.27 399.94 252.97 399.49 252.82 C 396.67 250.37 394.29 247.33 390.94 245.57 C 390.74 245.31 390.33 244.80 390.13 244.55 C 388.71 243.56 387.17 242.58 386.41 240.96 C 384.62 237.47 381.54 234.99 379.11 232.00 C 376.29 228.17 374.37 223.73 371.32 220.07 C 374.54 215.64 377.22 210.64 378.29 205.23 C 380.20 203.41 380.90 200.79 381.78 198.39 C 382.75 195.62 385.40 193.49 384.98 190.32 C 385.74 189.51 386.52 188.71 387.33 187.94 C 388.76 185.71 390.00 183.38 391.37 181.12 C 391.55 179.04 391.40 176.96 390.10 175.25 C 391.81 173.64 391.46 171.31 391.44 169.20 C 387.70 168.50 384.14 166.68 380.26 167.16 C 378.17 169.84 374.76 168.14 371.93 168.32 C 367.99 166.12 363.31 167.31 359.03 167.04 C 351.64 167.48 343.72 165.54 336.95 169.38 M 407.36 304.11 C 410.08 309.11 412.47 314.28 415.07 319.35 C 415.42 318.65 416.13 317.23 416.49 316.52 C 418.32 312.18 420.58 308.02 422.81 303.87 C 420.56 298.47 417.84 293.29 415.06 288.15 C 411.95 293.18 409.73 298.71 407.36 304.11 M 491.80 288.54 C 490.09 294.92 486.97 300.83 485.48 307.27 C 484.27 306.68 483.08 306.06 481.90 305.45 C 481.91 307.40 481.86 309.36 481.74 311.32 C 482.75 310.68 483.78 310.04 484.80 309.41 C 484.04 311.71 483.15 313.98 481.80 316.01 C 483.73 315.98 485.66 315.96 487.60 316.00 C 487.24 313.99 487.56 312.00 488.00 310.04 C 490.64 309.95 493.28 309.94 495.93 310.05 C 496.43 311.99 496.69 313.99 496.63 316.00 C 498.48 316.00 500.33 316.00 502.19 316.02 C 500.77 314.11 499.77 311.96 499.15 309.67 C 500.11 310.16 501.06 310.66 502.02 311.17 C 502.00 309.40 502.01 307.63 502.02 305.87 C 500.85 306.48 499.67 307.08 498.49 307.66 C 497.94 305.26 497.23 302.90 496.25 300.64 C 494.55 296.68 494.08 292.25 491.80 288.54 M 559.35 288.14 C 559.12 288.80 558.65 290.11 558.41 290.76 C 555.57 292.84 552.13 294.05 549.07 295.80 C 550.44 297.95 551.90 300.06 553.39 302.14 C 552.60 302.09 551.01 302.00 550.22 301.95 C 550.18 303.36 550.12 304.78 550.06 306.19 C 551.74 305.82 553.41 305.40 555.08 304.97 C 556.05 306.54 557.03 308.10 558.02 309.67 C 555.21 311.59 551.90 312.36 548.52 312.03 C 549.60 313.04 550.69 314.05 551.77 315.08 C 552.14 316.15 552.55 317.24 552.97 318.31 C 554.86 314.27 559.72 313.32 563.09 310.84 C 561.92 308.65 560.70 306.49 559.61 304.28 C 560.33 304.60 561.78 305.24 562.51 305.56 C 562.47 304.55 562.40 302.53 562.37 301.52 C 560.90 301.75 559.44 301.96 557.98 302.15 C 556.99 300.40 555.89 298.73 554.75 297.09 C 557.32 295.61 560.08 294.27 563.15 294.87 C 561.70 292.73 560.37 290.51 559.35 288.14 M 591.79 288.55 C 590.08 294.93 586.97 300.83 585.48 307.27 C 584.27 306.68 583.07 306.06 581.90 305.45 C 581.91 307.40 581.86 309.36 581.74 311.31 C 582.74 310.68 583.77 310.06 584.79 309.44 C 584.03 311.73 583.15 313.99 581.80 316.01 C 583.73 315.98 585.66 315.96 587.60 316.00 C 587.24 313.99 587.56 312.00 587.99 310.04 C 590.64 309.95 593.29 309.94 595.94 310.06 C 596.43 312.00 596.69 313.99 596.63 316.00 C 598.48 316.00 600.33 316.00 602.19 316.02 C 600.78 314.11 599.77 311.97 599.15 309.70 C 600.11 310.17 601.07 310.66 602.03 311.17 C 602.00 309.37 602.00 307.58 602.00 305.79 C 600.88 306.47 599.76 307.14 598.64 307.81 C 597.95 305.36 597.22 302.92 596.22 300.57 C 594.54 296.64 594.09 292.22 591.79 288.55 M 337.48 290.01 C 338.11 291.08 338.74 292.15 339.37 293.22 C 339.43 295.78 339.52 298.33 339.55 300.89 C 338.89 301.39 337.58 302.40 336.92 302.91 C 337.50 303.31 338.65 304.13 339.23 304.54 C 339.62 307.93 340.22 311.87 338.23 314.90 L 338.82 315.11 C 337.72 315.19 336.62 315.25 335.53 315.31 C 333.03 308.32 332.48 300.82 331.16 293.56 C 332.45 292.62 333.73 291.65 334.98 290.65 C 332.78 290.61 330.59 290.90 328.41 291.08 C 327.15 293.91 325.60 296.58 324.08 299.27 C 322.66 296.46 321.02 293.77 319.86 290.84 C 317.97 290.62 316.06 290.58 314.16 290.59 C 315.21 292.15 317.67 293.60 316.72 295.81 C 315.67 299.16 314.93 302.60 314.64 306.11 C 313.93 309.50 314.11 313.38 311.46 316.00 C 313.46 315.90 315.48 315.92 317.49 316.01 C 316.61 310.12 318.23 304.21 319.67 298.54 C 321.27 301.24 322.59 304.09 323.97 306.91 C 325.49 304.07 327.03 301.23 328.32 298.27 C 329.03 304.25 331.54 309.99 330.65 316.11 C 335.26 316.88 339.86 315.05 344.52 315.52 C 341.44 312.78 342.72 308.50 342.46 304.88 C 343.43 304.10 344.45 303.39 345.51 302.75 C 344.46 302.13 343.43 301.53 342.40 300.92 C 342.55 297.13 341.38 292.77 344.72 289.99 C 342.31 290.12 339.89 290.16 337.48 290.01 M 364.95 290.02 C 365.59 291.05 366.23 292.10 366.87 293.14 C 366.92 295.72 367.02 298.31 367.03 300.89 C 366.09 301.61 365.16 302.33 364.22 303.05 C 365.12 303.49 366.03 303.94 366.94 304.38 C 367.02 307.25 367.01 310.11 367.00 312.99 C 366.24 313.95 365.50 314.92 364.76 315.89 C 367.19 315.63 369.64 315.48 372.09 315.46 C 371.39 314.66 370.69 313.85 370.01 313.06 C 369.99 310.68 369.93 308.31 369.95 305.93 C 369.52 303.98 371.98 303.69 373.06 302.76 C 372.00 302.16 370.96 301.57 369.92 300.98 C 370.04 297.17 368.88 292.75 372.24 289.97 C 369.81 290.13 367.38 290.15 364.95 290.02 M 423.89 290.00 C 426.94 293.56 428.15 298.07 429.35 302.48 C 430.12 307.10 432.21 311.33 433.23 315.89 C 433.55 316.30 434.19 317.13 434.51 317.54 C 437.26 309.21 439.67 300.77 442.72 292.54 C 443.34 291.65 444.12 290.89 444.87 290.09 C 442.14 290.35 439.40 290.22 436.70 289.94 C 437.30 290.99 437.85 292.08 438.35 293.19 C 437.73 297.89 436.24 302.46 434.15 306.71 C 432.58 302.06 430.83 297.44 429.84 292.62 C 430.58 291.77 431.33 290.91 432.07 290.05 C 429.34 290.24 426.61 290.16 423.89 290.00 M 449.16 289.95 C 449.50 293.10 449.77 296.26 450.07 299.43 C 448.55 298.83 447.13 298.02 445.72 297.21 C 445.93 299.59 446.01 301.99 446.02 304.39 C 446.46 303.92 447.33 302.97 447.77 302.49 C 448.33 302.43 449.44 302.29 450.00 302.23 C 449.80 303.59 449.61 304.95 449.41 306.31 C 453.30 309.90 459.02 311.42 461.79 316.19 C 462.79 314.82 463.82 313.47 464.91 312.17 C 460.67 310.58 457.33 307.39 453.40 305.24 C 453.22 304.23 453.06 303.23 452.91 302.23 C 454.60 302.10 456.29 302.00 457.99 301.94 C 458.75 302.95 459.51 303.97 460.28 304.99 C 460.74 302.20 460.82 299.39 460.82 296.57 C 459.83 297.36 458.89 298.19 457.95 299.02 C 456.22 298.87 454.50 298.71 452.79 298.56 C 453.02 296.88 453.33 295.21 453.75 293.57 C 457.02 293.94 460.49 293.18 463.52 294.76 C 463.55 292.98 463.62 291.21 463.73 289.45 C 458.98 290.76 454.01 290.08 449.16 289.95 M 517.87 290.04 C 522.90 295.80 522.92 303.79 525.70 310.57 C 526.68 312.89 526.51 315.75 528.50 317.55 C 531.19 309.40 533.60 301.16 536.49 293.07 C 536.95 291.86 538.04 291.06 538.86 290.11 C 536.14 290.33 533.41 290.23 530.71 289.94 C 531.28 291.14 532.12 292.27 532.37 293.61 C 531.56 298.14 530.23 302.59 528.15 306.71 C 526.57 302.07 524.87 297.45 523.82 292.67 C 524.57 291.80 525.32 290.92 526.07 290.05 C 523.33 290.23 520.59 290.15 517.87 290.04 M 539.95 290.03 C 540.58 291.06 541.22 292.10 541.87 293.14 C 541.92 295.73 542.01 298.31 542.04 300.90 C 541.07 301.62 540.12 302.35 539.16 303.07 C 539.86 303.40 541.27 304.06 541.97 304.40 C 542.02 307.26 542.01 310.12 542.00 312.98 C 541.24 313.95 540.49 314.91 539.76 315.89 C 542.19 315.63 544.63 315.47 547.09 315.46 C 546.39 314.66 545.69 313.85 545.01 313.06 C 544.99 310.67 544.93 308.28 544.94 305.89 C 544.53 303.97 547.02 303.70 548.06 302.77 C 547.01 302.17 545.96 301.57 544.91 300.97 C 545.04 297.17 543.89 292.75 547.24 289.97 C 544.81 290.13 542.37 290.15 539.95 290.03 M 564.52 289.98 C 566.36 293.37 565.47 297.31 565.89 300.97 C 565.97 304.41 566.61 308.17 564.70 311.26 C 569.99 312.85 574.65 316.89 580.51 315.53 C 578.46 312.32 580.19 308.53 579.47 305.00 C 579.94 300.24 578.35 295.19 580.35 290.69 C 578.68 290.63 577.01 290.56 575.35 290.47 C 576.70 297.61 575.78 304.99 575.88 312.23 C 573.68 311.41 571.52 310.51 569.38 309.55 C 569.10 303.30 568.73 296.94 570.01 290.76 C 568.16 290.61 566.32 290.39 564.52 289.98 M 346.22 290.90 C 349.52 294.53 348.32 299.52 348.50 303.96 C 348.31 308.15 349.24 312.57 347.27 316.49 C 349.23 316.31 351.20 316.28 353.16 316.48 C 351.04 311.73 352.23 306.41 352.10 301.39 C 353.55 304.36 355.10 307.27 356.69 310.17 C 358.39 313.43 359.49 317.06 361.85 319.94 C 362.46 310.91 361.87 301.86 362.03 292.81 C 362.32 292.36 362.92 291.46 363.22 291.01 C 361.32 290.88 359.42 290.71 357.53 290.48 C 359.59 295.44 358.25 301.00 358.77 306.22 C 356.37 303.34 355.49 299.62 353.69 296.39 C 352.70 294.68 351.96 292.82 352.02 290.81 C 350.09 290.70 348.15 290.76 346.22 290.90 M 388.70 290.93 C 392.01 294.52 390.82 299.54 391.00 303.97 C 390.81 308.14 391.71 312.55 389.83 316.47 C 391.77 316.30 393.72 316.31 395.67 316.44 C 393.49 311.72 394.82 306.43 394.50 301.44 C 397.89 307.47 400.86 313.71 403.90 319.92 C 405.24 317.11 404.25 313.88 404.63 310.89 C 405.07 304.28 403.40 297.38 405.42 290.98 C 403.62 290.86 401.83 290.69 400.06 290.48 C 401.82 295.45 401.19 301.01 400.94 306.21 C 399.03 303.15 397.94 299.70 396.25 296.53 C 395.32 294.74 394.37 292.87 394.53 290.80 C 392.58 290.70 390.64 290.77 388.70 290.93 M 466.32 290.56 C 468.67 297.63 467.52 305.36 467.51 312.70 C 466.91 313.62 466.31 314.55 465.73 315.48 C 470.58 315.60 475.46 315.23 480.31 315.81 C 480.42 313.96 480.52 312.10 480.67 310.25 C 478.20 313.28 474.34 312.22 470.99 312.04 C 471.03 306.68 470.93 301.32 470.95 295.96 C 470.78 293.97 471.79 292.23 472.55 290.49 C 470.47 290.51 468.39 290.54 466.32 290.56 M 603.85 290.53 C 605.62 294.85 604.92 299.60 605.29 304.15 C 605.14 307.98 605.74 312.21 603.40 315.52 C 608.25 315.53 613.11 315.33 617.95 315.74 C 617.95 313.85 618.01 311.97 618.06 310.08 C 615.77 313.31 611.83 312.26 608.48 312.02 C 608.48 308.67 608.51 305.33 608.48 301.99 C 608.51 298.11 607.81 293.95 610.06 290.50 C 607.98 290.51 605.92 290.53 603.85 290.53 M 570.06 302.10 C 571.05 303.30 572.03 304.52 573.03 305.73 C 573.78 304.43 574.51 303.11 575.22 301.79 C 574.40 300.66 573.61 299.52 572.85 298.37 C 571.91 299.60 570.98 300.85 570.06 302.10 M 453.37 332.14 C 449.61 333.38 445.64 333.88 441.98 335.41 C 430.80 337.67 419.34 335.73 408.04 336.50 C 396.31 337.18 384.58 335.41 372.87 336.59 C 366.25 337.24 359.60 336.42 352.97 336.72 C 338.09 337.53 323.55 331.81 308.66 333.61 C 308.68 334.86 308.71 336.12 308.73 337.39 C 308.99 337.42 309.52 337.48 309.78 337.50 C 309.65 337.90 309.38 338.70 309.25 339.10 C 311.08 339.35 312.91 339.65 314.73 340.00 C 312.76 340.79 310.75 341.44 308.67 341.86 C 308.70 342.58 308.75 344.03 308.78 344.75 C 307.13 344.81 305.51 344.89 303.87 345.02 C 313.58 346.31 323.42 345.92 333.05 344.26 C 338.30 343.08 343.72 343.83 349.01 342.93 C 355.98 342.29 362.96 343.64 369.94 342.90 C 391.96 343.15 413.96 342.19 435.98 342.48 C 442.02 343.05 448.00 344.09 453.92 345.43 C 460.51 348.61 468.11 345.57 474.86 344.22 C 477.16 342.40 480.25 342.65 483.02 342.52 C 489.99 342.50 496.96 342.34 503.92 342.05 C 527.28 341.67 550.63 342.63 573.99 342.18 C 581.04 342.31 588.22 342.30 595.08 344.11 C 597.05 344.38 599.08 344.45 600.97 345.17 C 605.58 345.72 610.13 344.66 614.69 344.12 C 614.53 343.64 614.20 342.69 614.04 342.22 C 614.57 342.19 615.63 342.12 616.16 342.09 C 614.39 341.83 612.60 341.67 610.88 341.24 C 608.84 338.76 610.02 335.37 609.68 332.44 C 606.62 332.11 603.50 331.91 600.48 332.62 C 591.37 333.97 582.24 335.82 572.99 335.54 C 558.64 335.47 544.30 336.04 529.95 335.54 C 524.28 335.26 518.64 336.28 512.96 336.02 C 500.68 335.82 488.21 337.55 476.10 334.81 C 473.60 334.15 470.81 333.84 468.92 331.91 C 463.77 331.47 458.33 330.03 453.37 332.14 Z" />
<path fill="#ffffff" opacity="1.00" d=" M 429.69 190.18 C 431.30 191.98 432.81 193.90 433.55 196.25 C 435.32 199.82 437.94 203.17 438.41 207.23 C 438.63 207.49 439.09 208.01 439.32 208.27 C 439.69 209.83 440.04 211.51 441.63 212.31 C 441.56 213.65 441.48 215.00 441.42 216.34 C 438.77 220.26 435.83 224.58 436.49 229.55 C 435.42 230.32 434.37 231.11 433.33 231.91 C 432.99 234.90 431.39 237.49 430.20 240.19 C 427.90 238.02 427.73 234.76 426.56 231.99 C 425.76 228.80 423.32 226.48 421.34 224.00 C 421.40 222.09 420.84 220.29 419.84 218.69 C 419.40 217.17 418.75 215.74 418.26 214.25 C 419.08 212.45 420.00 210.71 420.97 208.99 C 422.91 204.67 424.16 199.90 427.47 196.35 C 429.08 194.66 429.69 192.47 429.69 190.18 M 429.00 201.61 C 428.23 203.30 427.34 204.94 426.02 206.26 C 425.47 207.38 425.07 208.56 424.72 209.75 C 423.68 211.35 422.74 213.02 421.58 214.53 C 421.56 215.69 421.56 216.85 421.59 218.02 C 425.90 220.83 425.55 227.03 429.89 229.98 C 431.48 228.55 433.03 227.05 434.32 225.33 C 434.97 223.92 435.66 222.53 436.29 221.11 C 437.81 219.04 440.35 216.75 439.26 213.91 C 437.35 209.33 434.61 205.17 431.92 201.03 C 430.94 201.21 429.97 201.41 429.00 201.61 Z" />
<path fill="#ffffff" opacity="1.00" d=" M 536.22 200.36 C 538.11 202.43 537.63 205.29 537.79 207.85 C 540.36 211.19 540.59 215.54 542.51 219.16 C 542.61 220.83 542.69 222.51 542.79 224.19 C 543.18 224.58 543.97 225.38 544.36 225.77 C 543.22 227.42 540.91 228.76 539.55 226.45 C 539.00 226.91 538.45 227.37 537.91 227.83 C 535.32 224.54 530.44 227.26 526.95 225.61 C 528.18 224.17 529.38 222.69 530.68 221.31 C 530.90 219.22 530.88 217.01 532.04 215.17 C 533.03 212.41 534.27 209.66 534.07 206.65 C 534.50 206.35 535.36 205.76 535.78 205.46 C 535.90 203.75 536.01 202.05 536.22 200.36 Z" />
<path fill="#ffffff" opacity="1.00" d=" M 411.21 303.37 C 412.08 300.85 413.61 298.65 414.99 296.40 C 416.29 299.22 419.79 302.38 417.66 305.59 C 416.83 307.51 415.84 309.36 414.87 311.21 C 413.71 308.58 411.74 306.24 411.21 303.37 M 412.40 303.91 C 413.22 305.19 414.04 306.47 414.89 307.75 C 415.80 306.42 416.69 305.09 417.60 303.76 C 416.79 302.36 415.95 300.98 415.09 299.63 C 414.18 301.04 413.29 302.48 412.40 303.91 Z" />
<path fill="#ffffff" opacity="1.00" d=" M 491.95 298.91 C 492.82 301.71 493.84 304.47 494.52 307.33 C 492.66 307.21 490.81 307.06 488.95 306.97 C 490.15 304.36 491.06 301.63 491.95 298.91 Z" />
<path fill="#ffffff" opacity="1.00" d=" M 588.95 306.98 C 590.13 304.38 591.03 301.68 591.97 298.99 C 592.84 301.75 593.83 304.49 594.53 307.31 C 592.66 307.20 590.81 307.06 588.95 306.98 Z" />
</g>
<g id="#000000ff">
<path fill="#000000" opacity="1.00" d=" M 445.11 138.85 C 449.05 137.77 453.01 136.75 456.94 135.61 C 461.00 135.21 465.05 135.99 469.05 136.58 C 471.02 138.34 473.72 138.61 476.17 139.30 C 489.59 142.14 503.39 140.12 516.98 140.51 C 528.96 139.68 540.97 140.61 552.96 140.24 C 561.65 139.94 570.34 140.12 579.02 139.99 C 587.04 139.24 595.01 138.02 602.96 136.72 C 605.36 136.35 607.78 136.72 610.08 137.48 C 609.67 140.56 608.91 144.24 611.71 146.47 C 612.87 146.55 614.03 146.63 615.20 146.72 C 615.23 147.11 615.31 147.88 615.35 148.26 C 609.33 149.67 603.05 150.44 596.98 148.88 C 582.22 145.46 567.02 147.06 552.03 146.77 C 527.33 146.54 502.59 146.02 477.93 147.40 C 471.22 149.87 464.01 151.99 456.80 151.04 C 441.75 145.74 425.63 147.02 409.96 147.01 C 395.63 147.65 381.27 147.20 366.93 147.48 C 360.24 147.98 353.52 146.53 346.87 147.68 C 342.91 148.23 338.87 147.67 334.95 148.49 C 326.15 150.03 317.22 150.70 308.30 150.16 C 307.52 145.88 311.78 145.71 314.67 144.87 C 312.79 144.26 310.90 143.66 308.99 143.18 C 309.30 142.45 309.92 141.01 310.23 140.28 L 308.35 140.81 C 308.71 140.08 309.44 138.62 309.80 137.90 C 323.63 136.64 337.16 141.51 350.98 141.27 C 358.67 140.82 366.39 142.01 374.06 140.99 C 385.70 139.86 397.37 141.95 409.02 140.97 C 421.02 140.00 433.47 142.90 445.11 138.85 Z" />
<path fill="#000000" opacity="1.00" d=" M 428.56 161.67 C 429.38 161.13 430.21 160.60 431.03 160.06 C 432.05 160.72 433.10 161.37 434.15 162.00 C 435.16 163.90 436.50 165.78 436.21 168.07 C 435.82 170.67 437.59 172.65 438.96 174.64 C 439.60 175.43 440.27 176.22 440.94 177.00 C 440.77 180.59 443.35 183.12 445.03 186.00 C 445.84 187.75 446.10 189.78 447.44 191.26 C 447.85 193.34 448.50 195.36 449.79 197.07 C 451.11 198.51 451.09 200.55 451.55 202.35 C 454.03 206.27 454.64 211.31 457.75 214.82 C 457.73 215.18 457.69 215.89 457.67 216.24 C 455.95 219.27 452.98 221.73 452.65 225.37 C 452.33 225.62 451.71 226.12 451.40 226.37 C 451.12 228.43 450.91 230.50 450.65 232.57 C 450.12 232.79 449.04 233.23 448.50 233.45 C 447.80 234.20 447.08 234.92 446.35 235.63 C 446.26 238.27 446.13 240.92 445.57 243.51 C 445.07 243.70 444.09 244.08 443.60 244.27 C 441.38 247.60 439.76 251.41 439.29 255.41 C 438.32 256.47 437.35 257.53 436.38 258.59 C 436.51 260.07 436.64 261.56 436.73 263.06 C 435.27 263.81 434.01 264.83 432.97 266.10 C 432.96 267.69 432.92 269.28 432.85 270.88 C 431.31 270.91 429.78 270.91 428.25 270.89 C 428.13 269.26 428.03 267.64 427.95 266.03 C 426.15 262.30 423.92 258.82 421.76 255.30 C 421.86 252.34 419.37 250.44 418.44 247.88 C 418.03 243.52 415.42 239.88 413.55 236.06 C 413.15 233.98 412.52 231.97 411.57 230.09 C 408.87 226.96 407.06 223.25 405.10 219.66 C 405.02 217.15 404.80 214.61 405.19 212.12 C 407.96 207.33 411.13 202.35 411.78 196.77 C 412.09 196.42 412.71 195.71 413.02 195.36 C 412.63 192.44 414.94 190.61 416.21 188.33 C 418.25 183.53 420.23 178.70 421.87 173.74 C 422.84 172.13 423.74 170.47 424.76 168.88 C 424.89 168.17 425.14 166.76 425.27 166.05 C 426.48 164.68 427.60 163.23 428.56 161.67 M 429.69 190.18 C 429.69 192.47 429.08 194.66 427.47 196.35 C 424.16 199.90 422.91 204.67 420.97 208.99 C 420.00 210.71 419.08 212.45 418.26 214.25 C 418.75 215.74 419.40 217.17 419.84 218.69 C 420.84 220.29 421.40 222.09 421.34 224.00 C 423.32 226.48 425.76 228.80 426.56 231.99 C 427.73 234.76 427.90 238.02 430.20 240.19 C 431.39 237.49 432.99 234.90 433.33 231.91 C 434.37 231.11 435.42 230.32 436.49 229.55 C 435.83 224.58 438.77 220.26 441.42 216.34 C 441.48 215.00 441.56 213.65 441.63 212.31 C 440.04 211.51 439.69 209.83 439.32 208.27 C 439.09 208.01 438.63 207.49 438.41 207.23 C 437.94 203.17 435.32 199.82 433.55 196.25 C 432.81 193.90 431.30 191.98 429.69 190.18 Z" />
<path fill="#000000" opacity="1.00" d=" M 534.86 160.99 C 536.17 161.23 537.50 161.49 538.83 161.74 C 538.90 162.86 538.98 163.98 539.06 165.11 C 539.48 165.28 540.31 165.64 540.73 165.81 C 540.74 167.16 540.76 168.50 540.78 169.85 C 541.66 171.14 542.36 172.52 542.74 174.05 C 543.03 174.23 543.62 174.60 543.91 174.79 C 544.12 177.58 543.33 180.78 545.34 183.09 C 545.82 184.80 546.18 186.60 547.29 188.04 C 547.42 189.80 547.49 191.57 547.57 193.33 C 549.24 195.29 548.97 198.06 550.28 200.22 C 550.93 202.79 551.25 205.62 553.72 207.18 C 553.92 209.04 554.02 210.92 554.15 212.80 C 555.50 214.67 556.41 216.81 557.32 218.93 C 557.58 222.12 557.00 225.53 558.88 228.37 C 561.96 227.12 565.46 225.92 566.75 222.52 C 567.68 222.57 569.54 222.67 570.47 222.72 C 570.52 229.20 571.00 235.77 570.33 242.22 C 566.39 243.71 565.43 238.10 561.82 238.47 C 562.25 240.15 562.67 241.89 563.75 243.31 C 563.52 247.36 565.82 250.79 568.22 253.82 C 569.23 255.20 570.29 256.55 571.45 257.82 C 571.46 258.31 571.49 259.29 571.50 259.78 C 564.44 260.34 557.30 260.37 550.25 259.77 C 550.61 257.99 551.16 256.26 551.86 254.59 C 551.66 254.25 551.25 253.57 551.04 253.24 C 551.07 249.81 551.77 245.95 549.69 242.96 C 549.45 241.58 549.21 240.20 548.96 238.83 C 540.72 238.22 532.39 238.35 524.14 238.77 C 524.10 241.32 524.39 244.11 522.62 246.21 C 522.52 247.52 522.44 248.82 522.38 250.14 C 522.04 250.56 521.36 251.39 521.02 251.81 C 521.96 253.25 522.86 254.72 523.85 256.13 C 523.66 257.31 523.48 258.49 523.29 259.67 C 516.59 260.51 509.82 259.96 503.09 260.05 C 503.04 258.56 503.01 257.07 503.00 255.59 C 504.21 254.35 505.38 253.07 506.52 251.75 C 506.80 251.59 507.36 251.26 507.65 251.10 C 507.96 249.92 508.30 248.76 508.66 247.60 C 507.23 245.34 509.49 243.13 509.95 240.91 C 510.59 239.57 511.17 238.20 511.69 236.82 C 510.45 237.83 509.28 238.92 508.15 240.05 C 506.29 242.00 503.90 242.60 501.33 241.72 C 501.29 239.98 501.29 238.25 501.36 236.52 C 501.77 236.15 502.59 235.42 503.00 235.06 C 502.93 232.17 502.93 229.29 502.99 226.40 C 500.46 225.77 501.48 223.33 501.61 221.49 C 505.17 220.06 507.72 223.17 510.32 225.08 C 511.57 226.28 513.32 226.11 514.91 226.26 C 516.13 223.68 516.05 220.82 516.27 218.04 C 517.93 216.84 517.66 214.71 517.98 212.95 C 518.15 210.78 519.22 208.83 519.82 206.77 C 520.78 204.78 521.56 202.71 522.70 200.81 C 522.73 200.11 522.78 198.69 522.81 197.98 C 524.90 195.01 525.95 191.48 526.33 187.90 C 527.87 185.07 529.40 182.15 529.87 178.92 C 531.25 176.72 530.51 173.72 532.42 171.85 C 532.57 170.18 532.67 168.51 532.80 166.85 C 533.84 165.03 534.50 163.05 534.86 160.99 M 536.22 200.36 C 536.01 202.05 535.90 203.75 535.78 205.46 C 535.36 205.76 534.50 206.35 534.07 206.65 C 534.27 209.66 533.03 212.41 532.04 215.17 C 530.88 217.01 530.90 219.22 530.68 221.31 C 529.38 222.69 528.18 224.17 526.95 225.61 C 530.44 227.26 535.32 224.54 537.91 227.83 C 538.45 227.37 539.00 226.91 539.55 226.45 C 540.91 228.76 543.22 227.42 544.36 225.77 C 543.97 225.38 543.18 224.58 542.79 224.19 C 542.69 222.51 542.61 220.83 542.51 219.16 C 540.59 215.54 540.36 211.19 537.79 207.85 C 537.63 205.29 538.11 202.43 536.22 200.36 Z" />
<path fill="#000000" opacity="1.00" d=" M 476.40 165.48 C 478.23 165.09 480.08 164.57 481.97 164.87 C 488.14 165.41 494.35 164.65 500.50 165.45 C 500.71 166.63 500.87 167.81 500.99 169.01 C 500.01 170.30 498.94 171.56 499.09 173.31 C 498.68 173.56 497.88 174.05 497.48 174.29 C 497.52 176.20 497.52 178.11 497.47 180.02 C 496.55 181.16 495.80 182.45 496.01 183.98 C 495.97 202.31 496.00 220.65 496.00 238.98 C 495.89 242.85 496.22 246.78 495.71 250.61 C 493.55 253.55 490.50 255.63 487.76 257.96 C 485.84 259.07 484.27 260.81 484.09 263.10 C 482.02 264.96 479.85 266.83 477.15 267.68 C 474.19 268.90 472.78 272.25 469.72 273.29 C 468.86 275.48 467.95 277.65 467.23 279.89 C 465.97 279.88 464.73 279.87 463.49 279.86 C 463.17 277.97 462.55 276.15 461.06 274.87 C 459.28 271.34 457.12 268.00 454.10 265.41 C 452.98 264.78 453.30 263.41 453.05 262.39 C 455.67 262.05 458.32 262.00 460.97 261.98 C 461.33 261.64 462.05 260.96 462.41 260.62 C 466.39 261.29 468.99 258.06 471.88 255.95 C 476.08 252.98 478.78 248.43 482.94 245.40 C 483.00 238.57 483.03 231.73 483.33 224.90 C 483.51 223.52 484.14 222.25 484.49 220.92 C 484.19 218.93 483.09 217.13 483.04 215.10 C 482.87 203.03 483.21 190.95 482.86 178.90 C 481.39 175.27 479.59 171.65 476.52 169.10 C 476.46 167.89 476.42 166.69 476.40 165.48 Z" />
<path fill="#000000" opacity="1.00" d=" M 336.95 169.38 C 343.72 165.54 351.64 167.48 359.03 167.04 C 363.31 167.31 367.99 166.12 371.93 168.32 C 374.76 168.14 378.17 169.84 380.26 167.16 C 384.14 166.68 387.70 168.50 391.44 169.20 C 391.46 171.31 391.81 173.64 390.10 175.25 C 391.40 176.96 391.55 179.04 391.37 181.12 C 390.00 183.38 388.76 185.71 387.33 187.94 C 386.52 188.71 385.74 189.51 384.98 190.32 C 385.40 193.49 382.75 195.62 381.78 198.39 C 380.90 200.79 380.20 203.41 378.29 205.23 C 377.22 210.64 374.54 215.64 371.32 220.07 C 374.37 223.73 376.29 228.17 379.11 232.00 C 381.54 234.99 384.62 237.47 386.41 240.96 C 387.17 242.58 388.71 243.56 390.13 244.55 C 390.33 244.80 390.74 245.31 390.94 245.57 C 394.29 247.33 396.67 250.37 399.49 252.82 C 399.94 252.97 400.84 253.27 401.29 253.42 C 402.55 254.85 405.18 255.70 404.35 258.07 C 398.33 259.02 392.20 258.06 386.15 258.61 C 383.63 258.94 381.12 258.46 378.64 258.17 C 378.54 256.01 378.51 253.86 378.52 251.70 C 374.87 247.61 370.87 243.71 368.13 238.93 C 367.52 237.78 366.94 236.61 366.41 235.43 C 363.90 232.65 361.45 229.88 360.23 226.27 C 359.05 225.32 357.86 224.37 356.58 223.56 C 356.15 220.55 357.99 218.56 360.06 216.72 C 360.18 215.44 360.53 214.20 361.25 213.13 C 362.11 210.72 363.15 208.39 363.97 205.97 C 364.59 204.64 365.11 203.27 365.62 201.89 C 366.76 200.57 367.82 199.18 368.93 197.83 C 370.14 195.85 369.86 193.46 370.46 191.30 C 371.32 190.22 372.30 189.24 373.22 188.20 C 373.74 186.47 374.57 184.86 375.31 183.22 C 372.89 182.29 370.53 181.17 367.95 180.77 C 367.74 181.35 367.32 182.49 367.11 183.07 C 364.25 183.32 361.77 182.09 359.35 180.78 C 358.38 181.71 357.40 182.62 356.38 183.50 C 356.40 193.01 356.64 202.55 356.35 212.05 C 352.75 217.35 357.19 223.33 356.46 229.00 C 356.16 233.90 357.35 239.05 355.53 243.74 C 356.90 245.89 356.41 248.46 356.56 250.87 C 357.61 251.96 358.27 253.35 358.74 254.79 C 359.12 255.09 359.88 255.69 360.27 255.99 C 359.99 256.56 359.45 257.69 359.18 258.25 C 352.80 258.68 346.37 258.56 339.99 258.27 C 339.73 255.19 341.87 252.90 343.49 250.56 C 343.54 245.64 343.53 240.72 343.45 235.80 C 343.10 235.36 342.40 234.49 342.04 234.05 C 341.93 230.99 341.74 227.81 343.22 225.01 C 343.91 220.40 343.76 215.54 342.21 211.10 C 340.87 206.24 344.07 201.82 343.53 197.00 C 343.47 193.00 343.53 189.01 343.51 185.02 C 343.59 181.98 342.11 179.21 341.78 176.22 C 339.63 174.40 336.94 172.50 336.95 169.38 Z" />
<path fill="#000000" opacity="1.00" d=" M 429.00 201.61 C 429.97 201.41 430.94 201.21 431.92 201.03 C 434.61 205.17 437.35 209.33 439.26 213.91 C 440.35 216.75 437.81 219.04 436.29 221.11 C 435.66 222.53 434.97 223.92 434.32 225.33 C 433.03 227.05 431.48 228.55 429.89 229.98 C 425.55 227.03 425.90 220.83 421.59 218.02 C 421.56 216.85 421.56 215.69 421.58 214.53 C 422.74 213.02 423.68 211.35 424.72 209.75 C 425.07 208.56 425.47 207.38 426.02 206.26 C 427.34 204.94 428.23 203.30 429.00 201.61 Z" />
<path fill="#000000" opacity="1.00" d=" M 407.36 304.11 C 409.73 298.71 411.95 293.18 415.06 288.15 C 417.84 293.29 420.56 298.47 422.81 303.87 C 420.58 308.02 418.32 312.18 416.49 316.52 C 416.13 317.23 415.42 318.65 415.07 319.35 C 412.47 314.28 410.08 309.11 407.36 304.11 M 411.21 303.37 C 411.74 306.24 413.71 308.58 414.87 311.21 C 415.84 309.36 416.83 307.51 417.66 305.59 C 419.79 302.38 416.29 299.22 414.99 296.40 C 413.61 298.65 412.08 300.85 411.21 303.37 Z" />
<path fill="#000000" opacity="1.00" d=" M 491.80 288.54 C 494.08 292.25 494.55 296.68 496.25 300.64 C 497.23 302.90 497.94 305.26 498.49 307.66 C 499.67 307.08 500.85 306.48 502.02 305.87 C 502.01 307.63 502.00 309.40 502.02 311.17 C 501.06 310.66 500.11 310.16 499.15 309.67 C 499.77 311.96 500.77 314.11 502.19 316.02 C 500.33 316.00 498.48 316.00 496.63 316.00 C 496.69 313.99 496.43 311.99 495.93 310.05 C 493.28 309.94 490.64 309.95 488.00 310.04 C 487.56 312.00 487.24 313.99 487.60 316.00 C 485.66 315.96 483.73 315.98 481.80 316.01 C 483.15 313.98 484.04 311.71 484.80 309.41 C 483.78 310.04 482.75 310.68 481.74 311.32 C 481.86 309.36 481.91 307.40 481.90 305.45 C 483.08 306.06 484.27 306.68 485.48 307.27 C 486.97 300.83 490.09 294.92 491.80 288.54 M 491.95 298.91 C 491.06 301.63 490.15 304.36 488.95 306.97 C 490.81 307.06 492.66 307.21 494.52 307.33 C 493.84 304.47 492.82 301.71 491.95 298.91 Z" />
<path fill="#000000" opacity="1.00" d=" M 559.35 288.14 C 560.37 290.51 561.70 292.73 563.15 294.87 C 560.08 294.27 557.32 295.61 554.75 297.09 C 555.89 298.73 556.99 300.40 557.98 302.15 C 559.44 301.96 560.90 301.75 562.37 301.52 C 562.40 302.53 562.47 304.55 562.51 305.56 C 561.78 305.24 560.33 304.60 559.61 304.28 C 560.70 306.49 561.92 308.65 563.09 310.84 C 559.72 313.32 554.86 314.27 552.97 318.31 C 552.55 317.24 552.14 316.15 551.77 315.08 C 550.69 314.05 549.60 313.04 548.52 312.03 C 551.90 312.36 555.21 311.59 558.02 309.67 C 557.03 308.10 556.05 306.54 555.08 304.97 C 553.41 305.40 551.74 305.82 550.06 306.19 C 550.12 304.78 550.18 303.36 550.22 301.95 C 551.01 302.00 552.60 302.09 553.39 302.14 C 551.90 300.06 550.44 297.95 549.07 295.80 C 552.13 294.05 555.57 292.84 558.41 290.76 C 558.65 290.11 559.12 288.80 559.35 288.14 Z" />
<path fill="#000000" opacity="1.00" d=" M 591.79 288.55 C 594.09 292.22 594.54 296.64 596.22 300.57 C 597.22 302.92 597.95 305.36 598.64 307.81 C 599.76 307.14 600.88 306.47 602.00 305.79 C 602.00 307.58 602.00 309.37 602.03 311.17 C 601.07 310.66 600.11 310.17 599.15 309.70 C 599.77 311.97 600.78 314.11 602.19 316.02 C 600.33 316.00 598.48 316.00 596.63 316.00 C 596.69 313.99 596.43 312.00 595.94 310.06 C 593.29 309.94 590.64 309.95 587.99 310.04 C 587.56 312.00 587.24 313.99 587.60 316.00 C 585.66 315.96 583.73 315.98 581.80 316.01 C 583.15 313.99 584.03 311.73 584.79 309.44 C 583.77 310.06 582.74 310.68 581.74 311.31 C 581.86 309.36 581.91 307.40 581.90 305.45 C 583.07 306.06 584.27 306.68 585.48 307.27 C 586.97 300.83 590.08 294.93 591.79 288.55 M 588.95 306.98 C 590.81 307.06 592.66 307.20 594.53 307.31 C 593.83 304.49 592.84 301.75 591.97 298.99 C 591.03 301.68 590.13 304.38 588.95 306.98 Z" />
<path fill="#000000" opacity="1.00" d=" M 337.48 290.01 C 339.89 290.16 342.31 290.12 344.72 289.99 C 341.38 292.77 342.55 297.13 342.40 300.92 C 343.43 301.53 344.46 302.13 345.51 302.75 C 344.45 303.39 343.43 304.10 342.46 304.88 C 342.72 308.50 341.44 312.78 344.52 315.52 C 339.86 315.05 335.26 316.88 330.65 316.11 C 331.54 309.99 329.03 304.25 328.32 298.27 C 327.03 301.23 325.49 304.07 323.97 306.91 C 322.59 304.09 321.27 301.24 319.67 298.54 C 318.23 304.21 316.61 310.12 317.49 316.01 C 315.48 315.92 313.46 315.90 311.46 316.00 C 314.11 313.38 313.93 309.50 314.64 306.11 C 314.93 302.60 315.67 299.16 316.72 295.81 C 317.67 293.60 315.21 292.15 314.16 290.59 C 316.06 290.58 317.97 290.62 319.86 290.84 C 321.02 293.77 322.66 296.46 324.08 299.27 C 325.60 296.58 327.15 293.91 328.41 291.08 C 330.59 290.90 332.78 290.61 334.98 290.65 C 333.73 291.65 332.45 292.62 331.16 293.56 C 332.48 300.82 333.03 308.32 335.53 315.31 C 336.62 315.25 337.72 315.19 338.82 315.11 L 338.23 314.90 C 340.22 311.87 339.62 307.93 339.23 304.54 C 338.65 304.13 337.50 303.31 336.92 302.91 C 337.58 302.40 338.89 301.39 339.55 300.89 C 339.52 298.33 339.43 295.78 339.37 293.22 C 338.74 292.15 338.11 291.08 337.48 290.01 Z" />
<path fill="#000000" opacity="1.00" d=" M 364.95 290.02 C 367.38 290.15 369.81 290.13 372.24 289.97 C 368.88 292.75 370.04 297.17 369.92 300.98 C 370.96 301.57 372.00 302.16 373.06 302.76 C 371.98 303.69 369.52 303.98 369.95 305.93 C 369.93 308.31 369.99 310.68 370.01 313.06 C 370.69 313.85 371.39 314.66 372.09 315.46 C 369.64 315.48 367.19 315.63 364.76 315.89 C 365.50 314.92 366.24 313.95 367.00 312.99 C 367.01 310.11 367.02 307.25 366.94 304.38 C 366.03 303.94 365.12 303.49 364.22 303.05 C 365.16 302.33 366.09 301.61 367.03 300.89 C 367.02 298.31 366.92 295.72 366.87 293.14 C 366.23 292.10 365.59 291.05 364.95 290.02 Z" />
<path fill="#000000" opacity="1.00" d=" M 423.89 290.00 C 426.61 290.16 429.34 290.24 432.07 290.05 C 431.33 290.91 430.58 291.77 429.84 292.62 C 430.83 297.44 432.58 302.06 434.15 306.71 C 436.24 302.46 437.73 297.89 438.35 293.19 C 437.85 292.08 437.30 290.99 436.70 289.94 C 439.40 290.22 442.14 290.35 444.87 290.09 C 444.12 290.89 443.34 291.65 442.72 292.54 C 439.67 300.77 437.26 309.21 434.51 317.54 C 434.19 317.13 433.55 316.30 433.23 315.89 C 432.21 311.33 430.12 307.10 429.35 302.48 C 428.15 298.07 426.94 293.56 423.89 290.00 Z" />
<path fill="#000000" opacity="1.00" d=" M 449.16 289.95 C 454.01 290.08 458.98 290.76 463.73 289.45 C 463.62 291.21 463.55 292.98 463.52 294.76 C 460.49 293.18 457.02 293.94 453.75 293.57 C 453.33 295.21 453.02 296.88 452.79 298.56 C 454.50 298.71 456.22 298.87 457.95 299.02 C 458.89 298.19 459.83 297.36 460.82 296.57 C 460.82 299.39 460.74 302.20 460.28 304.99 C 459.51 303.97 458.75 302.95 457.99 301.94 C 456.29 302.00 454.60 302.10 452.91 302.23 C 453.06 303.23 453.22 304.23 453.40 305.24 C 457.33 307.39 460.67 310.58 464.91 312.17 C 463.82 313.47 462.79 314.82 461.79 316.19 C 459.02 311.42 453.30 309.90 449.41 306.31 C 449.61 304.95 449.80 303.59 450.00 302.23 C 449.44 302.29 448.33 302.43 447.77 302.49 C 447.33 302.97 446.46 303.92 446.02 304.39 C 446.01 301.99 445.93 299.59 445.72 297.21 C 447.13 298.02 448.55 298.83 450.07 299.43 C 449.77 296.26 449.50 293.10 449.16 289.95 Z" />
<path fill="#000000" opacity="1.00" d=" M 517.87 290.04 C 520.59 290.15 523.33 290.23 526.07 290.05 C 525.32 290.92 524.57 291.80 523.82 292.67 C 524.87 297.45 526.57 302.07 528.15 306.71 C 530.23 302.59 531.56 298.14 532.37 293.61 C 532.12 292.27 531.28 291.14 530.71 289.94 C 533.41 290.23 536.14 290.33 538.86 290.11 C 538.04 291.06 536.95 291.86 536.49 293.07 C 533.60 301.16 531.19 309.40 528.50 317.55 C 526.51 315.75 526.68 312.89 525.70 310.57 C 522.92 303.79 522.90 295.80 517.87 290.04 Z" />
<path fill="#000000" opacity="1.00" d=" M 539.95 290.03 C 542.37 290.15 544.81 290.13 547.24 289.97 C 543.89 292.75 545.04 297.17 544.91 300.97 C 545.96 301.57 547.01 302.17 548.06 302.77 C 547.02 303.70 544.53 303.97 544.94 305.89 C 544.93 308.28 544.99 310.67 545.01 313.06 C 545.69 313.85 546.39 314.66 547.09 315.46 C 544.63 315.47 542.19 315.63 539.76 315.89 C 540.49 314.91 541.24 313.95 542.00 312.98 C 542.01 310.12 542.02 307.26 541.97 304.40 C 541.27 304.06 539.86 303.40 539.16 303.07 C 540.12 302.35 541.07 301.62 542.04 300.90 C 542.01 298.31 541.92 295.73 541.87 293.14 C 541.22 292.10 540.58 291.06 539.95 290.03 Z" />
<path fill="#000000" opacity="1.00" d=" M 564.52 289.98 C 566.32 290.39 568.16 290.61 570.01 290.76 C 568.73 296.94 569.10 303.30 569.38 309.55 C 571.52 310.51 573.68 311.41 575.88 312.23 C 575.78 304.99 576.70 297.61 575.35 290.47 C 577.01 290.56 578.68 290.63 580.35 290.69 C 578.35 295.19 579.94 300.24 579.47 305.00 C 580.19 308.53 578.46 312.32 580.51 315.53 C 574.65 316.89 569.99 312.85 564.70 311.26 C 566.61 308.17 565.97 304.41 565.89 300.97 C 565.47 297.31 566.36 293.37 564.52 289.98 Z" />
<path fill="#000000" opacity="1.00" d=" M 346.22 290.90 C 348.15 290.76 350.09 290.70 352.02 290.81 C 351.96 292.82 352.70 294.68 353.69 296.39 C 355.49 299.62 356.37 303.34 358.77 306.22 C 358.25 301.00 359.59 295.44 357.53 290.48 C 359.42 290.71 361.32 290.88 363.22 291.01 C 362.92 291.46 362.32 292.36 362.03 292.81 C 361.87 301.86 362.46 310.91 361.85 319.94 C 359.49 317.06 358.39 313.43 356.69 310.17 C 355.10 307.27 353.55 304.36 352.10 301.39 C 352.23 306.41 351.04 311.73 353.16 316.48 C 351.20 316.28 349.23 316.31 347.27 316.49 C 349.24 312.57 348.31 308.15 348.50 303.96 C 348.32 299.52 349.52 294.53 346.22 290.90 Z" />
<path fill="#000000" opacity="1.00" d=" M 388.70 290.93 C 390.64 290.77 392.58 290.70 394.53 290.80 C 394.37 292.87 395.32 294.74 396.25 296.53 C 397.94 299.70 399.03 303.15 400.94 306.21 C 401.19 301.01 401.82 295.45 400.06 290.48 C 401.83 290.69 403.62 290.86 405.42 290.98 C 403.40 297.38 405.07 304.28 404.63 310.89 C 404.25 313.88 405.24 317.11 403.90 319.92 C 400.86 313.71 397.89 307.47 394.50 301.44 C 394.82 306.43 393.49 311.72 395.67 316.44 C 393.72 316.31 391.77 316.30 389.83 316.47 C 391.71 312.55 390.81 308.14 391.00 303.97 C 390.82 299.54 392.01 294.52 388.70 290.93 Z" />
<path fill="#000000" opacity="1.00" d=" M 466.32 290.56 C 468.39 290.54 470.47 290.51 472.55 290.49 C 471.79 292.23 470.78 293.97 470.95 295.96 C 470.93 301.32 471.03 306.68 470.99 312.04 C 474.34 312.22 478.20 313.28 480.67 310.25 C 480.52 312.10 480.42 313.96 480.31 315.81 C 475.46 315.23 470.58 315.60 465.73 315.48 C 466.31 314.55 466.91 313.62 467.51 312.70 C 467.52 305.36 468.67 297.63 466.32 290.56 Z" />
<path fill="#000000" opacity="1.00" d=" M 603.85 290.53 C 605.92 290.53 607.98 290.51 610.06 290.50 C 607.81 293.95 608.51 298.11 608.48 301.99 C 608.51 305.33 608.48 308.67 608.48 312.02 C 611.83 312.26 615.77 313.31 618.06 310.08 C 618.01 311.97 617.95 313.85 617.95 315.74 C 613.11 315.33 608.25 315.53 603.40 315.52 C 605.74 312.21 605.14 307.98 605.29 304.15 C 604.92 299.60 605.62 294.85 603.85 290.53 Z" />
<path fill="#000000" opacity="1.00" d=" M 570.06 302.10 C 570.98 300.85 571.91 299.60 572.85 298.37 C 573.61 299.52 574.40 300.66 575.22 301.79 C 574.51 303.11 573.78 304.43 573.03 305.73 C 572.03 304.52 571.05 303.30 570.06 302.10 Z" />
<path fill="#000000" opacity="1.00" d=" M 412.40 303.91 C 413.29 302.48 414.18 301.04 415.09 299.63 C 415.95 300.98 416.79 302.36 417.60 303.76 C 416.69 305.09 415.80 306.42 414.89 307.75 C 414.04 306.47 413.22 305.19 412.40 303.91 Z" />
<path fill="#000000" opacity="1.00" d=" M 453.37 332.14 C 458.33 330.03 463.77 331.47 468.92 331.91 C 470.81 333.84 473.60 334.15 476.10 334.81 C 488.21 337.55 500.68 335.82 512.96 336.02 C 518.64 336.28 524.28 335.26 529.95 335.54 C 544.30 336.04 558.64 335.47 572.99 335.54 C 582.24 335.82 591.37 333.97 600.48 332.62 C 603.50 331.91 606.62 332.11 609.68 332.44 C 610.02 335.37 608.84 338.76 610.88 341.24 C 612.60 341.67 614.39 341.83 616.16 342.09 C 615.63 342.12 614.57 342.19 614.04 342.22 C 614.20 342.69 614.53 343.64 614.69 344.12 C 610.13 344.66 605.58 345.72 600.97 345.17 C 599.08 344.45 597.05 344.38 595.08 344.11 C 588.22 342.30 581.04 342.31 573.99 342.18 C 550.63 342.63 527.28 341.67 503.92 342.05 C 496.96 342.34 489.99 342.50 483.02 342.52 C 480.25 342.65 477.16 342.40 474.86 344.22 C 468.11 345.57 460.51 348.61 453.92 345.43 C 448.00 344.09 442.02 343.05 435.98 342.48 C 413.96 342.19 391.96 343.15 369.94 342.90 C 362.96 343.64 355.98 342.29 349.01 342.93 C 343.72 343.83 338.30 343.08 333.05 344.26 C 323.42 345.92 313.58 346.31 303.87 345.02 C 305.51 344.89 307.13 344.81 308.78 344.75 C 308.75 344.03 308.70 342.58 308.67 341.86 C 310.75 341.44 312.76 340.79 314.73 340.00 C 312.91 339.65 311.08 339.35 309.25 339.10 C 309.38 338.70 309.65 337.90 309.78 337.50 C 309.52 337.48 308.99 337.42 308.73 337.39 C 308.71 336.12 308.68 334.86 308.66 333.61 C 323.55 331.81 338.09 337.53 352.97 336.72 C 359.60 336.42 366.25 337.24 372.87 336.59 C 384.58 335.41 396.31 337.18 408.04 336.50 C 419.34 335.73 430.80 337.67 441.98 335.41 C 445.64 333.88 449.61 333.38 453.37 332.14 Z" />
</g>
</svg>
