<?xml version="1.0" encoding="UTF-8" ?>
<!DOCTYPE svg PUBLIC "-//W3C//DTD SVG 1.1//EN" "http://www.w3.org/Graphics/SVG/1.1/DTD/svg11.dtd">
<svg width="960pt" height="540pt" viewBox="0 0 960 540" version="1.1" xmlns="http://www.w3.org/2000/svg">
<g id="#ffffffff">
<path fill="#ffffff" opacity="1.00" d=" M 491.94 299.02 C 492.85 301.77 493.90 304.49 494.47 307.35 C 492.62 307.21 490.77 307.06 488.92 306.97 C 490.14 304.40 491.04 301.71 491.94 299.02 Z" />
<path fill="#ffffff" opacity="1.00" d=" M 588.92 306.98 C 590.13 304.41 591.03 301.72 591.96 299.04 C 592.85 301.77 593.85 304.48 594.52 307.29 C 592.65 307.20 590.78 307.06 588.92 306.98 Z" />
</g>
<g id="#000000ff">
<path fill="#000000" opacity="1.00" d=" M 440.86 140.10 C 446.17 138.45 451.59 137.18 456.92 135.61 C 461.01 135.20 465.09 136.02 469.13 136.58 C 470.83 138.35 473.40 138.48 475.62 139.17 C 487.89 142.01 500.57 140.32 513.03 140.52 C 518.70 140.76 524.34 139.84 530.00 140.13 C 545.32 140.65 560.64 139.88 575.97 140.05 C 587.28 140.08 598.29 136.33 609.59 136.68 C 609.47 139.24 609.47 141.81 609.61 144.37 C 610.88 145.69 611.61 147.35 612.10 149.10 C 605.98 150.27 599.78 149.71 593.76 148.28 C 581.34 145.76 568.59 146.96 556.01 146.77 C 529.97 146.66 503.89 145.92 477.88 147.38 C 470.16 150.21 461.22 153.07 453.17 149.88 C 447.59 148.36 441.83 147.69 436.11 147.01 C 425.07 146.95 414.03 146.78 403.00 147.25 C 389.66 147.58 376.30 147.15 362.96 147.58 C 357.94 147.54 352.90 146.80 347.90 147.55 C 343.60 148.29 339.18 147.62 334.90 148.49 C 326.16 150.05 317.28 150.66 308.42 150.19 C 308.49 149.32 308.64 147.58 308.72 146.71 C 309.27 146.48 310.36 146.02 310.90 145.79 C 311.74 145.62 313.42 145.27 314.26 145.10 C 313.78 144.84 312.83 144.33 312.35 144.07 C 311.92 143.78 311.06 143.20 310.63 142.91 C 309.99 141.45 309.42 139.96 308.85 138.48 C 311.89 138.01 314.96 137.65 318.04 137.80 C 330.10 138.45 341.89 141.96 354.02 141.23 C 359.67 140.90 365.33 141.81 370.97 141.26 C 378.94 140.39 386.99 140.52 394.98 141.14 C 403.33 141.56 411.65 140.52 420.00 140.82 C 426.95 141.12 433.99 141.37 440.86 140.10 Z" />
<path fill="#000000" opacity="1.00" d=" M 428.52 161.70 C 429.36 161.14 430.19 160.59 431.04 160.04 C 432.04 160.71 433.07 161.37 434.12 161.99 C 435.50 164.09 436.55 166.41 436.25 169.00 C 436.01 171.27 437.85 172.88 438.99 174.62 C 439.65 175.43 440.33 176.24 441.03 177.04 C 441.16 178.35 441.31 179.66 441.48 180.97 C 443.02 182.35 444.01 184.19 444.93 186.01 C 446.18 187.58 445.77 189.93 447.50 191.16 C 447.89 193.27 448.42 195.37 449.73 197.12 C 451.30 198.43 451.06 200.63 451.52 202.44 C 452.94 203.96 453.14 206.12 454.07 207.93 C 455.40 210.14 455.61 213.09 457.77 214.73 C 457.74 215.11 457.69 215.87 457.66 216.25 C 456.52 217.87 455.48 219.56 454.29 221.15 C 452.92 222.75 453.01 225.12 451.45 226.59 C 451.09 228.57 450.90 230.57 450.65 232.57 C 450.11 232.80 449.01 233.26 448.46 233.49 C 447.77 234.20 447.07 234.90 446.35 235.57 C 446.28 238.24 446.17 240.92 445.53 243.53 C 445.05 243.72 444.09 244.10 443.61 244.29 C 441.40 247.59 439.73 251.41 439.33 255.38 C 438.35 256.46 437.36 257.53 436.37 258.61 C 436.51 260.11 436.63 261.63 436.72 263.15 C 435.18 263.79 433.94 264.85 432.96 266.19 C 432.96 267.75 432.92 269.32 432.86 270.89 C 431.31 270.91 429.75 270.90 428.21 270.85 C 428.11 269.23 428.03 267.62 427.95 266.02 C 426.17 262.26 423.88 258.80 421.73 255.26 C 421.67 253.31 420.90 251.58 419.62 250.15 C 417.65 247.88 418.46 244.50 416.71 242.10 C 415.44 240.19 414.90 237.89 413.49 236.08 C 413.20 233.98 412.55 231.96 411.57 230.08 C 408.83 227.02 407.15 223.25 405.11 219.75 C 404.71 215.46 404.48 210.42 408.43 207.62 C 408.41 207.16 408.37 206.22 408.35 205.75 C 409.70 204.12 410.08 201.95 411.43 200.32 C 411.51 199.14 411.59 197.95 411.66 196.77 C 412.04 196.41 412.79 195.70 413.17 195.34 C 413.20 194.55 413.27 192.96 413.30 192.17 C 415.09 190.49 416.60 188.49 417.00 186.01 C 419.11 182.15 420.39 177.87 421.85 173.73 C 422.83 172.12 423.72 170.47 424.77 168.91 C 424.89 168.19 425.13 166.74 425.25 166.02 C 426.50 164.70 427.62 163.27 428.52 161.70 M 429.60 190.14 C 429.75 192.46 429.08 194.72 427.43 196.41 C 424.12 199.94 422.87 204.71 420.98 209.04 C 419.86 210.87 418.97 212.83 418.03 214.76 C 419.19 215.79 419.58 217.21 419.75 218.70 C 420.85 220.26 421.47 222.04 421.30 223.96 C 423.55 226.73 426.35 229.37 426.80 233.11 C 428.10 235.43 427.90 238.55 430.38 240.09 C 431.18 237.31 433.25 234.96 433.23 231.96 C 434.30 231.14 435.39 230.33 436.50 229.56 C 435.84 224.62 438.72 220.27 441.41 216.40 C 441.50 214.98 441.57 213.56 441.66 212.15 C 439.97 211.63 439.76 209.86 439.21 208.45 C 438.07 206.10 437.63 203.48 436.39 201.18 C 436.11 200.92 435.55 200.40 435.27 200.14 C 435.07 198.69 434.70 197.25 433.48 196.32 C 432.93 193.84 431.25 191.96 429.60 190.14 Z" />
<path fill="#000000" opacity="1.00" d=" M 534.81 160.98 C 536.15 161.24 537.51 161.51 538.87 161.80 C 538.93 162.56 539.04 164.09 539.10 164.85 C 541.38 165.69 540.63 168.19 540.76 170.06 C 541.11 170.49 541.81 171.35 542.17 171.77 C 542.35 173.04 542.78 174.22 543.84 175.02 C 544.23 177.61 543.20 180.77 545.30 182.82 C 546.24 186.43 548.14 189.79 547.46 193.66 C 547.80 193.91 548.46 194.42 548.79 194.68 C 548.88 196.62 549.19 198.55 550.31 200.18 C 551.08 202.62 550.97 205.74 553.70 207.01 C 553.92 208.96 554.01 210.92 554.17 212.88 C 555.57 214.72 556.54 216.86 557.33 219.02 C 557.62 222.16 556.95 225.54 558.87 228.30 C 561.98 227.23 565.43 225.92 566.69 222.55 C 567.62 222.58 569.50 222.64 570.43 222.67 C 570.47 229.15 571.14 235.83 570.22 242.20 C 566.31 243.84 565.46 237.85 561.89 238.59 C 562.22 240.24 562.58 241.95 563.76 243.23 C 563.51 247.30 565.77 250.79 568.25 253.80 C 569.22 255.20 570.27 256.55 571.45 257.80 C 571.47 258.28 571.50 259.26 571.52 259.74 C 564.47 260.39 557.31 260.34 550.26 259.78 C 550.59 257.54 552.02 255.39 551.33 253.09 C 550.77 249.74 551.89 245.91 549.69 243.00 C 549.45 241.62 549.22 240.24 549.00 238.86 C 540.73 238.22 532.34 238.27 524.07 238.83 C 524.08 241.29 524.52 244.11 522.62 246.05 C 522.51 247.41 522.44 248.77 522.38 250.14 C 522.04 250.57 521.35 251.43 521.00 251.86 C 522.87 254.03 524.38 256.66 523.41 259.60 C 516.68 260.56 509.82 260.01 503.04 259.96 C 503.01 258.47 502.99 256.99 503.00 255.51 C 505.29 253.13 508.19 251.04 508.78 247.56 C 506.90 245.44 509.69 243.16 509.94 240.89 C 510.58 239.57 511.16 238.23 511.67 236.87 C 510.41 237.81 509.25 238.89 508.17 240.04 C 506.36 242.04 503.84 242.59 501.31 241.69 C 501.29 239.95 501.30 238.22 501.37 236.49 C 501.78 236.13 502.60 235.40 503.00 235.04 C 502.93 232.13 502.94 229.22 502.98 226.32 C 500.43 225.85 501.48 223.41 501.61 221.63 C 502.72 221.39 503.85 221.17 504.99 220.96 C 506.64 222.49 508.51 223.75 510.42 224.94 C 511.34 226.59 513.38 225.97 514.90 226.24 C 516.91 223.43 514.73 219.14 517.45 216.91 C 517.63 213.39 518.50 210.01 519.82 206.75 C 520.77 204.78 521.54 202.71 522.70 200.84 C 522.72 200.11 522.77 198.65 522.79 197.92 C 525.02 195.05 525.73 191.44 526.43 187.97 C 527.65 184.96 529.59 182.19 529.82 178.86 C 531.45 176.82 530.30 173.62 532.44 171.98 C 532.58 170.25 532.66 168.52 532.79 166.79 C 533.87 165.01 534.54 163.05 534.81 160.98 M 536.18 200.47 C 535.99 202.15 535.88 203.83 535.78 205.52 C 535.35 205.79 534.50 206.33 534.07 206.60 C 534.32 209.60 533.00 212.31 532.14 215.09 C 530.80 216.90 530.91 219.19 530.69 221.33 C 529.43 222.64 528.26 224.05 527.02 225.38 C 530.17 227.61 534.96 224.55 537.69 227.47 C 540.09 226.99 542.95 228.60 544.36 225.72 C 543.96 225.34 543.17 224.58 542.77 224.20 C 542.70 222.50 542.62 220.80 542.52 219.10 C 540.41 215.63 540.55 211.10 537.76 207.95 C 537.55 205.43 538.30 202.40 536.18 200.47 Z" />
<path fill="#000000" opacity="1.00" d=" M 476.40 165.50 C 478.22 165.11 480.07 164.57 481.96 164.87 C 488.13 165.43 494.34 164.64 500.49 165.46 C 500.56 167.09 501.74 169.18 500.03 170.37 C 499.23 171.13 498.95 172.10 499.18 173.29 C 498.75 173.54 497.90 174.04 497.48 174.29 C 497.52 176.22 497.52 178.16 497.46 180.10 C 496.53 181.18 495.80 182.42 496.01 183.91 C 495.95 204.95 496.04 225.98 495.97 247.02 C 495.87 248.66 496.23 250.57 494.80 251.79 C 492.20 254.51 489.24 256.89 486.15 259.04 C 484.85 260.00 484.41 261.57 484.14 263.09 C 482.49 264.48 480.78 265.79 479.12 267.16 C 474.82 267.16 473.50 272.18 469.70 273.25 C 468.91 275.46 467.98 277.63 467.25 279.86 C 465.98 279.87 464.71 279.87 463.44 279.86 C 463.10 278.01 462.65 276.13 461.14 274.88 C 459.22 271.71 457.63 268.23 454.56 265.95 C 453.17 265.20 453.17 263.69 453.13 262.33 C 455.73 262.05 458.34 262.01 460.95 261.98 C 461.33 261.63 462.08 260.93 462.45 260.58 C 466.42 261.29 469.05 258.02 471.90 255.90 C 476.18 253.05 478.71 248.37 482.93 245.43 C 483.01 238.59 483.02 231.76 483.33 224.94 C 483.47 223.56 484.13 222.31 484.48 220.98 C 484.26 218.94 483.05 217.13 483.03 215.06 C 482.87 203.01 483.23 190.94 482.84 178.90 C 481.36 175.30 479.67 171.61 476.52 169.16 C 476.46 167.94 476.42 166.71 476.40 165.50 Z" />
<path fill="#000000" opacity="1.00" d=" M 337.30 169.33 C 339.71 168.16 342.21 166.91 344.97 167.02 C 350.99 166.96 357.01 167.12 363.02 167.01 C 366.01 167.07 369.24 166.63 371.90 168.33 C 374.69 168.11 378.12 169.87 380.16 167.20 C 382.39 167.02 384.71 166.97 386.68 168.21 C 388.24 168.47 389.81 168.74 391.38 169.01 C 391.29 171.10 392.16 173.85 389.96 175.15 C 391.54 176.78 391.49 179.05 391.34 181.17 C 389.91 183.39 388.83 185.81 387.29 187.97 C 386.47 188.73 385.69 189.54 384.95 190.38 C 385.51 194.29 381.39 196.54 381.28 200.33 C 380.44 202.06 379.54 203.76 378.41 205.31 C 376.93 210.61 374.72 215.81 371.21 220.09 C 375.47 224.89 377.49 231.40 382.46 235.67 C 385.44 238.25 386.36 242.53 389.93 244.51 C 393.38 246.99 396.43 249.92 399.53 252.83 C 399.97 252.98 400.84 253.28 401.27 253.43 C 402.57 254.84 405.24 255.66 404.32 258.05 C 398.33 259.05 392.21 258.04 386.18 258.61 C 383.65 258.96 381.13 258.47 378.63 258.17 C 378.55 255.99 378.52 253.82 378.52 251.66 C 374.90 247.59 370.76 243.77 368.22 238.91 C 367.55 237.78 366.93 236.64 366.35 235.48 C 365.42 234.24 364.52 232.97 363.63 231.70 C 363.26 231.58 362.52 231.33 362.15 231.21 C 361.80 229.45 361.18 227.78 360.20 226.28 C 359.09 225.31 358.00 224.28 356.62 223.70 C 356.09 220.58 357.97 218.53 360.15 216.66 C 360.10 215.39 360.48 214.18 361.27 213.18 C 362.10 210.74 363.21 208.41 363.93 205.93 C 364.65 204.60 365.14 203.17 365.62 201.74 C 366.91 200.59 367.90 199.16 368.86 197.73 C 370.39 195.77 369.70 193.12 370.62 190.96 C 371.48 190.01 372.41 189.13 373.32 188.23 C 373.59 186.39 374.54 184.81 375.31 183.15 C 372.84 182.37 370.53 181.07 367.91 180.85 C 367.72 181.39 367.33 182.46 367.13 182.99 C 364.15 183.52 361.83 181.83 359.21 180.87 C 358.30 181.77 357.36 182.64 356.39 183.47 C 356.40 193.00 356.61 202.56 356.37 212.09 C 352.69 217.35 357.24 223.37 356.47 229.05 C 356.06 233.95 357.54 239.26 355.38 243.86 C 357.23 245.77 356.25 248.63 356.53 251.00 C 357.79 251.87 358.25 253.36 358.67 254.76 C 359.05 255.04 359.81 255.60 360.19 255.88 C 359.94 256.48 359.45 257.66 359.21 258.25 C 352.82 258.68 346.37 258.57 339.97 258.26 C 339.78 255.23 341.76 252.90 343.48 250.66 C 343.53 246.42 343.54 242.19 343.50 237.95 C 343.64 236.45 342.95 235.13 342.13 233.94 C 342.03 230.97 341.40 227.65 343.43 225.14 C 343.48 221.80 343.73 218.42 343.31 215.09 C 342.66 212.74 341.80 210.40 341.96 207.92 C 341.71 204.81 343.68 202.08 343.52 198.99 C 343.51 194.35 343.50 189.72 343.52 185.08 C 343.64 182.00 342.05 179.22 341.81 176.18 C 339.80 174.43 336.35 172.46 337.30 169.33 Z" />
<path fill="#000000" opacity="1.00" d=" M 428.94 201.63 C 429.92 201.42 430.92 201.23 431.92 201.05 C 434.62 205.16 437.34 209.32 439.25 213.88 C 440.30 216.71 437.90 219.08 436.27 221.08 C 435.67 222.54 434.97 223.94 434.28 225.36 C 433.03 227.09 431.50 228.57 429.88 229.96 C 427.31 227.60 425.31 224.52 424.63 221.07 C 423.78 219.92 422.77 218.92 421.60 218.12 C 421.56 216.88 421.55 215.64 421.57 214.41 C 423.83 212.15 424.73 209.03 426.12 206.24 C 427.42 204.94 428.20 203.28 428.94 201.63 Z" />
<path fill="#000000" opacity="1.00" d=" M 407.39 304.11 C 409.66 298.72 411.97 293.28 414.96 288.24 C 417.99 293.21 420.50 298.53 422.82 303.89 C 420.58 308.04 418.26 312.18 416.52 316.56 C 415.96 317.48 415.42 318.41 414.87 319.34 C 412.63 314.14 409.96 309.13 407.39 304.11 M 411.24 303.37 C 411.66 306.19 413.72 308.42 414.68 311.07 C 416.29 308.75 417.63 306.19 418.44 303.48 C 417.98 300.86 416.25 298.67 414.99 296.39 C 413.66 298.67 412.01 300.82 411.24 303.37 Z" />
<path fill="#000000" opacity="1.00" d=" M 491.64 288.72 C 493.40 290.59 493.79 293.24 494.56 295.60 C 495.53 299.71 497.83 303.39 498.39 307.62 C 499.64 307.09 500.86 306.49 502.06 305.84 C 502.00 307.62 502.00 309.40 502.05 311.19 C 501.10 310.68 500.15 310.19 499.19 309.72 C 499.75 312.02 500.78 314.15 502.23 316.02 C 500.34 316.00 498.46 316.00 496.58 316.01 C 496.72 313.98 496.46 311.97 495.88 310.03 C 493.27 309.95 490.65 309.96 488.05 310.03 C 487.52 311.98 487.21 313.99 487.65 316.00 C 485.68 315.96 483.73 315.97 481.77 316.01 C 483.17 314.01 484.06 311.74 484.78 309.42 C 483.75 310.05 482.71 310.67 481.69 311.30 C 481.91 309.35 481.94 307.38 481.85 305.43 C 483.06 306.05 484.30 306.67 485.55 307.24 C 486.84 300.83 490.18 295.08 491.64 288.72 M 491.94 299.02 C 491.04 301.71 490.14 304.40 488.92 306.97 C 490.77 307.06 492.62 307.21 494.47 307.35 C 493.90 304.49 492.85 301.77 491.94 299.02 Z" />
<path fill="#000000" opacity="1.00" d=" M 559.29 288.13 C 560.36 290.51 561.70 292.75 563.17 294.91 C 560.11 294.25 557.32 295.60 554.75 297.07 C 555.89 298.71 557.00 300.39 557.96 302.15 C 559.42 301.96 560.89 301.74 562.37 301.48 C 562.40 302.50 562.48 304.56 562.51 305.58 C 561.80 305.25 560.38 304.60 559.67 304.27 C 560.67 306.54 561.94 308.66 563.11 310.84 C 559.78 313.35 554.77 314.18 553.07 318.32 C 552.59 317.27 552.15 316.20 551.77 315.12 C 550.72 314.05 549.62 313.02 548.51 312.02 C 551.89 312.35 555.24 311.63 558.02 309.64 C 557.02 308.08 556.04 306.52 555.07 304.95 C 553.41 305.42 551.74 305.84 550.05 306.16 C 550.12 304.76 550.17 303.35 550.21 301.95 C 551.00 302.00 552.60 302.09 553.39 302.14 C 551.89 300.06 550.44 297.94 549.06 295.78 C 551.71 294.50 554.29 293.07 556.95 291.79 C 558.64 291.35 558.84 289.52 559.29 288.13 Z" />
<path fill="#000000" opacity="1.00" d=" M 591.64 288.72 C 593.42 290.56 593.77 293.21 594.55 295.56 C 595.51 299.68 597.84 303.36 598.37 307.61 C 599.61 307.08 600.84 306.49 602.06 305.87 C 602.00 307.64 602.00 309.42 602.05 311.19 C 601.10 310.67 600.15 310.18 599.19 309.72 C 599.74 312.02 600.78 314.15 602.23 316.02 C 600.34 316.00 598.46 316.00 596.58 316.01 C 596.71 313.98 596.46 311.98 595.90 310.04 C 593.28 309.95 590.66 309.96 588.04 310.03 C 587.54 311.98 587.17 313.99 587.66 316.00 C 585.68 315.96 583.73 315.97 581.77 316.01 C 583.23 313.98 584.05 311.63 584.83 309.28 C 583.79 309.97 582.74 310.66 581.71 311.34 C 581.89 309.37 581.94 307.39 581.85 305.42 C 583.06 306.04 584.29 306.67 585.54 307.25 C 586.85 300.84 590.16 295.09 591.64 288.72 M 588.92 306.98 C 590.78 307.06 592.65 307.20 594.52 307.29 C 593.85 304.48 592.85 301.77 591.96 299.04 C 591.03 301.72 590.13 304.41 588.92 306.98 Z" />
<path fill="#000000" opacity="1.00" d=" M 337.48 289.99 C 339.90 290.19 342.33 290.14 344.75 289.97 C 341.37 292.71 342.56 297.11 342.38 300.87 C 343.43 301.52 344.49 302.16 345.56 302.80 C 344.48 303.72 342.07 304.05 342.44 305.93 C 342.61 309.27 341.63 313.14 344.62 315.54 C 339.82 315.09 335.13 316.78 330.35 316.18 C 331.97 310.09 328.81 304.24 328.32 298.24 C 327.05 301.22 325.46 304.05 324.01 306.94 C 322.59 304.15 321.34 301.27 319.66 298.62 C 318.24 304.26 316.53 310.19 317.56 316.04 C 315.50 315.90 313.44 315.85 311.39 316.04 C 314.32 313.21 313.96 308.92 314.77 305.24 C 314.88 301.99 315.84 298.88 316.75 295.79 C 317.56 293.57 315.31 292.11 314.16 290.62 C 316.09 290.57 318.05 290.55 319.96 290.95 C 320.97 293.74 322.57 296.26 323.84 298.93 C 324.14 298.69 324.74 298.22 325.04 297.98 C 326.00 295.61 327.38 293.44 328.40 291.09 C 330.57 290.90 332.74 290.53 334.94 290.73 C 333.71 291.70 332.45 292.62 331.17 293.51 C 332.44 300.79 333.06 308.29 335.51 315.31 C 336.60 315.25 337.71 315.19 338.81 315.11 L 338.22 314.74 C 340.27 311.82 339.66 307.78 339.17 304.49 C 338.60 304.10 337.46 303.32 336.89 302.92 C 337.56 302.41 338.90 301.37 339.57 300.85 C 339.51 298.32 339.42 295.80 339.38 293.28 C 338.75 292.18 338.11 291.08 337.48 289.99 Z" />
<path fill="#000000" opacity="1.00" d=" M 364.94 289.99 C 367.38 290.17 369.83 290.15 372.27 289.95 C 368.87 292.70 370.04 297.18 369.92 300.97 C 370.97 301.58 372.03 302.18 373.09 302.79 C 368.09 303.93 370.50 309.47 370.01 313.06 C 370.69 313.86 371.39 314.67 372.10 315.47 C 369.65 315.47 367.20 315.63 364.78 315.91 C 365.51 314.93 366.25 313.95 366.99 312.99 C 367.01 310.12 367.02 307.26 366.95 304.40 C 366.04 303.94 365.13 303.49 364.22 303.04 C 365.16 302.32 366.10 301.60 367.04 300.88 C 367.02 298.30 366.91 295.72 366.87 293.14 C 366.22 292.08 365.58 291.03 364.94 289.99 Z" />
<path fill="#000000" opacity="1.00" d=" M 423.85 290.04 C 426.59 290.17 429.33 290.24 432.08 290.05 C 431.35 290.90 430.62 291.73 429.88 292.56 C 430.78 297.39 432.52 302.04 434.20 306.65 C 436.25 302.42 437.71 297.89 438.36 293.24 C 437.85 292.09 437.28 290.97 436.65 289.89 C 439.38 290.28 442.17 290.37 444.92 290.06 C 444.06 291.04 442.91 291.87 442.45 293.13 C 439.65 301.18 437.12 309.31 434.60 317.45 C 432.49 316.04 432.78 313.30 431.93 311.19 C 428.92 304.25 429.06 295.96 423.85 290.04 Z" />
<path fill="#000000" opacity="1.00" d=" M 449.14 289.94 C 453.99 290.05 459.00 290.82 463.73 289.40 C 463.61 291.21 463.55 293.02 463.53 294.84 C 460.57 293.01 457.06 294.13 453.84 293.49 C 453.31 295.14 453.01 296.85 452.83 298.58 C 454.54 298.72 456.25 298.87 457.97 299.00 C 458.89 298.18 459.84 297.37 460.83 296.62 C 460.80 299.42 460.80 302.23 460.24 304.99 C 459.48 303.97 458.74 302.95 458.00 301.94 C 456.31 302.00 454.62 302.09 452.93 302.20 C 453.08 303.23 453.23 304.25 453.41 305.28 C 457.42 307.33 460.67 310.73 465.01 312.14 C 463.83 313.43 462.74 314.80 461.68 316.19 C 459.08 311.28 453.16 309.97 449.39 306.25 C 449.60 304.90 449.80 303.56 450.00 302.22 C 449.45 302.28 448.36 302.41 447.81 302.48 C 447.36 302.95 446.44 303.90 445.99 304.38 C 446.04 301.98 445.97 299.59 445.68 297.21 C 447.09 298.02 448.48 298.91 450.08 299.32 C 449.71 296.20 449.56 293.05 449.14 289.94 Z" />
<path fill="#000000" opacity="1.00" d=" M 517.84 290.06 C 520.60 290.15 523.38 290.17 526.15 290.23 C 525.57 290.80 524.42 291.95 523.85 292.53 C 524.80 297.36 526.50 302.03 528.20 306.65 C 530.24 302.42 531.74 297.88 532.35 293.21 C 531.84 292.07 531.27 290.96 530.65 289.89 C 533.38 290.29 536.16 290.36 538.92 290.05 C 538.06 291.04 536.91 291.88 536.45 293.14 C 533.65 301.19 531.12 309.32 528.59 317.46 C 526.35 315.84 526.76 312.81 525.70 310.52 C 522.86 303.78 522.95 295.75 517.84 290.06 Z" />
<path fill="#000000" opacity="1.00" d=" M 539.94 289.98 C 542.38 290.18 544.84 290.16 547.29 289.95 C 543.88 292.67 545.03 297.16 544.92 300.94 C 545.96 301.57 547.01 302.21 548.07 302.85 C 543.06 303.91 545.52 309.51 545.01 313.05 C 545.69 313.86 546.39 314.67 547.10 315.47 C 544.65 315.47 542.20 315.63 539.78 315.91 C 540.50 314.93 541.24 313.95 542.00 312.98 C 542.00 310.13 542.03 307.27 541.95 304.42 C 540.97 303.92 540.04 303.43 539.09 302.90 C 540.08 302.25 541.07 301.60 542.06 300.95 C 542.01 298.33 541.91 295.73 541.87 293.12 C 541.22 292.07 540.58 291.02 539.94 289.98 Z" />
<path fill="#000000" opacity="1.00" d=" M 564.46 289.92 C 566.29 290.42 568.18 290.65 570.09 290.77 C 568.66 296.93 569.08 303.34 569.44 309.61 C 571.56 310.53 573.70 311.45 575.91 312.19 C 575.70 304.97 576.83 297.56 575.26 290.48 C 576.96 290.56 578.68 290.63 580.40 290.70 C 579.86 292.25 578.88 293.81 579.36 295.53 C 579.74 299.39 579.16 303.25 579.58 307.11 C 580.07 309.96 578.48 313.00 580.58 315.50 C 574.64 316.98 569.97 312.74 564.59 311.27 C 566.72 308.26 565.93 304.41 565.88 300.97 C 565.44 297.28 566.43 293.30 564.46 289.92 Z" />
<path fill="#000000" opacity="1.00" d=" M 346.18 291.27 C 348.11 290.71 350.10 290.55 352.10 290.87 C 351.76 294.24 354.24 296.81 355.34 299.79 C 356.16 302.07 357.13 304.35 358.89 306.09 C 358.05 300.92 359.79 295.30 357.43 290.46 C 359.34 290.75 361.28 290.92 363.23 290.97 C 362.92 291.44 362.31 292.39 362.01 292.86 C 361.89 301.86 362.43 310.87 361.89 319.86 C 360.14 318.11 359.33 315.75 358.29 313.58 C 356.47 309.36 354.02 305.44 351.99 301.32 C 352.39 306.35 350.90 311.77 353.24 316.48 C 351.24 316.25 349.22 316.29 347.23 316.51 C 349.37 312.30 348.24 307.51 348.50 302.99 C 348.27 299.01 349.60 294.29 346.18 291.27 Z" />
<path fill="#000000" opacity="1.00" d=" M 388.70 290.95 C 390.66 290.75 392.65 290.67 394.63 290.86 C 394.50 292.49 394.85 294.11 395.73 295.51 C 397.73 298.94 398.78 302.84 400.96 306.19 C 401.08 301.00 401.97 295.35 399.95 290.45 C 401.79 290.71 403.64 290.88 405.50 290.94 C 403.39 296.82 404.98 303.26 404.67 309.37 C 404.31 312.89 405.06 316.52 404.07 319.96 C 400.74 313.82 397.93 307.41 394.46 301.33 C 394.92 306.35 393.38 311.72 395.73 316.42 C 393.73 316.30 391.74 316.29 389.76 316.46 C 390.48 314.75 391.17 312.98 391.02 311.09 C 390.96 306.00 391.08 300.90 390.96 295.82 C 390.99 293.91 389.59 292.48 388.70 290.95 Z" />
<path fill="#000000" opacity="1.00" d=" M 466.29 290.55 C 468.38 290.54 470.48 290.52 472.59 290.50 C 471.77 292.23 470.77 293.99 470.95 295.99 C 470.93 301.34 471.03 306.68 470.99 312.03 C 474.30 312.20 478.31 313.36 480.65 310.16 C 480.50 312.05 480.40 313.95 480.31 315.86 C 475.47 315.17 470.58 315.62 465.73 315.49 C 466.32 314.55 466.92 313.61 467.53 312.68 C 467.47 309.18 468.00 305.69 467.75 302.18 C 467.32 298.29 468.15 294.18 466.29 290.55 Z" />
<path fill="#000000" opacity="1.00" d=" M 603.83 290.52 C 605.92 290.54 608.00 290.52 610.10 290.50 C 609.51 291.96 608.48 293.34 608.49 294.99 C 608.34 300.64 608.62 306.29 608.44 311.95 C 611.78 312.31 615.82 313.33 618.06 310.04 C 617.99 311.94 617.94 313.84 617.94 315.75 C 613.03 315.29 608.10 315.61 603.19 315.44 C 603.64 314.78 604.54 313.48 604.99 312.83 C 605.09 305.43 606.11 297.67 603.83 290.52 Z" />
<path fill="#000000" opacity="1.00" d=" M 570.06 302.10 C 570.99 300.83 571.94 299.57 572.90 298.32 C 573.62 299.47 574.39 300.60 575.20 301.70 C 574.55 303.08 573.81 304.42 572.99 305.70 C 572.01 304.50 571.03 303.29 570.06 302.10 Z" />
<path fill="#000000" opacity="1.00" d=" M 412.40 303.91 C 413.28 302.48 414.17 301.05 415.09 299.65 C 415.95 301.00 416.80 302.38 417.62 303.77 C 416.69 305.09 415.79 306.42 414.87 307.74 C 414.03 306.46 413.21 305.18 412.40 303.91 Z" />
<path fill="#000000" opacity="1.00" d=" M 453.31 332.16 C 458.30 330.02 463.77 331.48 468.95 331.89 C 469.39 332.24 470.27 332.94 470.71 333.29 C 477.85 335.69 485.45 336.58 492.97 336.31 C 504.30 336.09 515.65 336.21 526.97 335.50 C 542.31 336.02 557.65 335.51 572.99 335.55 C 582.01 335.82 590.91 334.03 599.80 332.73 C 603.00 332.20 606.26 332.27 609.49 332.52 C 609.70 335.64 608.65 339.36 610.92 341.97 C 612.06 342.97 613.51 343.55 614.88 344.19 C 610.24 344.52 605.65 345.80 600.96 345.17 C 599.06 344.40 596.99 344.39 595.01 344.13 C 583.93 341.37 572.36 342.42 561.05 342.27 C 538.71 342.44 516.37 341.39 494.03 342.38 C 488.08 342.79 481.95 341.85 476.13 343.33 C 475.86 343.57 475.32 344.03 475.05 344.27 C 468.52 345.67 461.85 347.69 455.12 346.33 C 449.61 343.49 442.92 343.68 436.87 342.53 C 414.57 342.12 392.27 343.17 369.97 342.90 C 361.97 343.73 353.93 341.90 345.97 343.29 C 341.25 343.54 336.52 343.44 331.87 344.43 C 324.12 345.75 316.25 346.07 308.40 345.59 C 308.48 344.79 308.63 343.18 308.70 342.38 L 309.63 342.55 L 309.26 341.59 C 310.81 341.33 312.36 341.05 313.91 340.77 L 315.05 340.92 C 312.39 339.29 310.05 337.08 309.24 333.96 C 312.26 333.67 315.28 333.44 318.32 333.43 C 329.59 333.83 340.58 337.25 351.91 336.73 C 358.92 336.41 365.94 337.24 372.94 336.59 C 384.60 335.42 396.28 337.18 407.95 336.51 C 419.29 335.73 430.78 337.67 442.00 335.41 C 445.62 333.85 449.59 333.42 453.31 332.16 Z" />
</g>
<g id="#8d8d8dff">
<path fill="#8d8d8d" opacity="1.00" d=" M 308.55 137.64 C 311.70 137.19 314.90 137.20 318.04 137.80 C 314.96 137.65 311.89 138.01 308.85 138.48 C 309.42 139.96 309.99 141.45 310.63 142.91 C 311.06 143.20 311.92 143.78 312.35 144.07 C 311.07 144.01 309.80 143.93 308.53 143.83 C 308.43 141.76 308.39 139.70 308.55 137.64 Z" />
<path fill="#8d8d8d" opacity="1.00" d=" M 609.59 136.68 C 610.66 139.31 610.24 142.22 610.40 144.99 C 612.10 145.52 613.80 146.06 615.51 146.62 C 615.53 147.17 615.56 148.26 615.58 148.81 C 614.41 148.91 613.25 149.01 612.10 149.10 C 611.61 147.35 610.88 145.69 609.61 144.37 C 609.47 141.81 609.47 139.24 609.59 136.68 Z" />
<path fill="#8d8d8d" opacity="1.00" d=" M 599.80 332.73 C 603.21 331.59 606.83 331.84 610.31 332.53 C 610.28 335.06 610.25 337.59 610.19 340.13 C 611.89 340.79 613.63 341.36 615.41 341.83 C 615.46 342.50 615.55 343.85 615.60 344.52 L 614.88 344.19 C 613.51 343.55 612.06 342.97 610.92 341.97 C 608.65 339.36 609.70 335.64 609.49 332.52 C 606.26 332.27 603.00 332.20 599.80 332.73 Z" />
</g>
<g id="#545454ff">
<path fill="#545454" opacity="1.00" d=" M 308.49 333.52 C 311.73 332.80 315.07 332.63 318.32 333.43 C 315.28 333.44 312.26 333.67 309.24 333.96 C 310.05 337.08 312.39 339.29 315.05 340.92 L 313.91 340.77 C 312.22 340.08 310.52 339.43 308.74 339.04 C 308.65 337.20 308.57 335.36 308.49 333.52 Z" />
</g>
</svg>
