<?xml version="1.0" encoding="UTF-8" ?>
<!DOCTYPE svg PUBLIC "-//W3C//DTD SVG 1.1//EN" "http://www.w3.org/Graphics/SVG/1.1/DTD/svg11.dtd">
<svg width="704pt" height="512pt" viewBox="0 0 704 512" version="1.1" xmlns="http://www.w3.org/2000/svg">
<g id="#e45353ff">
</g>
<g id="#fffefeff">
<path fill="#fffefe" opacity="1.00" d=" M 336.13 34.27 C 344.59 31.70 353.40 34.10 361.93 34.99 C 366.49 35.26 369.86 38.78 374.20 39.76 C 392.36 44.52 411.33 44.18 429.94 43.58 C 444.98 42.61 460.07 43.71 475.10 42.56 C 479.72 42.16 484.36 42.25 488.99 42.52 C 519.00 43.66 549.01 41.86 579.03 42.17 C 601.25 42.52 622.81 35.11 645.05 35.63 C 647.84 35.70 651.02 37.13 651.71 40.08 C 652.56 44.93 651.42 49.93 652.32 54.77 C 654.17 58.86 657.57 62.90 656.70 67.67 C 656.04 71.23 652.11 72.02 649.11 72.47 C 638.45 73.92 627.56 73.17 617.07 70.85 C 591.76 65.27 565.70 67.62 540.01 67.25 C 488.33 67.19 436.61 65.85 384.97 68.34 C 380.95 68.65 377.28 70.49 373.46 71.62 C 360.99 75.53 347.40 78.25 334.54 74.53 C 322.71 70.75 310.32 69.22 298.02 67.96 C 275.35 67.75 252.67 67.63 230.00 68.24 C 205.68 69.05 181.34 68.32 157.02 68.88 C 149.98 68.99 142.94 68.96 135.93 68.33 C 126.24 67.45 116.69 69.89 107.01 69.85 C 102.34 69.82 97.66 70.04 93.06 70.92 C 76.57 73.84 59.76 74.94 43.02 74.21 C 39.95 74.21 35.99 73.28 35.32 69.74 C 34.64 64.69 34.89 58.02 40.07 55.37 C 38.79 51.71 36.41 48.08 36.99 44.06 C 38.01 39.66 43.31 39.35 46.98 39.01 C 51.68 38.99 56.26 37.45 60.97 37.83 C 84.40 39.29 107.42 45.74 131.01 44.78 C 142.95 44.10 154.92 45.68 166.86 44.70 C 181.82 43.09 196.90 43.38 211.90 44.21 C 226.92 45.62 241.96 43.62 257.00 43.82 C 276.04 43.49 295.75 46.47 314.18 40.27 C 321.49 38.24 328.83 36.35 336.13 34.27 M 314.75 45.97 C 297.45 51.76 278.92 49.84 261.02 49.53 C 244.68 49.35 228.34 51.22 212.00 50.05 C 197.03 48.98 181.96 48.90 167.02 50.44 C 155.69 51.57 144.34 49.87 133.00 50.41 C 107.66 51.89 82.96 44.61 57.78 43.35 C 52.83 45.34 47.35 44.10 42.26 45.62 C 42.88 46.78 43.45 47.97 43.99 49.17 L 44.27 49.11 C 44.87 53.33 48.91 55.97 52.15 58.25 C 48.41 58.84 44.72 59.72 41.28 61.33 C 41.07 63.69 40.86 66.05 40.65 68.41 C 58.49 69.32 76.42 68.12 94.00 65.01 C 102.93 63.35 112.09 64.52 121.04 63.04 C 131.31 61.66 141.65 63.30 151.95 63.15 C 178.30 62.41 204.67 63.19 231.02 62.52 C 253.04 61.68 275.10 61.87 297.13 62.09 C 310.27 63.47 323.54 65.03 336.16 69.12 C 348.56 72.45 361.56 69.57 373.47 65.66 C 376.97 64.66 380.29 62.84 383.99 62.67 C 437.29 59.89 490.67 61.41 544.01 61.58 C 567.98 61.73 592.27 59.82 615.91 64.82 C 627.73 67.46 640.12 68.59 652.07 66.09 C 651.73 66.00 651.06 65.83 650.73 65.74 C 650.28 62.83 648.61 60.37 646.71 58.19 C 645.73 52.62 646.27 46.92 646.29 41.29 C 627.32 40.93 608.83 45.89 590.04 47.57 C 582.38 48.29 574.69 48.02 567.02 48.02 C 540.37 48.12 513.71 49.08 487.06 48.23 C 475.36 47.71 463.69 49.42 451.99 49.01 C 424.62 48.66 396.51 52.53 369.86 44.37 C 366.95 43.71 364.92 41.07 361.91 40.80 C 354.30 39.78 346.56 38.22 338.88 39.40 C 330.84 41.61 322.79 43.76 314.75 45.97 Z" />
<path fill="#fffefe" opacity="1.00" d=" M 342.84 49.70 C 345.52 49.51 349.12 48.50 350.79 51.34 C 352.60 54.12 350.80 57.49 348.58 59.43 C 347.59 59.40 346.60 59.38 345.62 59.37 C 344.41 58.36 342.73 57.67 342.14 56.11 C 341.02 54.00 342.31 51.77 342.84 49.70 Z" />
<path fill="#fffefe" opacity="1.00" d=" M 276.96 97.03 C 278.80 94.90 281.48 93.90 284.09 93.06 C 286.57 96.73 288.47 100.74 290.17 104.83 C 295.53 116.02 302.83 126.23 307.34 137.84 C 311.52 146.95 316.51 155.74 319.77 165.25 C 323.93 174.08 326.40 183.59 330.57 192.42 C 332.87 198.24 336.13 203.74 337.67 209.82 C 336.85 212.54 335.48 215.05 334.68 217.78 C 332.39 225.49 327.68 232.12 324.39 239.39 C 322.31 244.14 319.06 248.27 317.06 253.07 C 315.52 256.82 314.20 260.68 312.02 264.12 C 308.57 269.50 305.95 275.34 302.84 280.91 C 299.50 286.97 295.55 292.71 292.93 299.14 C 290.53 305.07 286.88 310.37 283.75 315.92 C 282.65 317.97 280.86 319.49 279.12 320.97 C 277.68 318.99 276.15 317.05 275.14 314.81 C 271.68 306.58 268.20 298.36 264.79 290.11 C 263.76 287.05 260.48 285.51 259.64 282.35 C 258.01 277.46 255.02 273.13 253.72 268.11 C 252.02 262.51 249.56 257.19 247.15 251.87 C 244.71 246.73 243.59 241.07 240.97 236.01 C 238.17 230.58 234.95 225.39 231.97 220.07 C 229.04 215.23 230.05 209.36 229.96 203.99 C 229.82 200.18 231.25 196.58 233.20 193.38 C 236.18 188.93 237.24 183.57 239.99 178.98 C 242.76 174.86 241.13 169.25 244.64 165.47 C 244.41 159.76 249.45 156.33 251.30 151.38 C 254.29 143.90 257.11 136.34 259.75 128.72 C 261.49 123.52 264.75 119.02 266.89 114.00 C 269.49 107.95 272.55 101.97 276.96 97.03 M 279.38 105.18 C 276.41 111.68 272.21 117.50 268.48 123.57 C 265.04 128.75 264.26 135.07 261.83 140.70 C 258.70 148.21 255.98 155.87 252.13 163.04 C 250.88 168.19 247.58 172.64 247.22 178.02 C 245.21 182.56 241.73 186.74 241.69 191.90 C 235.06 197.46 234.97 207.07 236.17 214.91 C 239.22 221.27 242.51 227.59 246.75 233.26 C 249.46 236.90 250.07 241.51 251.34 245.74 C 253.39 249.73 255.17 253.85 257.29 257.81 C 259.30 261.44 259.12 265.76 260.62 269.57 C 261.63 271.95 263.55 273.82 264.59 276.19 C 265.79 278.89 265.69 282.05 267.41 284.54 C 272.72 293.23 277.80 302.11 280.99 311.83 C 283.24 308.42 285.15 304.82 287.06 301.23 C 289.32 297.12 292.99 293.24 292.58 288.22 C 294.94 285.53 297.60 282.78 298.17 279.08 C 299.45 272.68 301.97 266.53 305.68 261.16 C 306.73 260.43 308.65 260.40 308.99 258.91 C 310.31 254.29 309.98 249.43 310.58 244.73 C 312.44 242.06 315.12 240.14 318.16 239.02 C 318.88 234.63 318.44 229.81 320.88 225.90 C 322.59 222.55 323.51 218.79 325.86 215.78 C 327.80 212.49 330.92 209.60 331.08 205.57 C 325.53 199.08 324.51 190.12 320.42 182.81 C 318.71 179.95 319.47 176.27 317.66 173.46 C 313.63 168.89 313.74 162.45 310.44 157.51 C 308.60 151.55 305.73 145.86 301.60 141.15 C 301.30 138.78 301.28 136.35 300.56 134.05 C 298.36 130.39 295.28 127.32 293.28 123.53 C 290.51 115.93 286.75 108.70 282.78 101.66 C 281.56 102.73 280.05 103.62 279.38 105.18 Z" />
<path fill="#fffefe" opacity="1.00" d=" M 464.95 101.02 C 466.02 98.26 469.50 97.92 472.06 98.06 C 475.20 98.41 478.53 98.95 481.24 100.69 C 482.83 102.58 482.89 105.23 483.51 107.53 C 485.99 110.85 486.94 114.98 487.10 119.06 C 488.49 121.95 489.96 124.81 491.31 127.72 C 493.19 131.85 491.10 136.73 493.25 140.76 C 497.13 148.29 497.64 156.88 499.86 164.92 C 502.06 174.06 505.77 182.75 508.16 191.85 C 509.53 197.13 511.06 202.37 512.69 207.58 C 513.95 211.51 514.55 215.72 516.70 219.33 C 516.81 220.68 516.93 222.03 517.06 223.38 C 521.57 221.21 522.22 214.25 527.89 214.16 C 531.47 214.11 536.07 213.30 538.71 216.33 C 540.62 220.55 540.01 225.40 540.78 229.89 C 540.85 239.90 541.66 250.14 539.11 259.92 C 537.03 263.69 531.77 263.70 528.00 263.18 C 530.43 270.35 535.38 276.14 539.77 282.17 C 542.49 285.27 542.72 290.15 540.78 293.70 C 538.46 296.51 534.38 296.29 531.09 296.74 C 521.03 297.25 510.92 297.31 500.87 296.59 C 497.79 296.20 493.69 295.80 492.52 292.38 C 491.09 288.53 493.91 284.87 494.03 281.05 C 494.12 277.35 493.72 273.66 493.70 269.97 C 493.81 265.44 491.56 261.39 490.51 257.09 C 482.76 255.49 474.83 256.12 466.97 255.98 C 463.42 255.96 459.72 255.97 456.41 257.46 C 454.90 259.22 454.72 261.70 454.13 263.87 C 453.18 268.46 451.82 273.54 453.99 278.00 C 456.46 283.51 458.63 289.25 462.37 294.07 C 462.00 294.57 461.28 295.56 460.92 296.06 C 452.24 295.64 443.64 297.07 434.97 297.04 C 425.63 297.10 416.30 296.72 406.96 296.82 C 404.89 296.89 402.97 296.07 401.09 295.34 C 402.56 290.34 404.82 285.63 406.96 280.89 C 409.67 274.77 414.36 269.67 416.34 263.20 C 412.77 262.94 409.25 262.23 405.88 261.01 C 405.87 266.75 406.49 273.12 403.09 278.12 C 399.26 282.93 394.48 286.86 389.82 290.83 C 386.68 293.39 384.74 297.10 381.46 299.50 C 373.43 305.25 366.55 312.43 359.69 319.46 C 357.64 327.21 355.61 334.99 353.37 342.70 C 356.59 343.02 361.09 342.65 362.51 346.36 C 364.58 350.35 360.73 353.98 360.90 358.00 C 360.82 366.70 360.93 375.41 360.89 384.12 C 363.11 383.72 366.61 384.92 367.46 382.01 C 367.32 378.15 366.53 374.28 367.37 370.44 C 370.80 370.22 374.24 370.18 377.68 370.18 C 380.23 361.78 382.92 353.41 386.28 345.30 C 388.00 341.06 388.34 336.04 392.01 332.85 C 392.97 334.57 393.95 336.31 394.66 338.17 C 398.39 348.04 401.69 358.07 405.07 368.06 C 405.58 369.50 406.05 371.00 407.00 372.23 C 409.83 372.43 412.67 372.30 415.51 372.48 C 416.59 377.88 416.56 383.42 416.92 388.90 C 416.29 389.59 415.69 390.32 415.13 391.08 C 415.94 395.23 418.31 398.93 418.69 403.19 C 411.06 403.44 403.42 403.74 395.78 403.46 C 395.37 400.32 395.04 397.17 394.70 394.03 C 393.88 393.89 392.24 393.62 391.42 393.49 C 390.72 396.87 390.55 400.33 390.28 403.77 C 384.18 403.91 378.07 404.39 371.99 403.73 C 361.97 403.96 351.95 404.72 341.92 404.45 C 335.48 404.50 331.25 398.92 326.20 395.77 C 320.63 391.56 314.35 388.17 309.73 382.84 C 308.38 383.81 307.04 384.80 305.70 385.79 C 304.17 383.18 302.88 380.46 301.71 377.69 C 299.02 388.26 294.79 398.52 288.92 407.74 C 284.04 402.98 282.97 396.04 279.83 390.25 C 277.39 385.61 275.84 380.60 274.45 375.58 C 271.40 380.81 268.69 386.26 265.22 391.24 C 260.64 397.72 258.01 405.29 253.96 412.09 C 249.89 405.92 246.65 398.67 240.30 394.49 C 239.34 400.49 240.59 407.22 237.16 412.59 C 231.75 411.64 229.78 406.02 226.62 402.32 C 217.74 402.02 208.63 402.94 199.96 400.63 C 201.33 396.01 204.83 392.11 204.81 387.10 C 204.86 378.40 205.04 369.67 204.70 360.97 C 204.43 354.87 199.61 350.55 197.88 344.94 C 203.72 342.95 209.98 342.81 216.08 343.11 C 218.17 343.16 220.08 344.09 221.98 344.85 C 226.93 342.00 233.00 342.73 238.37 343.69 C 242.08 344.52 241.06 348.92 241.57 351.71 C 245.49 346.28 248.85 340.41 253.43 335.47 C 258.26 338.98 260.92 344.28 263.51 349.48 C 264.42 346.79 264.84 342.86 268.36 342.43 C 274.85 341.64 281.59 341.57 288.03 342.90 C 289.59 342.25 291.16 341.63 292.75 341.03 C 298.83 343.14 305.59 340.57 311.47 343.45 C 315.66 341.24 320.49 342.03 325.03 341.98 C 330.39 342.12 335.83 342.19 341.03 340.67 C 333.47 330.56 328.53 318.82 321.71 308.24 C 317.70 302.68 315.32 296.21 311.80 290.35 C 320.55 288.40 330.24 291.12 338.35 286.58 C 340.96 285.87 343.95 286.05 346.13 284.20 C 349.81 281.21 353.58 278.31 357.05 275.08 C 361.54 270.15 365.72 264.90 370.74 260.47 C 371.03 246.31 370.47 232.12 371.61 217.99 C 371.89 213.32 370.86 208.71 370.83 204.04 C 370.72 185.01 370.95 165.98 370.77 146.95 C 370.71 140.90 369.56 134.75 366.20 129.61 C 364.11 125.55 358.80 123.22 359.01 118.11 C 358.95 114.51 358.24 109.82 361.41 107.27 C 366.23 105.23 371.62 104.75 376.81 105.19 C 387.66 106.07 398.64 104.74 409.43 106.43 C 413.76 106.97 413.84 112.03 414.57 115.34 C 415.59 118.81 413.69 122.04 412.24 125.05 C 411.89 127.83 410.97 130.52 409.11 132.66 C 409.21 137.65 407.26 142.22 405.96 146.89 C 405.78 162.95 405.93 179.01 405.91 195.07 C 412.83 200.82 418.75 207.62 425.06 214.00 C 426.03 214.91 427.02 216.05 428.47 216.05 C 431.28 209.07 433.73 201.94 435.40 194.60 C 436.98 186.72 441.48 179.84 442.89 171.91 C 447.07 161.88 449.28 151.20 453.20 141.09 C 456.16 134.67 457.57 127.71 459.85 121.06 C 460.34 114.12 462.60 107.50 464.95 101.02 M 472.04 104.14 C 471.10 108.06 469.99 111.93 468.99 115.83 C 467.76 120.96 464.80 125.44 463.38 130.50 C 462.42 134.22 460.98 137.80 460.26 141.59 C 459.34 145.91 457.01 149.77 456.07 154.09 C 454.23 160.74 452.25 167.36 449.81 173.82 C 449.47 174.87 449.12 175.93 448.76 176.98 C 450.42 179.46 449.58 182.53 449.22 185.27 C 447.07 193.18 445.58 201.34 442.17 208.84 C 440.96 209.50 439.76 210.17 438.57 210.84 C 437.72 209.54 436.92 208.21 436.09 206.90 C 436.85 208.55 438.34 210.18 436.94 212.00 C 434.90 216.73 436.63 222.11 434.46 226.80 C 431.89 226.52 428.76 227.44 426.75 225.40 C 423.25 222.56 419.47 220.08 416.14 217.03 C 414.93 217.26 413.72 217.50 412.52 217.74 C 414.23 230.76 412.29 243.90 412.63 256.98 C 419.88 257.99 423.34 250.72 428.34 247.03 C 426.25 252.06 424.38 257.18 422.25 262.19 C 420.83 264.80 423.80 267.49 422.30 270.10 C 420.20 274.99 415.83 278.35 412.74 282.57 C 411.13 284.82 409.23 286.85 407.53 289.03 C 407.85 289.38 408.47 290.08 408.78 290.43 C 422.46 291.26 436.30 292.05 449.91 290.09 C 448.65 284.94 445.21 280.56 444.65 275.15 C 445.91 271.29 446.51 267.26 447.35 263.30 C 447.94 258.97 448.19 254.42 450.63 250.63 C 465.58 250.15 480.56 249.75 495.50 250.85 C 496.17 254.22 496.42 257.73 497.94 260.87 C 500.41 266.41 498.80 272.61 499.82 278.43 C 500.58 282.59 498.56 286.50 497.88 290.53 C 510.64 291.66 523.49 291.67 536.25 290.49 C 536.22 289.58 536.18 287.76 536.15 286.85 C 530.07 278.65 521.92 270.36 522.23 259.41 C 520.39 256.58 519.39 253.34 518.80 250.05 C 525.17 250.01 526.87 259.04 533.54 257.88 C 535.83 245.47 534.18 232.77 534.27 220.25 C 532.06 220.20 529.85 220.14 527.65 220.05 C 525.12 226.03 519.04 229.21 513.10 230.87 C 510.94 226.17 510.90 220.94 510.21 215.91 C 509.30 210.75 507.86 205.62 504.83 201.27 C 504.73 197.89 504.50 194.51 504.25 191.14 C 498.85 187.77 499.44 180.93 497.04 175.79 C 495.79 173.13 495.51 170.18 495.26 167.28 C 494.54 166.73 493.82 166.19 493.11 165.64 C 493.69 156.63 489.83 148.22 486.76 140.02 C 486.78 132.97 483.99 126.39 480.92 120.19 C 480.91 115.12 477.86 110.94 476.34 106.29 C 475.79 104.36 473.62 104.47 472.04 104.14 M 364.64 111.99 C 364.68 114.32 364.75 116.65 364.84 118.98 C 369.99 123.59 373.31 129.86 375.72 136.26 C 376.41 137.76 376.33 139.43 376.39 141.05 C 376.70 162.38 376.40 183.71 376.53 205.04 C 376.51 209.17 378.32 212.99 379.25 216.95 C 377.51 221.09 376.88 225.56 376.77 230.03 C 376.53 241.07 376.49 252.11 376.44 263.15 C 369.21 268.68 364.61 276.84 357.42 282.42 C 354.58 284.58 352.02 287.09 349.16 289.23 C 346.24 291.58 342.26 291.90 339.34 294.28 C 333.73 294.99 328.03 294.41 322.45 295.47 C 322.73 297.16 322.77 298.94 323.55 300.51 C 325.20 302.47 327.38 303.91 328.98 305.93 C 332.97 310.53 334.91 316.47 338.77 321.16 C 340.60 323.34 342.11 325.76 343.22 328.39 C 344.85 328.50 346.48 328.56 348.12 328.61 C 349.54 324.46 350.90 320.29 352.60 316.24 C 357.52 313.37 360.32 308.20 364.81 304.83 C 373.78 297.29 381.69 288.57 390.77 281.15 C 395.18 278.66 400.48 274.71 399.87 269.00 C 400.05 247.00 399.50 224.99 400.16 203.01 C 400.09 196.33 400.14 189.66 400.13 182.98 C 400.12 180.65 400.12 178.32 400.14 176.00 C 400.07 169.66 399.79 163.33 400.16 157.00 C 399.83 147.67 400.66 138.37 400.50 129.04 C 402.75 125.81 405.25 122.77 407.72 119.70 C 409.69 117.62 408.37 114.66 408.25 112.17 C 397.09 110.26 385.71 112.08 374.50 110.82 C 371.16 110.40 367.89 111.36 364.64 111.99 M 241.03 371.89 C 240.66 373.02 239.77 374.30 240.59 375.47 C 245.15 384.54 249.44 393.75 253.62 403.00 C 254.88 400.79 256.25 398.62 257.24 396.27 C 260.43 388.65 264.19 381.29 267.98 373.95 C 263.87 363.78 259.14 353.88 253.91 344.24 C 248.65 352.97 245.02 362.54 241.03 371.89 M 315.37 347.61 C 316.10 353.52 316.67 359.46 316.83 365.43 C 314.20 364.20 311.65 362.81 309.16 361.33 C 309.58 365.84 309.76 370.37 309.66 374.91 C 311.54 372.73 313.66 370.72 316.71 370.49 C 316.60 373.24 316.12 375.98 316.23 378.74 C 323.04 385.50 333.35 388.36 338.15 397.19 C 340.05 394.63 341.97 392.08 344.05 389.66 C 336.87 386.70 331.07 381.45 324.56 377.36 C 322.11 376.14 322.94 372.87 322.37 370.67 C 325.38 370.55 328.40 370.43 331.42 370.31 C 332.75 372.24 334.06 374.18 335.42 376.10 C 336.45 370.84 336.51 365.45 336.51 360.11 C 334.74 361.60 332.99 363.13 331.29 364.70 C 328.23 364.48 325.16 364.27 322.14 363.72 C 322.53 360.58 323.18 357.48 323.83 354.39 C 329.74 354.91 336.00 353.87 341.50 356.69 C 341.49 353.32 341.57 349.96 341.74 346.60 C 333.13 349.24 324.17 347.65 315.37 347.61 M 392.54 345.28 C 389.15 357.07 383.67 368.19 381.07 380.23 C 378.86 379.13 376.68 377.97 374.52 376.79 C 374.58 380.52 374.48 384.25 374.29 387.97 C 376.10 386.81 377.88 385.62 379.70 384.48 C 378.36 388.79 376.70 393.02 374.37 396.91 C 377.81 396.86 381.26 396.86 384.71 396.91 C 384.39 393.09 384.65 389.25 385.65 385.54 C 390.40 385.52 395.16 385.49 399.91 385.58 C 400.77 389.25 400.94 393.03 400.87 396.80 C 404.31 396.92 407.76 396.90 411.20 396.84 C 408.74 393.25 406.80 389.31 405.75 385.07 C 407.44 385.94 409.08 386.86 410.75 387.78 C 410.78 384.40 410.75 381.02 410.79 377.64 C 408.70 378.78 406.60 379.89 404.51 381.03 C 403.27 374.57 400.23 368.70 398.39 362.43 C 396.57 356.67 395.61 350.56 392.54 345.28 M 269.80 347.72 C 278.74 358.76 279.08 373.56 283.81 386.41 C 285.62 390.95 285.56 396.29 289.09 400.05 C 293.61 385.01 298.02 369.93 302.94 355.02 C 303.70 352.04 305.96 349.88 307.94 347.68 C 302.92 348.65 297.85 347.95 292.82 347.52 C 293.90 349.60 295.21 351.62 295.86 353.90 C 294.99 362.56 291.96 370.84 288.70 378.85 C 285.08 370.46 282.68 361.60 280.61 352.71 C 281.98 351.05 283.38 349.40 284.78 347.76 C 279.79 347.80 274.80 347.83 269.80 347.72 M 206.30 349.48 C 208.09 352.47 210.60 355.43 210.50 359.13 C 210.63 369.09 210.54 379.07 210.58 389.04 C 210.60 392.10 209.31 394.93 208.31 397.77 C 211.86 397.54 215.42 397.54 218.98 397.67 C 215.28 388.65 217.31 378.82 216.92 369.39 C 223.11 380.86 228.08 392.95 234.24 404.44 C 235.76 397.71 234.88 390.80 235.28 383.99 C 235.77 372.52 233.02 360.72 236.73 349.55 C 233.36 349.37 230.03 348.88 226.69 348.43 C 230.15 357.97 228.56 368.32 228.42 378.23 C 224.59 371.51 222.36 364.05 218.70 357.25 C 217.37 354.83 217.16 352.03 217.03 349.34 C 213.45 349.17 209.87 349.22 206.30 349.48 M 346.43 348.66 C 349.50 355.41 348.39 362.92 348.92 370.08 C 349.71 376.05 348.45 382.03 348.68 388.02 C 349.07 391.12 346.68 393.42 345.31 395.93 C 354.10 396.06 362.93 395.47 371.68 396.63 C 371.83 393.10 372.08 389.57 372.34 386.05 C 368.00 391.30 360.77 389.74 354.85 389.30 C 354.88 379.20 354.86 369.11 354.79 359.01 C 354.60 355.30 356.32 351.91 357.84 348.65 C 354.04 348.61 350.23 348.65 346.43 348.66 Z" />
<path fill="#fffefe" opacity="1.00" d=" M 112.98 110.35 C 117.70 110.31 122.30 108.99 127.03 109.08 C 140.01 109.12 152.99 109.14 165.98 109.07 C 172.78 108.53 178.99 112.09 185.76 112.20 C 187.59 110.95 189.40 109.33 191.73 109.19 C 197.15 108.70 202.54 109.61 207.94 109.93 C 214.58 110.43 221.28 110.37 227.82 111.75 C 228.29 113.22 228.79 114.68 229.31 116.14 C 227.45 121.35 224.13 125.87 222.32 131.10 C 217.63 144.14 211.01 156.36 204.73 168.68 C 203.22 171.71 201.52 174.65 199.36 177.27 C 197.83 182.37 194.78 186.81 192.87 191.76 C 190.09 199.94 186.96 208.14 182.21 215.42 C 187.93 223.82 191.89 233.57 199.27 240.76 C 204.73 246.08 207.06 254.17 213.83 258.23 C 219.89 261.94 224.34 267.58 229.85 271.97 C 233.09 274.45 235.61 277.67 238.26 280.73 C 241.54 284.58 245.41 287.91 248.31 292.08 C 246.17 292.61 244.05 293.25 241.85 293.51 C 228.90 294.08 215.92 294.03 202.96 293.52 C 197.10 293.26 191.06 294.27 185.32 292.81 C 181.38 288.66 182.16 282.45 182.06 277.20 C 177.88 273.59 174.80 268.97 171.25 264.80 C 167.46 259.92 163.33 255.29 159.95 250.11 C 158.73 248.18 157.16 246.49 155.17 245.35 C 155.05 255.14 154.56 265.03 155.47 274.78 C 159.16 280.58 163.98 285.77 166.78 292.10 C 167.44 294.37 164.37 294.06 162.97 294.17 C 150.98 293.80 138.98 293.80 126.98 293.97 C 118.80 294.96 110.28 294.82 102.35 292.37 C 102.96 287.21 107.16 283.89 109.63 279.65 C 112.31 275.53 114.11 270.91 116.85 266.83 C 119.21 263.72 118.79 259.64 118.99 255.98 C 118.99 249.28 120.20 242.63 119.73 235.93 C 119.25 230.53 120.29 225.10 119.39 219.72 C 118.87 216.15 119.09 212.53 118.83 208.95 C 118.47 204.53 116.14 200.51 116.10 196.05 C 116.03 192.33 115.80 188.50 116.93 184.91 C 117.85 181.69 119.00 178.46 118.97 175.07 C 119.02 167.70 118.91 160.33 119.00 152.97 C 119.22 147.20 117.85 141.45 115.83 136.09 C 113.87 133.48 111.00 131.69 109.19 128.94 C 106.28 124.65 102.98 120.60 100.52 116.02 C 101.22 114.68 101.93 113.35 102.65 112.02 C 106.10 111.51 109.47 110.44 112.98 110.35 M 113.43 119.40 C 112.41 125.31 117.78 128.96 121.68 132.30 C 122.45 137.90 124.92 143.23 124.75 148.96 C 124.75 158.00 124.75 167.04 124.74 176.08 C 124.95 181.57 121.83 186.53 122.05 192.03 C 121.80 196.58 123.17 200.96 124.31 205.30 C 125.28 211.77 124.37 218.34 124.85 224.84 C 126.25 231.45 125.76 238.44 124.83 245.10 C 124.66 254.44 124.88 263.78 124.62 273.11 C 121.80 277.58 118.26 281.97 118.17 287.55 C 129.86 288.12 141.66 288.72 153.31 287.33 C 153.81 286.06 154.31 284.79 154.79 283.52 C 151.41 280.87 149.91 276.80 148.43 272.93 C 148.24 268.61 149.09 263.95 146.48 260.14 C 149.23 253.43 148.46 246.08 148.25 239.01 C 148.01 234.04 148.97 229.01 147.90 224.09 C 146.89 218.15 144.64 212.18 145.73 206.08 C 146.20 203.29 148.22 200.92 148.18 198.03 C 148.51 180.71 148.22 163.39 148.21 146.07 C 149.90 144.49 151.56 142.87 153.19 141.22 C 157.72 143.26 162.27 145.80 167.42 145.46 C 167.92 144.07 168.41 142.67 168.88 141.27 C 169.98 141.41 171.08 141.54 172.18 141.68 C 175.53 142.93 178.85 144.24 182.17 145.54 C 180.66 148.70 179.25 151.93 178.37 155.33 C 176.76 157.09 174.92 158.69 173.63 160.72 C 172.40 164.24 172.93 168.17 171.37 171.59 C 169.72 175.01 167.11 177.81 164.90 180.85 C 161.27 188.53 159.39 196.91 155.71 204.57 C 155.11 206.01 154.91 207.57 154.57 209.09 C 150.90 212.40 147.74 216.81 148.34 222.03 C 150.60 223.56 153.02 225.00 154.81 227.11 C 156.86 229.91 157.70 233.32 158.65 236.60 C 159.25 236.78 160.45 237.16 161.05 237.35 C 163.00 240.25 165.18 243.01 166.82 246.11 C 170.80 254.09 176.80 260.79 182.12 267.87 C 183.87 270.61 186.07 273.01 188.18 275.47 C 188.11 279.47 188.18 283.46 188.19 287.47 C 192.41 288.04 196.66 288.76 200.94 288.39 C 212.07 287.27 223.30 289.02 234.40 287.31 C 234.52 286.28 234.64 285.24 234.76 284.21 C 233.12 282.51 231.46 280.81 229.59 279.37 C 221.79 274.73 216.46 267.01 208.97 261.90 C 202.25 257.74 200.35 249.44 194.62 244.34 C 186.08 236.13 182.32 224.50 174.99 215.37 C 180.37 208.03 184.43 199.71 186.81 190.92 C 187.92 185.84 192.08 182.09 193.10 176.97 C 194.25 170.53 200.35 165.90 199.87 159.02 C 203.95 155.10 206.98 150.19 208.71 144.81 C 211.07 137.33 214.44 130.24 217.36 122.98 C 216.91 121.56 216.51 120.13 216.14 118.69 C 211.35 117.02 206.01 118.88 201.39 116.52 C 198.24 115.02 194.69 115.08 191.29 115.28 C 189.52 116.81 187.50 118.47 184.99 118.19 C 181.18 117.80 177.19 117.93 173.65 116.28 C 169.31 114.50 164.51 115.04 159.93 114.96 C 148.92 115.23 137.91 114.83 126.90 115.00 C 122.05 114.99 117.69 117.37 113.43 119.40 M 154.09 152.16 C 154.01 164.41 154.17 176.67 154.12 188.93 C 154.52 188.66 155.31 188.12 155.71 187.85 C 156.99 184.72 158.08 181.51 159.53 178.46 C 161.35 175.32 164.04 172.78 165.71 169.55 C 167.33 166.74 166.68 163.37 167.34 160.32 C 168.16 157.27 170.43 154.96 172.35 152.57 C 166.28 152.06 160.18 152.06 154.09 152.16 Z" />
<path fill="#fffefe" opacity="1.00" d=" M 280.62 159.05 C 284.55 163.52 286.75 169.05 289.77 174.10 C 294.40 182.61 298.42 191.48 301.56 200.65 C 303.13 208.37 298.27 215.27 294.96 221.83 C 292.65 225.24 292.11 229.38 292.46 233.40 C 290.57 234.80 288.72 236.24 286.90 237.72 C 286.25 243.27 283.58 248.29 281.15 253.23 C 277.43 249.33 276.78 243.75 274.99 238.89 C 273.60 232.66 269.40 227.67 265.34 222.96 C 265.29 221.61 265.26 220.26 265.22 218.91 C 263.18 214.36 261.87 209.50 259.44 205.13 C 261.25 201.08 263.40 197.19 265.18 193.14 C 268.40 185.09 270.96 176.46 276.89 169.89 C 279.55 166.91 280.08 162.84 280.62 159.05 M 280.27 180.28 C 276.24 187.61 273.32 195.56 268.68 202.55 C 267.98 203.83 267.24 205.19 267.20 206.69 C 271.24 216.18 276.43 225.19 279.87 234.93 C 280.44 234.53 281.56 233.74 282.12 233.34 C 287.25 224.26 291.52 214.68 297.01 205.80 C 293.66 196.95 289.02 188.65 284.43 180.40 C 283.91 178.47 281.08 178.71 280.27 180.28 Z" />
<path fill="#fffefe" opacity="1.00" d=" M 472.41 179.29 C 473.18 179.26 474.74 179.20 475.52 179.17 C 475.51 180.68 475.50 182.18 475.53 183.69 C 480.51 192.97 480.95 203.91 484.54 213.72 C 486.39 218.51 487.02 223.65 488.98 228.41 C 478.24 229.21 467.52 227.83 456.80 227.52 C 459.03 225.19 461.37 222.81 462.65 219.80 C 463.51 215.44 464.52 211.11 465.82 206.86 C 466.26 205.24 466.62 203.60 467.05 201.99 C 467.39 200.35 467.73 198.71 468.20 197.10 C 468.37 195.96 468.55 194.82 468.73 193.68 L 469.08 193.12 C 470.06 188.47 471.61 183.97 472.41 179.29 Z" />
<path fill="#fffefe" opacity="1.00" d=" M 509.84 329.46 C 513.61 333.00 515.97 337.73 519.75 341.28 C 524.84 340.68 530.06 340.36 535.10 341.55 C 535.27 342.88 535.47 344.22 535.67 345.56 C 537.12 345.42 538.56 345.23 540.01 344.98 C 541.28 343.74 542.07 342.11 543.03 340.64 C 547.26 340.49 551.45 341.09 555.63 341.67 C 556.98 349.72 555.86 357.90 556.27 366.00 C 556.30 367.98 557.09 369.81 557.78 371.63 C 558.68 369.84 559.45 367.97 559.80 365.98 C 560.91 360.27 564.01 355.22 565.38 349.59 C 566.03 347.19 566.18 344.64 567.26 342.38 C 568.49 340.48 570.76 339.76 572.66 338.74 C 580.45 341.44 581.11 350.42 584.20 356.84 C 586.88 362.07 588.11 367.93 591.10 373.01 C 591.46 363.28 590.55 353.54 591.07 343.81 C 598.43 342.99 605.86 343.38 613.25 343.59 C 613.61 344.18 614.31 345.38 614.67 345.97 C 612.36 350.10 608.86 354.05 608.90 359.03 C 608.75 367.42 609.05 375.81 609.03 384.21 C 610.49 383.97 612.06 384.10 613.47 383.55 C 617.08 380.93 620.27 377.80 623.76 375.03 C 623.90 384.18 623.67 393.34 623.31 402.49 C 608.10 402.19 592.88 402.01 577.67 402.50 C 576.86 398.65 575.80 394.87 574.46 391.19 C 573.27 391.19 572.09 391.20 570.92 391.22 C 570.89 393.69 571.12 396.20 570.64 398.64 C 569.71 400.97 567.23 402.17 564.88 402.51 C 558.93 403.31 552.97 402.25 547.03 402.13 C 538.55 401.73 531.00 397.54 523.52 393.96 C 517.88 398.34 510.46 400.20 505.63 405.66 C 504.95 408.69 505.26 411.84 504.98 414.92 C 500.52 412.37 498.60 407.34 495.81 403.29 C 487.09 402.86 478.40 403.53 469.69 403.57 C 469.67 402.73 469.64 401.05 469.62 400.21 C 472.03 397.60 474.59 395.04 476.40 391.96 C 477.40 387.59 476.98 383.05 477.03 378.60 C 475.58 377.66 474.17 376.67 472.68 375.82 C 470.40 380.17 469.61 385.11 467.87 389.68 C 466.16 394.09 465.69 399.08 462.90 403.01 C 461.36 405.18 458.45 405.24 456.08 404.76 C 453.75 401.07 453.21 396.54 451.52 392.54 C 447.51 382.29 445.86 371.15 440.47 361.45 C 438.86 357.90 437.12 354.42 434.94 351.19 C 432.69 347.91 434.81 342.38 439.04 342.22 C 446.70 341.49 454.40 342.46 462.08 341.96 C 473.35 342.15 484.62 342.20 495.89 342.18 C 497.57 343.72 498.81 345.63 499.57 347.79 C 502.06 346.82 504.58 345.92 507.13 345.12 C 509.20 340.14 508.88 334.67 509.84 329.46 M 514.06 344.09 C 513.40 346.48 513.12 349.58 510.53 350.72 C 505.53 353.26 500.62 355.96 495.67 358.59 C 498.16 362.63 500.71 366.63 503.45 370.51 C 501.51 370.44 499.59 370.37 497.67 370.32 C 497.61 372.99 497.56 375.68 497.52 378.36 C 500.58 377.79 503.54 376.38 506.66 376.32 C 508.57 379.11 510.17 382.11 511.87 385.03 C 508.79 386.85 505.48 388.22 502.06 389.22 C 499.57 389.32 497.08 389.37 494.60 389.41 C 498.43 392.49 501.67 396.25 502.88 401.13 C 506.44 393.69 514.95 391.59 521.19 387.14 C 519.00 383.10 516.79 379.06 515.00 374.83 C 516.66 375.57 518.32 376.36 519.98 377.14 C 519.92 374.53 519.85 371.92 519.77 369.31 C 517.13 369.74 514.50 370.27 511.85 370.63 C 510.03 367.36 508.05 364.18 506.05 361.02 C 510.58 358.25 515.71 356.04 521.14 356.70 C 518.36 352.74 516.20 348.41 514.06 344.09 M 572.74 345.01 C 569.55 356.95 564.24 368.21 561.39 380.26 C 559.21 379.11 557.04 377.96 554.89 376.79 C 554.96 380.56 554.87 384.32 554.66 388.08 C 556.47 386.80 558.29 385.53 560.12 384.27 C 558.86 388.68 557.21 393.00 554.79 396.91 C 558.29 396.86 561.80 396.87 565.32 396.88 C 564.89 393.10 565.32 389.33 565.88 385.60 C 570.67 385.48 575.47 385.50 580.27 385.59 C 581.14 389.30 581.60 393.09 581.54 396.91 C 584.91 396.87 588.28 396.87 591.66 396.90 C 589.14 393.30 587.21 389.31 586.08 385.06 C 587.86 385.92 589.64 386.85 591.41 387.78 C 591.38 384.40 591.36 381.02 591.44 377.64 C 589.22 378.76 587.00 379.88 584.79 381.01 C 583.87 374.89 581.42 369.19 579.35 363.41 C 577.13 357.29 576.54 350.48 572.74 345.01 M 439.30 347.74 C 448.22 358.22 448.38 372.65 453.03 385.03 C 455.08 389.95 454.82 395.80 458.55 399.96 C 463.65 384.45 467.79 368.60 473.24 353.20 C 474.26 351.05 476.03 349.40 477.46 347.54 C 475.99 347.76 474.52 348.01 473.07 348.26 C 469.50 348.21 465.97 347.72 462.42 347.49 C 463.60 350.20 466.07 352.86 465.21 356.02 C 463.86 363.98 461.56 371.80 458.04 379.08 C 455.07 370.47 452.13 361.80 450.36 352.85 C 451.32 351.06 453.01 349.80 454.38 348.34 C 449.38 347.63 444.33 347.78 439.30 347.74 M 479.17 347.70 C 480.32 349.80 482.05 351.71 482.60 354.09 C 482.88 358.79 482.71 363.51 483.21 368.21 C 481.55 369.37 479.83 370.44 478.21 371.64 C 478.69 373.52 481.31 373.80 482.75 374.90 C 482.85 379.62 482.90 384.35 482.88 389.08 C 483.22 392.20 480.36 394.27 478.95 396.71 C 483.39 396.29 487.85 395.97 492.32 395.80 C 491.06 394.36 489.81 392.92 488.55 391.48 C 488.96 385.64 486.94 379.36 489.84 373.92 C 491.19 373.22 492.55 372.52 493.93 371.84 C 492.09 370.71 490.18 369.70 488.49 368.35 C 488.34 361.37 486.72 353.07 492.31 347.63 C 487.93 347.82 483.55 347.77 479.17 347.70 M 523.69 347.53 C 526.14 353.04 525.66 359.14 525.77 365.01 C 526.09 372.67 527.59 380.85 523.92 387.99 C 533.36 390.92 541.96 398.39 552.43 396.20 C 549.36 391.24 551.18 385.41 550.72 379.98 C 550.19 372.30 550.91 364.60 550.33 356.92 C 550.08 354.07 551.43 351.45 552.17 348.78 C 549.10 348.73 546.05 348.65 543.00 348.64 C 545.62 362.18 543.82 375.98 544.13 389.65 C 540.26 388.12 536.44 386.46 532.59 384.90 C 532.47 378.60 531.61 372.33 531.78 366.03 C 532.20 360.31 532.53 354.56 533.61 348.92 C 530.26 348.77 526.90 348.54 523.69 347.53 M 594.42 348.64 C 598.47 361.76 596.90 375.63 596.62 389.11 C 596.73 391.80 594.48 393.70 593.29 395.89 C 602.14 396.03 611.01 395.63 619.84 396.44 C 619.89 392.98 619.92 389.53 620.02 386.08 C 617.75 388.71 614.46 389.86 611.09 390.18 C 608.32 389.72 605.54 389.45 602.76 389.16 C 603.00 378.76 602.61 368.35 602.88 357.94 C 602.94 354.60 604.49 351.60 605.92 348.67 C 602.08 348.61 598.25 348.63 594.42 348.64 M 533.56 370.63 C 535.35 372.93 537.16 375.21 539.01 377.46 C 540.32 374.97 541.80 372.55 542.78 369.90 C 541.60 367.63 540.11 365.54 538.79 363.36 C 536.99 365.74 535.24 368.16 533.56 370.63 Z" />
<path fill="#fffefe" opacity="1.00" d=" M 112.58 342.46 C 117.65 341.55 122.89 342.49 127.91 341.17 C 129.25 341.78 130.59 342.41 131.92 343.06 C 136.33 342.97 140.99 342.60 145.00 344.84 C 150.07 341.68 156.11 343.92 161.60 342.63 C 166.77 341.42 172.20 342.64 177.29 340.98 C 180.08 341.68 183.00 343.45 182.68 346.75 C 181.43 348.76 179.63 350.35 178.33 352.32 C 175.76 356.34 176.23 361.42 176.73 365.93 C 178.92 367.95 181.60 369.31 184.08 370.94 C 181.79 373.68 179.29 376.31 177.54 379.45 C 177.02 382.72 176.93 386.21 177.75 389.44 C 179.97 393.34 182.66 396.98 184.32 401.19 C 177.09 402.96 169.64 401.80 162.32 402.33 C 161.33 404.57 160.78 406.97 160.05 409.30 C 154.87 409.28 153.19 403.74 150.26 400.46 C 149.42 400.31 148.58 400.17 147.74 400.03 C 144.15 404.67 138.00 402.97 132.97 403.57 C 128.80 404.16 125.16 400.99 120.94 401.83 C 112.26 402.82 103.55 403.49 94.81 403.57 C 93.80 397.48 93.76 391.31 93.80 385.16 C 92.23 385.87 90.81 387.40 88.98 387.19 C 87.34 386.03 86.04 384.46 84.65 383.02 C 84.10 383.19 82.98 383.55 82.43 383.72 C 82.15 389.76 82.32 395.81 82.08 401.86 C 76.44 402.87 70.69 402.49 65.00 402.81 C 61.53 402.87 57.69 403.58 54.83 401.11 C 57.94 398.10 61.60 395.70 64.51 392.49 C 66.73 389.93 66.65 386.35 67.22 383.21 C 68.76 374.18 70.43 365.13 70.91 355.98 C 71.37 351.90 68.08 349.00 66.88 345.40 C 68.70 343.36 71.67 344.09 74.08 344.04 C 77.96 344.43 81.91 344.42 85.73 345.23 C 87.70 346.71 88.49 349.24 89.90 351.20 C 91.64 349.16 92.48 346.25 94.89 344.87 C 100.48 342.42 106.71 343.48 112.58 342.46 M 113.90 347.71 C 115.06 349.72 116.20 351.75 117.37 353.77 C 117.46 358.61 117.57 363.46 117.64 368.31 C 116.05 369.54 114.46 370.76 112.86 371.98 C 114.31 373.19 116.00 374.18 117.14 375.72 C 117.60 379.10 117.83 382.54 117.72 385.96 C 117.72 389.71 115.98 393.11 115.28 396.74 C 119.01 396.00 122.82 395.81 126.62 395.98 C 121.57 390.64 123.16 382.83 122.78 376.19 C 124.41 374.32 126.59 373.11 128.71 371.90 C 126.74 370.66 124.78 369.43 122.82 368.18 C 123.03 361.26 121.34 353.02 126.96 347.67 C 122.61 347.78 118.25 347.78 113.90 347.71 M 150.06 348.48 C 153.76 357.96 151.76 368.24 152.32 378.12 C 149.86 374.77 147.92 371.08 146.58 367.15 C 144.53 361.16 140.10 355.90 140.26 349.27 C 136.75 349.08 133.25 349.28 129.78 349.72 C 131.52 352.33 133.50 355.04 133.64 358.30 C 134.01 364.87 133.55 371.45 133.71 378.02 C 133.71 384.66 134.54 391.65 131.62 397.86 C 135.21 397.52 138.83 397.49 142.43 397.79 C 138.55 388.77 140.69 378.78 140.45 369.30 C 143.37 376.54 147.60 383.16 150.65 390.34 C 152.80 395.17 154.48 400.37 158.14 404.33 C 158.96 387.88 158.22 371.41 158.33 354.95 C 158.01 352.83 159.52 351.24 160.53 349.56 C 157.02 349.46 153.53 349.01 150.06 348.48 M 163.40 347.70 C 164.92 350.29 167.14 352.76 167.13 355.94 C 167.32 359.99 167.25 364.05 167.38 368.10 C 165.66 369.48 163.96 370.88 162.23 372.25 C 163.83 373.18 165.51 374.00 167.04 375.06 C 167.59 380.32 167.17 385.64 167.33 390.93 C 165.97 392.88 164.55 394.81 163.14 396.74 C 167.61 396.27 172.10 395.96 176.59 395.81 C 175.31 394.35 174.03 392.88 172.78 391.39 C 173.04 386.60 171.84 381.74 172.82 377.00 C 173.33 374.26 175.80 372.80 178.10 371.70 C 176.23 370.60 174.36 369.49 172.53 368.34 C 172.58 361.34 170.91 353.01 176.64 347.62 C 172.23 347.81 167.82 347.77 163.40 347.70 M 71.80 348.71 C 73.78 351.50 77.54 354.13 76.64 358.02 C 75.31 363.38 73.51 368.66 73.18 374.22 C 71.90 381.93 72.35 390.58 67.09 396.95 C 70.71 396.69 74.34 396.76 77.97 396.92 C 76.35 385.75 79.33 374.70 81.90 363.92 C 84.70 369.14 87.11 374.55 89.86 379.79 C 92.16 374.29 95.11 369.10 97.37 363.59 C 98.81 374.84 103.47 385.93 101.21 397.41 C 105.41 397.62 109.62 397.34 113.80 396.97 C 113.57 396.74 113.11 396.28 112.88 396.05 C 112.24 395.82 110.96 395.36 110.32 395.13 C 106.10 382.00 104.95 368.17 102.67 354.63 C 104.77 352.46 107.43 350.90 109.50 348.68 C 105.54 348.84 101.62 349.46 97.67 349.66 C 94.78 354.54 93.67 360.56 89.53 364.60 C 86.99 359.62 84.38 354.68 82.32 349.48 C 78.86 348.76 75.33 348.57 71.80 348.71 Z" />
<path fill="#fffefe" opacity="1.00" d=" M 247.25 372.99 C 248.27 368.11 251.50 364.07 253.95 359.83 C 256.03 364.19 259.14 368.20 259.94 373.07 C 258.78 378.11 256.18 382.70 253.53 387.10 C 251.15 382.59 247.82 378.18 247.25 372.99 M 249.07 373.98 C 250.58 376.42 252.10 378.86 253.72 381.23 C 255.30 378.72 256.92 376.23 258.60 373.78 C 257.09 371.11 255.57 368.46 254.05 365.80 C 252.38 368.52 250.74 371.26 249.07 373.98 Z" />
<path fill="#fffefe" opacity="1.00" d=" M 567.58 379.74 C 569.76 374.91 571.31 369.83 573.15 364.87 C 574.94 369.99 576.49 375.19 577.75 380.47 C 574.35 380.31 570.96 380.06 567.58 379.74 Z" />
<path fill="#fffefe" opacity="1.00" d=" M 391.99 366.48 C 392.31 366.46 392.95 366.41 393.27 366.39 C 394.72 371.08 396.25 375.75 397.24 380.57 C 393.87 380.34 390.51 380.07 387.16 379.75 C 389.06 375.44 390.73 371.02 391.99 366.48 Z" />
<path fill="#fffefe" opacity="1.00" d=" M 321.33 429.42 C 329.56 427.67 337.43 423.65 346.05 424.18 C 352.05 424.64 358.05 425.26 364.01 426.12 C 367.35 426.51 369.55 429.46 372.72 430.31 C 392.56 436.41 413.52 434.81 433.97 434.54 C 445.00 434.26 456.02 434.12 467.05 433.90 C 472.74 433.86 478.39 432.92 484.09 433.16 C 514.73 434.56 545.39 433.01 576.04 433.18 C 592.17 433.58 608.07 430.41 623.97 428.16 C 630.64 427.62 637.35 427.84 644.04 427.82 C 646.84 427.79 650.45 428.51 651.43 431.57 C 652.76 436.49 651.08 441.72 652.34 446.65 C 654.04 450.29 659.17 450.29 661.17 453.77 C 662.90 456.38 661.58 460.35 658.64 461.41 C 654.91 462.68 650.94 462.85 647.08 463.42 C 641.09 464.16 634.97 464.99 628.97 463.88 C 622.31 462.53 615.55 461.73 608.90 460.33 C 588.10 456.96 566.97 458.55 546.01 458.25 C 513.35 458.38 480.69 457.65 448.02 457.86 C 436.26 457.92 424.49 457.93 412.74 458.71 C 403.79 459.23 394.81 458.45 385.87 459.11 C 381.60 459.29 378.08 462.07 373.96 462.84 C 361.51 465.57 348.63 468.94 335.85 466.41 C 330.17 464.54 324.64 462.04 318.61 461.50 C 311.75 460.71 304.93 459.57 298.05 458.94 C 268.35 458.65 238.64 458.93 208.94 459.41 C 190.95 460.10 172.95 459.40 154.97 460.03 C 143.28 460.27 131.57 458.26 119.92 459.91 C 109.95 461.25 99.80 460.29 89.93 462.42 C 82.31 463.35 74.69 465.13 66.98 464.57 C 62.58 464.42 58.13 464.98 53.80 463.97 C 46.32 462.42 38.02 462.97 31.57 458.26 C 32.00 456.27 31.37 453.64 33.23 452.27 C 35.93 449.86 39.69 449.47 42.99 448.38 C 43.87 443.23 40.32 439.18 37.08 435.72 C 37.97 434.43 38.42 432.58 40.01 431.97 C 46.51 429.46 53.58 430.50 60.32 429.35 C 63.54 428.88 66.77 429.35 69.97 429.72 C 89.65 431.65 109.12 436.56 129.00 435.71 C 142.96 435.13 156.97 436.77 170.89 435.30 C 192.56 433.55 214.28 435.90 235.97 435.36 C 256.60 434.04 277.29 436.02 297.91 434.69 C 306.03 434.46 313.48 431.06 321.33 429.42 M 335.10 431.31 C 326.57 434.39 317.53 435.65 309.03 438.80 C 290.91 442.50 272.32 440.54 253.99 440.62 C 245.98 440.49 237.99 441.37 229.98 441.26 C 210.38 441.38 190.75 439.25 171.18 441.09 C 156.81 442.41 142.39 440.85 128.00 441.43 C 105.72 442.43 84.04 435.74 61.87 435.02 C 57.18 436.83 51.87 434.72 47.19 436.68 C 45.89 436.70 44.59 436.71 43.29 436.72 C 43.93 437.61 44.56 438.52 45.17 439.44 C 45.85 440.50 46.51 441.59 47.09 442.72 C 48.12 443.80 49.17 444.85 50.26 445.87 C 52.25 446.26 52.95 448.02 53.45 449.77 C 50.03 449.79 46.80 450.84 43.56 451.80 C 40.44 452.79 40.16 456.43 42.91 458.05 C 45.61 458.61 48.24 459.69 51.04 459.59 C 64.07 459.65 77.14 458.90 89.97 456.52 C 99.16 454.77 108.56 455.27 117.82 454.38 C 130.83 452.47 143.95 454.48 157.01 454.25 C 172.01 453.46 187.04 454.17 202.05 453.78 C 231.68 453.42 261.32 452.70 290.96 453.00 C 294.62 453.07 298.31 452.87 301.93 453.53 C 311.21 455.08 320.76 455.32 329.79 458.21 C 332.88 459.14 335.71 460.96 339.01 461.20 C 350.85 462.67 362.56 459.55 374.03 457.02 C 376.32 456.62 377.92 454.63 380.21 454.24 C 391.09 452.05 402.22 453.44 413.22 452.85 C 442.48 451.55 471.77 451.92 501.04 452.30 C 525.71 452.66 550.38 452.65 575.04 452.43 C 588.47 452.41 602.03 452.80 615.18 455.79 C 618.79 456.63 622.52 456.66 626.13 457.46 C 636.36 460.41 646.94 457.26 657.22 456.28 C 655.18 455.81 653.18 455.26 651.24 454.51 L 651.20 454.01 C 649.27 453.73 648.33 452.16 647.46 450.64 C 645.23 445.22 646.30 439.21 646.21 433.52 C 639.20 433.56 632.19 433.39 625.19 433.76 C 612.77 435.49 600.42 437.79 587.90 438.68 C 580.62 439.28 573.31 438.96 566.02 439.10 C 537.70 439.12 509.37 439.88 481.05 439.01 C 458.73 440.19 436.38 440.22 414.04 440.56 C 398.87 441.13 383.50 439.71 369.00 435.06 C 366.40 434.46 364.81 431.68 362.06 431.58 C 353.14 430.75 343.91 428.68 335.10 431.31 Z" />
<path fill="#fffefe" opacity="1.00" d=" M 343.75 442.59 C 346.35 442.12 350.02 441.27 351.53 444.19 C 353.14 446.24 352.05 449.56 349.64 450.42 C 347.35 451.19 344.05 450.66 343.11 448.15 C 342.04 446.33 343.28 444.37 343.75 442.59 Z" />
</g>
<g id="#000000ff">
<path fill="#000000" opacity="1.00" d=" M 314.75 45.97 C 322.79 43.76 330.84 41.61 338.88 39.40 C 346.56 38.22 354.30 39.78 361.91 40.80 C 364.92 41.07 366.95 43.71 369.86 44.37 C 396.51 52.53 424.62 48.66 451.99 49.01 C 463.69 49.42 475.36 47.71 487.06 48.23 C 513.71 49.08 540.37 48.12 567.02 48.02 C 574.69 48.02 582.38 48.29 590.04 47.57 C 608.83 45.89 627.32 40.93 646.29 41.29 C 646.27 46.92 645.73 52.62 646.71 58.19 C 648.61 60.37 650.28 62.83 650.73 65.74 C 651.06 65.83 651.73 66.00 652.07 66.09 C 640.12 68.59 627.73 67.46 615.91 64.82 C 592.27 59.82 567.98 61.73 544.01 61.58 C 490.67 61.41 437.29 59.89 383.99 62.67 C 380.29 62.84 376.97 64.66 373.47 65.66 C 361.56 69.57 348.56 72.45 336.16 69.12 C 323.54 65.03 310.27 63.47 297.13 62.09 C 275.10 61.87 253.04 61.68 231.02 62.52 C 204.67 63.19 178.30 62.41 151.95 63.15 C 141.65 63.30 131.31 61.66 121.04 63.04 C 112.09 64.52 102.93 63.35 94.00 65.01 C 76.42 68.12 58.49 69.32 40.65 68.41 C 40.86 66.05 41.07 63.69 41.28 61.33 C 44.72 59.72 48.41 58.84 52.15 58.25 C 48.91 55.97 44.87 53.33 44.27 49.11 L 43.99 49.17 C 43.45 47.97 42.88 46.78 42.26 45.62 C 47.35 44.10 52.83 45.34 57.78 43.35 C 82.96 44.61 107.66 51.89 133.00 50.41 C 144.34 49.87 155.69 51.57 167.02 50.44 C 181.96 48.90 197.03 48.98 212.00 50.05 C 228.34 51.22 244.68 49.35 261.02 49.53 C 278.92 49.84 297.45 51.76 314.75 45.97 M 342.84 49.70 C 342.31 51.77 341.02 54.00 342.14 56.11 C 342.73 57.67 344.41 58.36 345.62 59.37 C 346.60 59.38 347.59 59.40 348.58 59.43 C 350.80 57.49 352.60 54.12 350.79 51.34 C 349.12 48.50 345.52 49.51 342.84 49.70 Z" />
<path fill="#000000" opacity="1.00" d=" M 279.38 105.18 C 280.05 103.62 281.56 102.73 282.78 101.66 C 286.75 108.70 290.51 115.93 293.28 123.53 C 295.28 127.32 298.36 130.39 300.56 134.05 C 301.28 136.35 301.30 138.78 301.60 141.15 C 305.73 145.86 308.60 151.55 310.44 157.51 C 313.74 162.45 313.63 168.89 317.66 173.46 C 319.47 176.27 318.71 179.95 320.42 182.81 C 324.51 190.12 325.53 199.08 331.08 205.57 C 330.92 209.60 327.80 212.49 325.86 215.78 C 323.51 218.79 322.59 222.55 320.88 225.90 C 318.44 229.81 318.88 234.63 318.16 239.02 C 315.12 240.14 312.44 242.06 310.58 244.73 C 309.98 249.43 310.31 254.29 308.99 258.91 C 308.65 260.40 306.73 260.43 305.68 261.16 C 301.97 266.53 299.45 272.68 298.17 279.08 C 297.60 282.78 294.94 285.53 292.58 288.22 C 292.99 293.24 289.32 297.12 287.06 301.23 C 285.15 304.82 283.24 308.42 280.99 311.83 C 277.80 302.11 272.72 293.23 267.41 284.54 C 265.69 282.05 265.79 278.89 264.59 276.19 C 263.55 273.82 261.63 271.95 260.62 269.57 C 259.12 265.76 259.30 261.44 257.29 257.81 C 255.17 253.85 253.39 249.73 251.34 245.74 C 250.07 241.51 249.46 236.90 246.75 233.26 C 242.51 227.59 239.22 221.27 236.17 214.91 C 234.97 207.07 235.06 197.46 241.69 191.90 C 241.73 186.74 245.21 182.56 247.22 178.02 C 247.58 172.64 250.88 168.19 252.13 163.04 C 255.98 155.87 258.70 148.21 261.83 140.70 C 264.26 135.07 265.04 128.75 268.48 123.57 C 272.21 117.50 276.41 111.68 279.38 105.18 M 280.62 159.05 C 280.08 162.84 279.55 166.91 276.89 169.89 C 270.96 176.46 268.40 185.09 265.18 193.14 C 263.40 197.19 261.25 201.08 259.44 205.13 C 261.87 209.50 263.18 214.36 265.22 218.91 C 265.26 220.26 265.29 221.61 265.34 222.96 C 269.40 227.67 273.60 232.66 274.99 238.89 C 276.78 243.75 277.43 249.33 281.15 253.23 C 283.58 248.29 286.25 243.27 286.90 237.72 C 288.72 236.24 290.57 234.80 292.46 233.40 C 292.11 229.38 292.65 225.24 294.96 221.83 C 298.27 215.27 303.13 208.37 301.56 200.65 C 298.42 191.48 294.40 182.61 289.77 174.10 C 286.75 169.05 284.55 163.52 280.62 159.05 Z" />
<path fill="#000000" opacity="1.00" d=" M 472.04 104.14 C 473.62 104.47 475.79 104.36 476.34 106.29 C 477.86 110.94 480.91 115.12 480.92 120.19 C 483.99 126.39 486.78 132.97 486.76 140.02 C 489.83 148.22 493.69 156.63 493.11 165.64 C 493.82 166.19 494.54 166.73 495.26 167.28 C 495.51 170.18 495.79 173.13 497.04 175.79 C 499.44 180.93 498.85 187.77 504.25 191.14 C 504.50 194.51 504.73 197.89 504.83 201.27 C 507.86 205.62 509.30 210.75 510.21 215.91 C 510.90 220.94 510.94 226.17 513.10 230.87 C 519.04 229.21 525.12 226.03 527.65 220.05 C 529.85 220.14 532.06 220.20 534.27 220.25 C 534.18 232.77 535.83 245.47 533.54 257.88 C 526.87 259.04 525.17 250.01 518.80 250.05 C 519.39 253.34 520.39 256.58 522.23 259.41 C 521.92 270.36 530.07 278.65 536.15 286.85 C 536.18 287.76 536.22 289.58 536.25 290.49 C 523.49 291.67 510.64 291.66 497.88 290.53 C 498.56 286.50 500.58 282.59 499.82 278.43 C 498.80 272.61 500.41 266.41 497.94 260.87 C 496.42 257.73 496.17 254.22 495.50 250.85 C 480.56 249.75 465.58 250.15 450.63 250.63 C 448.19 254.42 447.94 258.97 447.35 263.30 C 446.51 267.26 445.91 271.29 444.65 275.15 C 445.21 280.56 448.65 284.94 449.91 290.09 C 436.30 292.05 422.46 291.26 408.78 290.43 C 408.47 290.08 407.85 289.38 407.53 289.03 C 409.23 286.85 411.13 284.82 412.74 282.57 C 415.83 278.35 420.20 274.99 422.30 270.10 C 423.80 267.49 420.83 264.80 422.25 262.19 C 424.38 257.18 426.25 252.06 428.34 247.03 C 423.34 250.72 419.88 257.99 412.63 256.98 C 412.29 243.90 414.23 230.76 412.52 217.74 C 413.72 217.50 414.93 217.26 416.14 217.03 C 419.47 220.08 423.25 222.56 426.75 225.40 C 428.76 227.44 431.89 226.52 434.46 226.80 C 436.63 222.11 434.90 216.73 436.94 212.00 C 438.34 210.18 436.85 208.55 436.09 206.90 C 436.92 208.21 437.72 209.54 438.57 210.84 C 439.76 210.17 440.96 209.50 442.17 208.84 C 445.58 201.34 447.07 193.18 449.22 185.27 C 449.58 182.53 450.42 179.46 448.76 176.98 C 449.12 175.93 449.47 174.87 449.81 173.82 C 452.25 167.36 454.23 160.74 456.07 154.09 C 457.01 149.77 459.34 145.91 460.26 141.59 C 460.98 137.80 462.42 134.22 463.38 130.50 C 464.80 125.44 467.76 120.96 468.99 115.83 C 469.99 111.93 471.10 108.06 472.04 104.14 M 472.41 179.29 C 471.61 183.97 470.06 188.47 469.08 193.12 L 468.73 193.68 C 468.55 194.82 468.37 195.96 468.20 197.10 C 467.73 198.71 467.39 200.35 467.05 201.99 C 466.62 203.60 466.26 205.24 465.82 206.86 C 464.52 211.11 463.51 215.44 462.65 219.80 C 461.37 222.81 459.03 225.19 456.80 227.52 C 467.52 227.83 478.24 229.21 488.98 228.41 C 487.02 223.65 486.39 218.51 484.54 213.72 C 480.95 203.91 480.51 192.97 475.53 183.69 C 475.50 182.18 475.51 180.68 475.52 179.17 C 474.74 179.20 473.18 179.26 472.41 179.29 Z" />
<path fill="#000000" opacity="1.00" d=" M 364.64 111.99 C 367.89 111.36 371.16 110.40 374.50 110.82 C 385.71 112.08 397.09 110.26 408.25 112.17 C 408.37 114.66 409.69 117.62 407.72 119.70 C 405.25 122.77 402.75 125.81 400.50 129.04 C 400.66 138.37 399.83 147.67 400.16 157.00 C 399.79 163.33 400.07 169.66 400.14 176.00 C 400.12 178.32 400.12 180.65 400.13 182.98 C 400.14 189.66 400.09 196.33 400.16 203.01 C 399.50 224.99 400.05 247.00 399.87 269.00 C 400.48 274.71 395.18 278.66 390.77 281.15 C 381.69 288.57 373.78 297.29 364.81 304.83 C 360.32 308.20 357.52 313.37 352.60 316.24 C 350.90 320.29 349.54 324.46 348.12 328.61 C 346.48 328.56 344.85 328.50 343.22 328.39 C 342.11 325.76 340.60 323.34 338.77 321.16 C 334.91 316.47 332.97 310.53 328.98 305.93 C 327.38 303.91 325.20 302.47 323.55 300.51 C 322.77 298.94 322.73 297.16 322.45 295.47 C 328.03 294.41 333.73 294.99 339.34 294.28 C 342.26 291.90 346.24 291.58 349.16 289.23 C 352.02 287.09 354.58 284.58 357.42 282.42 C 364.61 276.84 369.21 268.68 376.44 263.15 C 376.49 252.11 376.53 241.07 376.77 230.03 C 376.88 225.56 377.51 221.09 379.25 216.95 C 378.32 212.99 376.51 209.17 376.53 205.04 C 376.40 183.71 376.70 162.38 376.39 141.05 C 376.33 139.43 376.41 137.76 375.72 136.26 C 373.31 129.86 369.99 123.59 364.84 118.98 C 364.75 116.65 364.68 114.32 364.64 111.99 Z" />
<path fill="#000000" opacity="1.00" d=" M 113.43 119.40 C 117.69 117.37 122.05 114.99 126.90 115.00 C 137.91 114.83 148.92 115.23 159.93 114.96 C 164.51 115.04 169.31 114.50 173.65 116.28 C 177.19 117.93 181.18 117.80 184.99 118.19 C 187.50 118.47 189.52 116.81 191.29 115.28 C 194.69 115.08 198.24 115.02 201.39 116.52 C 206.01 118.88 211.35 117.02 216.14 118.69 C 216.51 120.13 216.91 121.56 217.36 122.98 C 214.44 130.24 211.07 137.33 208.71 144.81 C 206.98 150.19 203.95 155.10 199.87 159.02 C 200.35 165.90 194.25 170.53 193.10 176.97 C 192.08 182.09 187.92 185.84 186.81 190.92 C 184.43 199.71 180.37 208.03 174.99 215.37 C 182.32 224.50 186.08 236.13 194.62 244.34 C 200.35 249.44 202.25 257.74 208.97 261.90 C 216.46 267.01 221.79 274.73 229.59 279.37 C 231.46 280.81 233.12 282.51 234.76 284.21 C 234.64 285.24 234.52 286.28 234.40 287.31 C 223.30 289.02 212.07 287.27 200.94 288.39 C 196.66 288.76 192.41 288.04 188.19 287.47 C 188.18 283.46 188.11 279.47 188.18 275.47 C 186.07 273.01 183.87 270.61 182.12 267.87 C 176.80 260.79 170.80 254.09 166.82 246.11 C 165.18 243.01 163.00 240.25 161.05 237.35 C 160.45 237.16 159.25 236.78 158.65 236.60 C 157.70 233.32 156.86 229.91 154.81 227.11 C 153.02 225.00 150.60 223.56 148.34 222.03 C 147.74 216.81 150.90 212.40 154.57 209.09 C 154.91 207.57 155.11 206.01 155.71 204.57 C 159.39 196.91 161.27 188.53 164.90 180.85 C 167.11 177.81 169.72 175.01 171.37 171.59 C 172.93 168.17 172.40 164.24 173.63 160.72 C 174.92 158.69 176.76 157.09 178.37 155.33 C 179.25 151.93 180.66 148.70 182.17 145.54 C 178.85 144.24 175.53 142.93 172.18 141.68 C 171.08 141.54 169.98 141.41 168.88 141.27 C 168.41 142.67 167.92 144.07 167.42 145.46 C 162.27 145.80 157.72 143.26 153.19 141.22 C 151.56 142.87 149.90 144.49 148.21 146.07 C 148.22 163.39 148.51 180.71 148.18 198.03 C 148.22 200.92 146.20 203.29 145.73 206.08 C 144.64 212.18 146.89 218.15 147.90 224.09 C 148.97 229.01 148.01 234.04 148.25 239.01 C 148.46 246.08 149.23 253.43 146.48 260.14 C 149.09 263.95 148.24 268.61 148.43 272.93 C 149.91 276.80 151.41 280.87 154.79 283.52 C 154.31 284.79 153.81 286.06 153.31 287.33 C 141.66 288.72 129.86 288.12 118.17 287.55 C 118.26 281.97 121.80 277.58 124.62 273.11 C 124.88 263.78 124.66 254.44 124.83 245.10 C 125.76 238.44 126.25 231.45 124.85 224.84 C 124.37 218.34 125.28 211.77 124.31 205.30 C 123.17 200.96 121.80 196.58 122.05 192.03 C 121.83 186.53 124.95 181.57 124.74 176.08 C 124.75 167.04 124.75 158.00 124.75 148.96 C 124.92 143.23 122.45 137.90 121.68 132.30 C 117.78 128.96 112.41 125.31 113.43 119.40 Z" />
<path fill="#000000" opacity="1.00" d=" M 280.27 180.28 C 281.08 178.71 283.91 178.47 284.43 180.40 C 289.02 188.65 293.66 196.95 297.01 205.80 C 291.52 214.68 287.25 224.26 282.12 233.34 C 281.56 233.74 280.44 234.53 279.87 234.93 C 276.43 225.19 271.24 216.18 267.20 206.69 C 267.24 205.19 267.98 203.83 268.68 202.55 C 273.32 195.56 276.24 187.61 280.27 180.28 Z" />
<path fill="#000000" opacity="1.00" d=" M 514.06 344.09 C 516.20 348.41 518.36 352.74 521.14 356.70 C 515.71 356.04 510.58 358.25 506.05 361.02 C 508.05 364.18 510.03 367.36 511.85 370.63 C 514.50 370.27 517.13 369.74 519.77 369.31 C 519.85 371.92 519.92 374.53 519.98 377.14 C 518.32 376.36 516.66 375.57 515.00 374.83 C 516.79 379.06 519.00 383.10 521.19 387.14 C 514.95 391.59 506.44 393.69 502.88 401.13 C 501.67 396.25 498.43 392.49 494.60 389.41 C 497.08 389.37 499.57 389.32 502.06 389.22 C 505.48 388.22 508.79 386.85 511.87 385.03 C 510.17 382.11 508.57 379.11 506.66 376.32 C 503.54 376.38 500.58 377.79 497.52 378.36 C 497.56 375.68 497.61 372.99 497.67 370.32 C 499.59 370.37 501.51 370.44 503.45 370.51 C 500.71 366.63 498.16 362.63 495.67 358.59 C 500.62 355.96 505.53 353.26 510.53 350.72 C 513.12 349.58 513.40 346.48 514.06 344.09 Z" />
<path fill="#000000" opacity="1.00" d=" M 241.03 371.89 C 245.02 362.54 248.65 352.97 253.91 344.24 C 259.14 353.88 263.87 363.78 267.98 373.95 C 264.19 381.29 260.43 388.65 257.24 396.27 C 256.25 398.62 254.88 400.79 253.62 403.00 C 249.44 393.75 245.15 384.54 240.59 375.47 C 239.77 374.30 240.66 373.02 241.03 371.89 M 247.25 372.99 C 247.82 378.18 251.15 382.59 253.53 387.10 C 256.18 382.70 258.78 378.11 259.94 373.07 C 259.14 368.20 256.03 364.19 253.95 359.83 C 251.50 364.07 248.27 368.11 247.25 372.99 Z" />
<path fill="#000000" opacity="1.00" d=" M 572.74 345.01 C 576.54 350.48 577.13 357.29 579.35 363.41 C 581.42 369.19 583.87 374.89 584.79 381.01 C 587.00 379.88 589.22 378.76 591.44 377.64 C 591.36 381.02 591.38 384.40 591.41 387.78 C 589.64 386.85 587.86 385.92 586.08 385.06 C 587.21 389.31 589.14 393.30 591.66 396.90 C 588.28 396.87 584.91 396.87 581.54 396.91 C 581.60 393.09 581.14 389.30 580.27 385.59 C 575.47 385.50 570.67 385.48 565.88 385.60 C 565.32 389.33 564.89 393.10 565.32 396.88 C 561.80 396.87 558.29 396.86 554.79 396.91 C 557.21 393.00 558.86 388.68 560.12 384.27 C 558.29 385.53 556.47 386.80 554.66 388.08 C 554.87 384.32 554.96 380.56 554.89 376.79 C 557.04 377.96 559.21 379.11 561.39 380.26 C 564.24 368.21 569.55 356.95 572.74 345.01 M 567.58 379.74 C 570.96 380.06 574.35 380.31 577.75 380.47 C 576.49 375.19 574.94 369.99 573.15 364.87 C 571.31 369.83 569.76 374.91 567.58 379.74 Z" />
<path fill="#000000" opacity="1.00" d=" M 315.37 347.61 C 324.17 347.65 333.13 349.24 341.74 346.60 C 341.57 349.96 341.49 353.32 341.50 356.69 C 336.00 353.87 329.74 354.91 323.83 354.39 C 323.18 357.48 322.53 360.58 322.14 363.72 C 325.16 364.27 328.23 364.48 331.29 364.70 C 332.99 363.13 334.74 361.60 336.51 360.11 C 336.51 365.45 336.45 370.84 335.42 376.10 C 334.06 374.18 332.75 372.24 331.42 370.31 C 328.40 370.43 325.38 370.55 322.37 370.67 C 322.94 372.87 322.11 376.14 324.56 377.36 C 331.07 381.45 336.87 386.70 344.05 389.66 C 341.97 392.08 340.05 394.63 338.15 397.19 C 333.35 388.36 323.04 385.50 316.23 378.74 C 316.12 375.98 316.60 373.24 316.71 370.49 C 313.66 370.72 311.54 372.73 309.66 374.91 C 309.76 370.37 309.58 365.84 309.16 361.33 C 311.65 362.81 314.20 364.20 316.83 365.43 C 316.67 359.46 316.10 353.52 315.37 347.61 Z" />
<path fill="#000000" opacity="1.00" d=" M 392.54 345.28 C 395.61 350.56 396.57 356.67 398.39 362.43 C 400.23 368.70 403.27 374.57 404.51 381.03 C 406.60 379.89 408.70 378.78 410.79 377.64 C 410.75 381.02 410.78 384.40 410.75 387.78 C 409.08 386.86 407.44 385.94 405.75 385.07 C 406.80 389.31 408.74 393.25 411.20 396.84 C 407.76 396.90 404.31 396.92 400.87 396.80 C 400.94 393.03 400.77 389.25 399.91 385.58 C 395.16 385.49 390.40 385.52 385.65 385.54 C 384.65 389.25 384.39 393.09 384.71 396.91 C 381.26 396.86 377.81 396.86 374.37 396.91 C 376.70 393.02 378.36 388.79 379.70 384.48 C 377.88 385.62 376.10 386.81 374.29 387.97 C 374.48 384.25 374.58 380.52 374.52 376.79 C 376.68 377.97 378.86 379.13 381.07 380.23 C 383.67 368.19 389.15 357.07 392.54 345.28 M 391.99 366.48 C 390.73 371.02 389.06 375.44 387.16 379.75 C 390.51 380.07 393.87 380.34 397.24 380.57 C 396.25 375.75 394.72 371.08 393.27 366.39 C 392.95 366.41 392.31 366.46 391.99 366.48 Z" />
<path fill="#000000" opacity="1.00" d=" M 113.90 347.71 C 118.25 347.78 122.61 347.78 126.96 347.67 C 121.34 353.02 123.03 361.26 122.82 368.18 C 124.78 369.43 126.74 370.66 128.71 371.90 C 126.59 373.11 124.41 374.32 122.78 376.19 C 123.16 382.83 121.57 390.64 126.62 395.98 C 122.82 395.81 119.01 396.00 115.28 396.74 C 115.98 393.11 117.72 389.71 117.72 385.96 C 117.83 382.54 117.60 379.10 117.14 375.72 C 116.00 374.18 114.31 373.19 112.86 371.98 C 114.46 370.76 116.05 369.54 117.64 368.31 C 117.57 363.46 117.46 358.61 117.37 353.77 C 116.20 351.75 115.06 349.72 113.90 347.71 Z" />
<path fill="#000000" opacity="1.00" d=" M 150.06 348.48 C 153.53 349.01 157.02 349.46 160.53 349.56 C 159.52 351.24 158.01 352.83 158.33 354.95 C 158.22 371.41 158.96 387.88 158.14 404.33 C 154.48 400.37 152.80 395.17 150.65 390.34 C 147.60 383.16 143.37 376.54 140.45 369.30 C 140.69 378.78 138.55 388.77 142.43 397.79 C 138.83 397.49 135.21 397.52 131.62 397.86 C 134.54 391.65 133.71 384.66 133.71 378.02 C 133.55 371.45 134.01 364.87 133.64 358.30 C 133.50 355.04 131.52 352.33 129.78 349.72 C 133.25 349.28 136.75 349.08 140.26 349.27 C 140.10 355.90 144.53 361.16 146.58 367.15 C 147.92 371.08 149.86 374.77 152.32 378.12 C 151.76 368.24 153.76 357.96 150.06 348.48 Z" />
<path fill="#000000" opacity="1.00" d=" M 163.40 347.70 C 167.82 347.77 172.23 347.81 176.64 347.62 C 170.91 353.01 172.58 361.34 172.53 368.34 C 174.36 369.49 176.23 370.60 178.10 371.70 C 175.80 372.80 173.33 374.26 172.82 377.00 C 171.84 381.74 173.04 386.60 172.78 391.39 C 174.03 392.88 175.31 394.35 176.59 395.81 C 172.10 395.96 167.61 396.27 163.14 396.74 C 164.55 394.81 165.97 392.88 167.33 390.93 C 167.17 385.64 167.59 380.32 167.04 375.06 C 165.51 374.00 163.83 373.18 162.23 372.25 C 163.96 370.88 165.66 369.48 167.38 368.10 C 167.25 364.05 167.32 359.99 167.13 355.94 C 167.14 352.76 164.92 350.29 163.40 347.70 Z" />
<path fill="#000000" opacity="1.00" d=" M 269.80 347.72 C 274.80 347.83 279.79 347.80 284.78 347.76 C 283.38 349.40 281.98 351.05 280.61 352.71 C 282.68 361.60 285.08 370.46 288.70 378.85 C 291.96 370.84 294.99 362.56 295.86 353.90 C 295.21 351.62 293.90 349.60 292.82 347.52 C 297.85 347.95 302.92 348.65 307.94 347.68 C 305.96 349.88 303.70 352.04 302.94 355.02 C 298.02 369.93 293.61 385.01 289.09 400.05 C 285.56 396.29 285.62 390.95 283.81 386.41 C 279.08 373.56 278.74 358.76 269.80 347.72 Z" />
<path fill="#000000" opacity="1.00" d=" M 439.30 347.74 C 444.33 347.78 449.38 347.63 454.38 348.34 C 453.01 349.80 451.32 351.06 450.36 352.85 C 452.13 361.80 455.07 370.47 458.04 379.08 C 461.56 371.80 463.86 363.98 465.21 356.02 C 466.07 352.86 463.60 350.20 462.42 347.49 C 465.97 347.72 469.50 348.21 473.07 348.26 C 474.52 348.01 475.99 347.76 477.46 347.54 C 476.03 349.40 474.26 351.05 473.24 353.20 C 467.79 368.60 463.65 384.45 458.55 399.96 C 454.82 395.80 455.08 389.95 453.03 385.03 C 448.38 372.65 448.22 358.22 439.30 347.74 Z" />
<path fill="#000000" opacity="1.00" d=" M 479.17 347.70 C 483.55 347.77 487.93 347.82 492.31 347.63 C 486.72 353.07 488.34 361.37 488.49 368.35 C 490.18 369.70 492.09 370.71 493.93 371.84 C 492.55 372.52 491.19 373.22 489.84 373.92 C 486.94 379.36 488.96 385.64 488.55 391.48 C 489.81 392.92 491.06 394.36 492.32 395.80 C 487.85 395.97 483.39 396.29 478.95 396.71 C 480.36 394.27 483.22 392.20 482.88 389.08 C 482.90 384.35 482.85 379.62 482.75 374.90 C 481.31 373.80 478.69 373.52 478.21 371.64 C 479.83 370.44 481.55 369.37 483.21 368.21 C 482.71 363.51 482.88 358.79 482.60 354.09 C 482.05 351.71 480.32 349.80 479.17 347.70 Z" />
<path fill="#000000" opacity="1.00" d=" M 523.69 347.53 C 526.90 348.54 530.26 348.77 533.61 348.92 C 532.53 354.56 532.20 360.31 531.78 366.03 C 531.61 372.33 532.47 378.60 532.59 384.90 C 536.44 386.46 540.26 388.12 544.13 389.65 C 543.82 375.98 545.62 362.18 543.00 348.64 C 546.05 348.65 549.10 348.73 552.17 348.78 C 551.43 351.45 550.08 354.07 550.33 356.92 C 550.91 364.60 550.19 372.30 550.72 379.98 C 551.18 385.41 549.36 391.24 552.43 396.20 C 541.96 398.39 533.36 390.92 523.92 387.99 C 527.59 380.85 526.09 372.67 525.77 365.01 C 525.66 359.14 526.14 353.04 523.69 347.53 Z" />
<path fill="#000000" opacity="1.00" d=" M 71.80 348.71 C 75.33 348.57 78.86 348.76 82.32 349.48 C 84.38 354.68 86.99 359.62 89.53 364.60 C 93.67 360.56 94.78 354.54 97.67 349.66 C 101.62 349.46 105.54 348.84 109.50 348.68 C 107.43 350.90 104.77 352.46 102.67 354.63 C 104.95 368.17 106.10 382.00 110.32 395.13 C 110.96 395.36 112.24 395.82 112.88 396.05 C 113.11 396.28 113.57 396.74 113.80 396.97 C 109.62 397.34 105.41 397.62 101.21 397.41 C 103.47 385.93 98.81 374.84 97.37 363.59 C 95.11 369.10 92.16 374.29 89.86 379.79 C 87.11 374.55 84.70 369.14 81.90 363.92 C 79.33 374.70 76.35 385.75 77.97 396.92 C 74.34 396.76 70.71 396.69 67.09 396.95 C 72.35 390.58 71.90 381.93 73.18 374.22 C 73.51 368.66 75.31 363.38 76.64 358.02 C 77.54 354.13 73.78 351.50 71.80 348.71 Z" />
<path fill="#000000" opacity="1.00" d=" M 206.30 349.48 C 209.87 349.22 213.45 349.17 217.03 349.34 C 217.16 352.03 217.37 354.83 218.70 357.25 C 222.36 364.05 224.59 371.51 228.42 378.23 C 228.56 368.32 230.15 357.97 226.69 348.43 C 230.03 348.88 233.36 349.37 236.73 349.55 C 233.02 360.72 235.77 372.52 235.28 383.99 C 234.88 390.80 235.76 397.71 234.24 404.44 C 228.08 392.95 223.11 380.86 216.92 369.39 C 217.31 378.82 215.28 388.65 218.98 397.67 C 215.42 397.54 211.86 397.54 208.31 397.77 C 209.31 394.93 210.60 392.10 210.58 389.04 C 210.54 379.07 210.63 369.09 210.50 359.13 C 210.60 355.43 208.09 352.47 206.30 349.48 Z" />
<path fill="#000000" opacity="1.00" d=" M 346.43 348.66 C 350.23 348.65 354.04 348.61 357.84 348.65 C 356.32 351.91 354.60 355.30 354.79 359.01 C 354.86 369.11 354.88 379.20 354.85 389.30 C 360.77 389.74 368.00 391.30 372.34 386.05 C 372.08 389.57 371.83 393.10 371.68 396.63 C 362.93 395.47 354.10 396.06 345.31 395.93 C 346.68 393.42 349.07 391.12 348.68 388.02 C 348.45 382.03 349.71 376.05 348.92 370.08 C 348.39 362.92 349.50 355.41 346.43 348.66 Z" />
<path fill="#000000" opacity="1.00" d=" M 594.42 348.64 C 598.25 348.63 602.08 348.61 605.92 348.67 C 604.49 351.60 602.94 354.60 602.88 357.94 C 602.61 368.35 603.00 378.76 602.76 389.16 C 605.54 389.45 608.32 389.72 611.09 390.18 C 614.46 389.86 617.75 388.71 620.02 386.08 C 619.92 389.53 619.89 392.98 619.84 396.44 C 611.01 395.63 602.14 396.03 593.29 395.89 C 594.48 393.70 596.73 391.80 596.62 389.11 C 596.90 375.63 598.47 361.76 594.42 348.64 Z" />
<path fill="#000000" opacity="1.00" d=" M 533.56 370.63 C 535.24 368.16 536.99 365.74 538.79 363.36 C 540.11 365.54 541.60 367.63 542.78 369.90 C 541.80 372.55 540.32 374.97 539.01 377.46 C 537.16 375.21 535.35 372.93 533.56 370.63 Z" />
<path fill="#000000" opacity="1.00" d=" M 249.07 373.98 C 250.74 371.26 252.38 368.52 254.05 365.80 C 255.57 368.46 257.09 371.11 258.60 373.78 C 256.92 376.23 255.30 378.72 253.72 381.23 C 252.10 378.86 250.58 376.42 249.07 373.98 Z" />
<path fill="#000000" opacity="1.00" d=" M 335.10 431.31 C 343.91 428.68 353.14 430.75 362.06 431.58 C 364.81 431.68 366.40 434.46 369.00 435.06 C 383.50 439.71 398.87 441.13 414.04 440.56 C 436.38 440.22 458.73 440.19 481.05 439.01 C 509.37 439.88 537.70 439.12 566.02 439.10 C 573.31 438.96 580.62 439.28 587.90 438.68 C 600.42 437.79 612.77 435.49 625.19 433.76 C 632.19 433.39 639.20 433.56 646.21 433.52 C 646.30 439.21 645.23 445.22 647.46 450.64 C 648.33 452.16 649.27 453.73 651.20 454.01 L 651.24 454.51 C 653.18 455.26 655.18 455.81 657.22 456.28 C 646.94 457.26 636.36 460.41 626.13 457.46 C 622.52 456.66 618.79 456.63 615.18 455.79 C 602.03 452.80 588.47 452.41 575.04 452.43 C 550.38 452.65 525.71 452.66 501.04 452.30 C 471.77 451.92 442.48 451.55 413.22 452.85 C 402.22 453.44 391.09 452.05 380.21 454.24 C 377.92 454.63 376.32 456.62 374.03 457.02 C 362.56 459.55 350.85 462.67 339.01 461.20 C 335.71 460.96 332.88 459.14 329.79 458.21 C 320.76 455.32 311.21 455.08 301.93 453.53 C 298.31 452.87 294.62 453.07 290.96 453.00 C 261.32 452.70 231.68 453.42 202.05 453.78 C 187.04 454.17 172.01 453.46 157.01 454.25 C 143.95 454.48 130.83 452.47 117.82 454.38 C 108.56 455.27 99.16 454.77 89.97 456.52 C 77.14 458.90 64.07 459.65 51.04 459.59 C 48.24 459.69 45.61 458.61 42.91 458.05 C 40.16 456.43 40.44 452.79 43.56 451.80 C 46.80 450.84 50.03 449.79 53.45 449.77 C 52.95 448.02 52.25 446.26 50.26 445.87 C 49.17 444.85 48.12 443.80 47.09 442.72 C 46.51 441.59 45.85 440.50 45.17 439.44 C 44.56 438.52 43.93 437.61 43.29 436.72 C 44.59 436.71 45.89 436.70 47.19 436.68 C 51.87 434.72 57.18 436.83 61.87 435.02 C 84.04 435.74 105.72 442.43 128.00 441.43 C 142.39 440.85 156.81 442.41 171.18 441.09 C 190.75 439.25 210.38 441.38 229.98 441.26 C 237.99 441.37 245.98 440.49 253.99 440.62 C 272.32 440.54 290.91 442.50 309.03 438.80 C 317.53 435.65 326.57 434.39 335.10 431.31 M 343.75 442.59 C 343.28 444.37 342.04 446.33 343.11 448.15 C 344.05 450.66 347.35 451.19 349.64 450.42 C 352.05 449.56 353.14 446.24 351.53 444.19 C 350.02 441.27 346.35 442.12 343.75 442.59 Z" />
</g>
</svg>
