<?xml version="1.0" encoding="UTF-8" ?>
<!DOCTYPE svg PUBLIC "-//W3C//DTD SVG 1.1//EN" "http://www.w3.org/Graphics/SVG/1.1/DTD/svg11.dtd">
<svg width="960pt" height="540pt" viewBox="0 0 960 540" version="1.1" xmlns="http://www.w3.org/2000/svg">
<g id="#ffffffff">
<path fill="#ffffff" opacity="1.00" d=" M 249.21 166.28 C 259.70 165.64 271.40 166.03 279.84 173.17 C 287.62 179.68 294.80 189.15 293.71 199.83 C 293.47 202.86 292.00 205.75 289.95 207.95 C 282.73 212.03 273.84 212.32 265.92 210.32 C 260.04 209.14 254.94 205.86 249.59 203.34 C 248.71 199.33 249.34 195.09 249.16 191.00 C 249.49 182.76 248.47 174.50 249.21 166.28 Z" />
<path fill="#ffffff" opacity="1.00" d=" M 337.54 174.55 C 345.39 168.66 355.45 166.80 365.09 167.01 C 366.64 179.53 366.69 192.16 366.79 204.76 C 366.52 206.01 365.24 206.63 364.26 207.26 C 357.39 210.69 349.58 211.73 341.98 211.32 C 336.49 210.86 330.32 208.26 328.21 202.78 C 325.87 198.44 326.53 193.24 327.89 188.71 C 329.93 183.33 333.15 178.31 337.54 174.55 Z" />
</g>
<g id="#030508ff">
<path fill="#030508" opacity="1.00" d=" M 292.17 32.07 C 304.36 28.04 317.87 27.31 330.01 31.96 C 352.05 40.30 372.73 51.86 392.69 64.30 C 398.89 67.93 403.96 73.08 409.81 77.18 C 417.60 83.70 424.05 91.65 431.82 98.18 C 440.43 107.10 447.80 117.15 453.92 127.93 C 460.99 137.25 464.55 148.59 468.52 159.44 C 473.49 173.80 478.01 188.38 480.35 203.43 C 480.77 206.60 481.82 209.77 481.54 212.99 C 476.32 220.77 469.47 227.26 463.14 234.11 C 454.85 243.53 445.03 251.40 435.63 259.64 C 425.16 268.99 412.63 275.50 400.72 282.76 C 396.94 285.28 392.11 286.49 389.45 290.43 C 382.15 299.85 372.98 308.05 361.97 312.82 C 362.38 308.67 363.00 304.55 363.27 300.40 C 356.60 302.78 349.75 304.60 342.73 305.58 C 340.57 310.16 337.21 314.31 332.60 316.58 C 324.16 320.86 314.56 323.25 305.09 322.62 C 294.46 320.83 282.21 316.92 277.58 306.16 C 270.25 305.30 263.16 303.28 256.19 300.95 C 256.49 305.10 257.18 309.21 257.47 313.37 C 246.54 308.46 237.34 300.39 230.07 290.95 C 227.38 286.99 222.55 285.73 218.72 283.23 C 206.62 275.87 193.91 269.23 183.33 259.68 C 174.11 251.59 164.48 243.87 156.36 234.61 C 150.03 227.54 142.61 221.14 137.84 212.89 C 139.68 197.16 143.56 181.69 148.72 166.73 C 152.16 156.18 155.85 145.67 160.82 135.73 C 165.07 128.18 169.98 121.01 174.83 113.84 C 180.37 106.15 187.19 99.54 193.83 92.83 C 203.16 83.79 212.79 75.00 223.16 67.15 C 236.75 58.03 251.25 50.36 265.72 42.74 C 274.18 38.35 283.20 35.22 292.17 32.07 M 278.30 50.33 C 267.26 54.95 256.20 59.70 246.06 66.11 C 238.40 70.53 231.54 76.14 224.53 81.49 C 209.23 92.63 195.99 106.33 183.56 120.52 C 178.13 126.41 174.49 133.57 170.30 140.31 C 168.38 143.53 166.69 146.90 165.49 150.45 C 163.08 157.87 159.52 164.88 157.42 172.41 C 154.30 183.57 151.80 194.93 150.33 206.42 C 149.55 210.32 152.77 213.27 154.76 216.21 C 167.96 233.53 183.83 248.68 201.06 261.94 C 207.20 267.30 213.60 272.45 220.86 276.23 C 217.32 268.21 212.59 260.76 209.43 252.58 C 204.39 238.35 200.93 223.62 198.11 208.81 C 197.10 203.37 195.83 197.84 196.27 192.28 C 199.31 187.46 203.96 183.92 207.55 179.52 C 217.63 169.29 226.88 158.19 238.04 149.07 C 252.66 136.53 268.05 124.88 283.87 113.90 C 291.36 108.55 299.82 104.72 307.10 99.06 C 309.07 97.90 311.57 95.62 313.93 97.10 C 319.22 100.38 324.37 103.91 329.31 107.70 C 335.55 112.99 343.04 116.49 349.41 121.60 C 357.29 128.09 365.34 134.36 373.56 140.41 C 389.67 153.58 404.22 168.73 416.32 185.70 C 418.44 188.90 421.43 191.56 423.02 195.09 C 423.29 201.30 421.49 207.35 420.38 213.41 C 417.93 226.01 414.72 238.46 410.61 250.62 C 407.65 259.33 402.26 266.93 398.91 275.48 C 408.82 270.76 416.39 262.60 425.13 256.17 C 440.96 243.07 455.75 228.48 467.64 211.66 C 470.13 208.79 469.07 204.91 468.61 201.53 C 466.56 189.49 464.15 177.43 460.09 165.88 C 457.17 158.74 454.68 151.43 451.66 144.34 C 446.38 134.92 441.13 125.31 433.66 117.39 C 421.99 104.39 409.71 91.77 395.56 81.44 C 387.96 75.64 380.54 69.54 372.18 64.84 C 357.24 56.06 341.98 46.92 324.79 43.40 C 309.02 41.68 292.95 44.34 278.30 50.33 M 297.32 114.34 C 287.59 120.06 278.67 126.99 269.34 133.31 C 267.26 134.86 264.64 136.25 263.95 138.97 C 262.29 144.58 261.07 150.34 260.21 156.13 C 260.16 157.29 259.49 159.66 261.47 159.50 C 268.91 159.59 276.36 158.92 283.81 158.94 C 283.44 149.69 285.85 140.71 288.05 131.82 C 289.57 132.07 291.08 132.32 292.61 132.57 C 293.16 137.92 291.00 142.97 290.25 148.19 C 289.65 151.75 289.66 155.37 289.79 158.97 C 302.86 159.07 315.94 158.95 329.01 158.61 C 329.89 152.21 329.41 145.64 327.66 139.42 C 327.21 137.21 326.02 134.66 327.57 132.61 C 328.57 132.12 330.28 132.00 330.74 133.28 C 334.19 141.07 334.18 149.78 334.21 158.14 C 343.02 158.54 351.88 158.69 360.68 158.04 C 360.50 147.64 357.13 135.92 347.67 130.28 C 338.01 123.31 328.75 115.80 318.91 109.08 C 316.38 107.47 313.50 104.50 310.30 106.18 C 305.70 108.43 301.74 111.77 297.32 114.34 M 226.29 170.32 C 219.64 177.68 212.68 184.76 206.25 192.31 C 205.24 193.69 203.78 195.01 203.63 196.80 C 204.71 211.86 208.81 226.48 213.09 240.90 C 215.78 250.23 220.13 258.95 224.19 267.73 C 230.96 280.53 238.20 294.15 250.75 302.16 C 251.08 293.76 249.85 285.41 249.15 277.06 C 247.87 264.09 247.22 251.07 246.23 238.07 C 245.61 220.70 243.37 203.40 243.64 186.00 C 243.79 177.24 243.14 168.47 243.76 159.72 C 247.34 159.60 250.93 159.55 254.52 159.63 C 254.79 153.91 255.80 148.28 256.87 142.67 C 245.21 150.13 236.16 160.78 226.29 170.32 M 363.08 142.77 C 363.96 147.65 364.69 152.56 365.22 157.49 C 367.17 157.65 369.13 157.83 371.09 158.02 C 371.98 164.64 371.86 171.34 372.10 178.01 C 372.73 200.01 372.19 222.01 372.44 244.02 C 372.21 259.71 370.38 275.32 369.03 290.94 C 368.74 294.40 368.69 297.88 368.88 301.35 C 376.32 297.23 381.50 290.06 386.29 283.23 C 393.89 270.89 400.28 257.79 405.23 244.17 C 409.57 229.93 413.89 215.57 415.74 200.75 C 415.86 198.78 416.32 196.57 415.10 194.83 C 406.66 182.83 397.12 171.58 386.61 161.34 C 378.97 154.91 371.47 148.22 363.08 142.77 M 249.21 166.28 C 248.47 174.50 249.49 182.76 249.16 191.00 C 249.34 195.09 248.71 199.33 249.59 203.34 C 254.94 205.86 260.04 209.14 265.92 210.32 C 273.84 212.32 282.73 212.03 289.95 207.95 C 292.00 205.75 293.47 202.86 293.71 199.83 C 294.80 189.15 287.62 179.68 279.84 173.17 C 271.40 166.03 259.70 165.64 249.21 166.28 M 282.66 166.04 C 288.41 170.12 292.49 175.88 296.39 181.65 C 298.98 185.63 299.48 190.46 300.27 195.03 C 301.44 200.54 299.87 206.36 297.11 211.16 C 292.69 216.88 284.83 218.18 278.01 217.86 C 268.34 218.33 258.73 216.09 249.98 212.06 C 250.25 218.37 250.96 224.65 251.34 230.96 C 251.63 232.69 251.59 234.77 252.87 236.12 C 263.80 245.11 277.34 250.00 290.72 254.08 C 297.40 255.40 304.15 256.57 311.00 256.26 C 331.04 255.35 349.54 246.52 366.79 236.92 C 366.55 228.93 367.87 220.99 367.22 213.01 C 361.29 215.29 355.11 216.96 348.82 217.93 C 342.75 218.50 336.75 216.92 331.03 215.05 C 324.88 212.60 320.56 206.52 319.93 199.96 C 318.35 190.58 322.66 181.44 328.02 174.01 C 330.78 171.14 334.28 169.11 337.40 166.65 C 319.17 165.22 300.90 167.38 282.66 166.04 M 337.54 174.55 C 333.15 178.31 329.93 183.33 327.89 188.71 C 326.53 193.24 325.87 198.44 328.21 202.78 C 330.32 208.26 336.49 210.86 341.98 211.32 C 349.58 211.73 357.39 210.69 364.26 207.26 C 365.24 206.63 366.52 206.01 366.79 204.76 C 366.69 192.16 366.64 179.53 365.09 167.01 C 355.45 166.80 345.39 168.66 337.54 174.55 M 345.27 255.26 C 338.02 258.45 330.08 259.43 322.68 262.15 C 326.33 265.30 330.52 267.72 334.32 270.69 C 336.08 272.43 338.46 271.06 340.44 270.56 C 348.47 267.78 356.99 265.85 364.22 261.23 C 365.91 256.15 365.42 250.64 365.86 245.36 C 359.22 249.10 352.21 252.12 345.27 255.26 M 254.04 246.15 C 254.15 250.91 253.76 255.89 255.51 260.41 C 258.43 262.74 262.00 264.05 265.33 265.66 C 270.75 267.85 276.07 270.60 281.85 271.66 C 287.12 268.69 292.79 266.35 297.79 262.93 C 291.90 260.35 285.41 259.76 279.38 257.62 C 270.43 254.98 262.41 250.13 254.04 246.15 M 254.76 269.18 C 254.74 277.09 255.45 284.98 255.94 292.87 C 261.87 295.43 268.16 297.07 274.56 297.97 C 274.39 291.29 274.86 284.56 276.87 278.15 C 269.51 275.14 261.88 272.76 254.76 269.18 M 303.33 269.40 C 297.60 270.33 292.45 273.37 288.00 276.98 C 282.22 281.70 280.44 289.91 281.84 297.00 C 282.95 302.83 285.33 309.11 290.74 312.23 C 298.10 317.24 307.50 316.56 315.94 315.82 C 322.86 314.95 330.66 312.96 334.84 306.91 C 336.80 301.88 336.92 296.30 337.03 290.96 C 337.21 283.96 332.34 277.99 327.12 273.90 C 319.93 270.08 311.42 268.40 303.33 269.40 M 341.71 278.07 C 343.00 284.60 344.48 291.12 344.45 297.82 C 350.93 296.49 357.40 294.98 363.54 292.48 C 364.25 284.64 364.52 276.77 364.83 268.91 C 357.22 272.20 349.37 274.90 341.71 278.07 Z" />
</g>
<g id="#b42636ff">
<path fill="#b42636" opacity="1.00" d=" M 278.30 50.33 C 292.95 44.34 309.02 41.68 324.79 43.40 C 341.98 46.92 357.24 56.06 372.18 64.84 C 380.54 69.54 387.96 75.64 395.56 81.44 C 409.71 91.77 421.99 104.39 433.66 117.39 C 441.13 125.31 446.38 134.92 451.66 144.34 C 454.68 151.43 457.17 158.74 460.09 165.88 C 464.15 177.43 466.56 189.49 468.61 201.53 C 469.07 204.91 470.13 208.79 467.64 211.66 C 455.75 228.48 440.96 243.07 425.13 256.17 C 416.39 262.60 408.82 270.76 398.91 275.48 C 402.26 266.93 407.65 259.33 410.61 250.62 C 414.72 238.46 417.93 226.01 420.38 213.41 C 421.49 207.35 423.29 201.30 423.02 195.09 C 421.43 191.56 418.44 188.90 416.32 185.70 C 404.22 168.73 389.67 153.58 373.56 140.41 C 365.34 134.36 357.29 128.09 349.41 121.60 C 343.04 116.49 335.55 112.99 329.31 107.70 C 324.37 103.91 319.22 100.38 313.93 97.10 C 311.57 95.62 309.07 97.90 307.10 99.06 C 299.82 104.72 291.36 108.55 283.87 113.90 C 268.05 124.88 252.66 136.53 238.04 149.07 C 226.88 158.19 217.63 169.29 207.55 179.52 C 203.96 183.92 199.31 187.46 196.27 192.28 C 195.83 197.84 197.10 203.37 198.11 208.81 C 200.93 223.62 204.39 238.35 209.43 252.58 C 212.59 260.76 217.32 268.21 220.86 276.23 C 213.60 272.45 207.20 267.30 201.06 261.94 C 183.83 248.68 167.96 233.53 154.76 216.21 C 152.77 213.27 149.55 210.32 150.33 206.42 C 151.80 194.93 154.30 183.57 157.42 172.41 C 159.52 164.88 163.08 157.87 165.49 150.45 C 166.69 146.90 168.38 143.53 170.30 140.31 C 174.49 133.57 178.13 126.41 183.56 120.52 C 195.99 106.33 209.23 92.63 224.53 81.49 C 231.54 76.14 238.40 70.53 246.06 66.11 C 256.20 59.70 267.26 54.95 278.30 50.33 Z" />
<path fill="#b42636" opacity="1.00" d=" M 254.76 269.18 C 261.88 272.76 269.51 275.14 276.87 278.15 C 274.86 284.56 274.39 291.29 274.56 297.97 C 268.16 297.07 261.87 295.43 255.94 292.87 C 255.45 284.98 254.74 277.09 254.76 269.18 Z" />
<path fill="#b42636" opacity="1.00" d=" M 341.71 278.07 C 349.37 274.90 357.22 272.20 364.83 268.91 C 364.52 276.77 364.25 284.64 363.54 292.48 C 357.40 294.98 350.93 296.49 344.45 297.82 C 344.48 291.12 343.00 284.60 341.71 278.07 Z" />
</g>
<g id="#67442cff">
<path fill="#67442c" opacity="1.00" d=" M 297.32 114.34 C 301.74 111.77 305.70 108.43 310.30 106.18 C 313.50 104.50 316.38 107.47 318.91 109.08 C 328.75 115.80 338.01 123.31 347.67 130.28 C 357.13 135.92 360.50 147.64 360.68 158.04 C 351.88 158.69 343.02 158.54 334.21 158.14 C 334.18 149.78 334.19 141.07 330.74 133.28 C 330.28 132.00 328.57 132.12 327.57 132.61 C 326.02 134.66 327.21 137.21 327.66 139.42 C 329.41 145.64 329.89 152.21 329.01 158.61 C 315.94 158.95 302.86 159.07 289.79 158.97 C 289.66 155.37 289.65 151.75 290.25 148.19 C 291.00 142.97 293.16 137.92 292.61 132.57 C 291.08 132.32 289.57 132.07 288.05 131.82 C 285.85 140.71 283.44 149.69 283.81 158.94 C 276.36 158.92 268.91 159.59 261.47 159.50 C 259.49 159.66 260.16 157.29 260.21 156.13 C 261.07 150.34 262.29 144.58 263.95 138.97 C 264.64 136.25 267.26 134.86 269.34 133.31 C 278.67 126.99 287.59 120.06 297.32 114.34 Z" />
<path fill="#67442c" opacity="1.00" d=" M 226.29 170.32 C 236.16 160.78 245.21 150.13 256.87 142.67 C 255.80 148.28 254.79 153.91 254.52 159.63 C 250.93 159.55 247.34 159.60 243.76 159.72 C 243.14 168.47 243.79 177.24 243.64 186.00 C 243.37 203.40 245.61 220.70 246.23 238.07 C 247.22 251.07 247.87 264.09 249.15 277.06 C 249.85 285.41 251.08 293.76 250.75 302.16 C 238.20 294.15 230.96 280.53 224.19 267.73 C 220.13 258.95 215.78 250.23 213.09 240.90 C 208.81 226.48 204.71 211.86 203.63 196.80 C 203.78 195.01 205.24 193.69 206.25 192.31 C 212.68 184.76 219.64 177.68 226.29 170.32 Z" />
<path fill="#67442c" opacity="1.00" d=" M 363.08 142.77 C 371.47 148.22 378.97 154.91 386.61 161.34 C 397.12 171.58 406.66 182.83 415.10 194.83 C 416.32 196.57 415.86 198.78 415.74 200.75 C 413.89 215.57 409.57 229.93 405.23 244.17 C 400.28 257.79 393.89 270.89 386.29 283.23 C 381.50 290.06 376.32 297.23 368.88 301.35 C 368.69 297.88 368.74 294.40 369.03 290.94 C 370.38 275.32 372.21 259.71 372.44 244.02 C 372.19 222.01 372.73 200.01 372.10 178.01 C 371.86 171.34 371.98 164.64 371.09 158.02 C 369.13 157.83 367.17 157.65 365.22 157.49 C 364.69 152.56 363.96 147.65 363.08 142.77 Z" />
</g>
<g id="#f9dbbdff">
<path fill="#f9dbbd" opacity="1.00" d=" M 282.66 166.04 C 300.90 167.38 319.17 165.22 337.40 166.65 C 334.28 169.11 330.78 171.14 328.02 174.01 C 322.66 181.44 318.35 190.58 319.93 199.96 C 320.56 206.52 324.88 212.60 331.03 215.05 C 336.75 216.92 342.75 218.50 348.82 217.93 C 355.11 216.96 361.29 215.29 367.22 213.01 C 367.87 220.99 366.55 228.93 366.79 236.92 C 349.54 246.52 331.04 255.35 311.00 256.26 C 304.15 256.57 297.40 255.40 290.72 254.08 C 277.34 250.00 263.80 245.11 252.87 236.12 C 251.59 234.77 251.63 232.69 251.34 230.96 C 250.96 224.65 250.25 218.37 249.98 212.06 C 258.73 216.09 268.34 218.33 278.01 217.86 C 284.83 218.18 292.69 216.88 297.11 211.16 C 299.87 206.36 301.44 200.54 300.27 195.03 C 299.48 190.46 298.98 185.63 296.39 181.65 C 292.49 175.88 288.41 170.12 282.66 166.04 Z" />
</g>
<g id="#4c121bff">
<path fill="#4c121b" opacity="1.00" d=" M 345.27 255.26 C 352.21 252.12 359.22 249.10 365.86 245.36 C 365.42 250.64 365.91 256.15 364.22 261.23 C 356.99 265.85 348.47 267.78 340.44 270.56 C 338.46 271.06 336.08 272.43 334.32 270.69 C 330.52 267.72 326.33 265.30 322.68 262.15 C 330.08 259.43 338.02 258.45 345.27 255.26 Z" />
</g>
<g id="#471119ff">
<path fill="#471119" opacity="1.00" d=" M 254.04 246.15 C 262.41 250.13 270.43 254.98 279.38 257.62 C 285.41 259.76 291.90 260.35 297.79 262.93 C 292.79 266.35 287.12 268.69 281.85 271.66 C 276.07 270.60 270.75 267.85 265.33 265.66 C 262.00 264.05 258.43 262.74 255.51 260.41 C 253.76 255.89 254.15 250.91 254.04 246.15 Z" />
</g>
<g id="#2a293fff">
<path fill="#2a293f" opacity="1.00" d=" M 303.33 269.40 C 311.42 268.40 319.93 270.08 327.12 273.90 C 332.34 277.99 337.21 283.96 337.03 290.96 C 336.92 296.30 336.80 301.88 334.84 306.91 C 330.66 312.96 322.86 314.95 315.94 315.82 C 307.50 316.56 298.10 317.24 290.74 312.23 C 285.33 309.11 282.95 302.83 281.84 297.00 C 280.44 289.91 282.22 281.70 288.00 276.98 C 292.45 273.37 297.60 270.33 303.33 269.40 M 303.36 276.35 C 300.28 277.17 297.16 278.65 295.33 281.37 C 291.26 287.75 292.09 297.10 297.44 302.53 C 305.51 309.19 319.22 308.12 325.59 299.59 C 328.70 295.42 328.87 289.53 327.11 284.79 C 322.80 276.43 311.83 274.30 303.36 276.35 Z" />
</g>
<g id="#030609ff">
<path fill="#030609" opacity="1.00" d=" M 303.36 276.35 C 311.83 274.30 322.80 276.43 327.11 284.79 C 328.87 289.53 328.70 295.42 325.59 299.59 C 319.22 308.12 305.51 309.19 297.44 302.53 C 292.09 297.10 291.26 287.75 295.33 281.37 C 297.16 278.65 300.28 277.17 303.36 276.35 M 305.42 281.52 C 300.16 283.55 298.23 289.77 298.86 294.95 C 299.08 298.17 302.23 300.28 305.17 300.82 C 309.97 301.72 315.64 301.99 319.55 298.53 C 323.45 295.59 324.41 288.82 320.49 285.52 C 316.57 281.82 310.66 280.08 305.42 281.52 Z" />
</g>
<g id="#328ca0ff">
<path fill="#328ca0" opacity="1.00" d=" M 305.42 281.52 C 310.66 280.08 316.57 281.82 320.49 285.52 C 324.41 288.82 323.45 295.59 319.55 298.53 C 315.64 301.99 309.97 301.72 305.17 300.82 C 302.23 300.28 299.08 298.17 298.86 294.95 C 298.23 289.77 300.16 283.55 305.42 281.52 Z" />
</g>
</svg>
